{"glyphs":{"0":{"ha":961,"x_min":40,"x_max":921,"o":"m 481 -22 q 252 38 351 -22 q 97 213 153 99 q 40 486 40 328 q 97 759 40 644 q 252 934 153 874 q 481 994 351 994 q 709 934 610 994 q 865 759 808 874 q 921 486 921 644 q 865 213 921 328 q 709 38 808 99 q 481 -22 610 -22 m 481 240 q 592 486 592 240 q 481 732 592 732 q 369 486 369 732 q 481 240 369 240 z "},"1":{"ha":581,"x_min":7,"x_max":501,"o":"m 501 972 l 501 0 l 174 0 l 174 725 l 7 725 l 7 972 l 501 972 z "},"2":{"ha":844,"x_min":-18,"x_max":818,"o":"m 818 254 l 818 0 l 39 0 l 39 201 l 390 526 q 451 600 436 569 q 467 660 467 631 q 442 716 467 696 q 372 736 418 736 q 289 713 328 736 q 229 646 250 689 l -18 769 q 144 934 38 874 q 403 994 251 994 q 607 957 518 994 q 746 850 696 919 q 796 690 796 781 q 762 540 796 610 q 629 381 728 469 l 490 254 l 818 254 z "},"3":{"ha":853,"x_min":-8,"x_max":819,"o":"m 586 588 q 759 487 699 560 q 819 311 819 414 q 772 148 819 224 q 624 25 724 72 q 375 -22 524 -22 q 170 0 272 -22 q -8 65 68 22 l 103 307 q 231 254 163 272 q 364 236 300 236 q 456 256 421 236 q 490 311 490 275 q 375 378 490 378 l 246 378 l 246 579 l 389 725 l 42 725 l 42 972 l 767 972 l 767 771 l 586 588 z "},"4":{"ha":989,"x_min":32,"x_max":983,"o":"m 983 167 l 854 167 l 854 0 l 536 0 l 536 167 l 32 167 l 32 375 l 444 972 l 781 972 l 414 421 l 546 421 l 546 569 l 854 569 l 854 421 l 983 421 l 983 167 z "},"5":{"ha":860,"x_min":7,"x_max":835,"o":"m 438 629 q 738 544 642 629 q 835 319 835 458 q 787 151 835 228 q 639 26 739 74 q 390 -22 539 -22 q 185 0 288 -22 q 7 65 83 22 l 118 307 q 247 254 179 272 q 378 236 314 236 q 470 256 435 236 q 506 313 506 276 q 474 365 506 347 q 358 382 442 382 l 76 382 l 125 972 l 771 972 l 771 725 l 394 725 l 388 629 l 438 629 z "},"6":{"ha":918,"x_min":40,"x_max":901,"o":"m 568 629 q 733 590 657 629 q 856 481 810 551 q 901 318 901 410 q 849 139 901 217 q 707 19 797 61 q 507 -22 617 -22 q 262 32 367 -22 q 99 193 157 86 q 40 456 40 300 q 108 744 40 622 q 297 931 175 867 q 579 994 418 994 q 746 974 667 994 q 881 918 825 954 l 763 689 q 586 740 690 740 q 447 698 501 740 q 375 575 392 656 q 568 629 451 629 m 485 204 q 557 231 529 204 q 585 303 585 257 q 557 376 585 349 q 485 403 529 403 q 413 376 440 403 q 385 303 385 349 q 413 231 385 257 q 485 204 440 204 z "},"7":{"ha":896,"x_min":29,"x_max":861,"o":"m 861 972 l 861 771 l 538 0 l 179 0 l 488 718 l 300 718 l 300 576 l 29 576 l 29 972 l 861 972 z "},"8":{"ha":942,"x_min":35,"x_max":907,"o":"m 776 513 q 873 417 839 474 q 907 289 907 361 q 852 125 907 196 q 698 16 797 54 q 471 -22 599 -22 q 244 16 343 -22 q 90 125 144 54 q 35 289 35 196 q 69 417 35 361 q 165 513 103 474 q 69 704 69 589 q 120 857 69 792 q 262 958 171 922 q 471 994 353 994 q 680 958 589 994 q 822 857 771 922 q 872 704 872 792 q 776 513 872 589 m 471 774 q 415 751 436 774 q 393 690 393 729 q 415 629 393 651 q 471 607 436 607 q 527 629 506 607 q 549 690 549 651 q 527 751 549 729 q 471 774 506 774 m 471 199 q 548 226 518 199 q 578 300 578 254 q 548 374 578 346 q 471 401 518 401 q 394 374 424 401 q 364 300 364 346 q 394 226 364 254 q 471 199 424 199 z "},"9":{"ha":918,"x_min":17,"x_max":878,"o":"m 411 994 q 656 940 551 994 q 819 779 761 886 q 878 517 878 672 q 810 228 878 350 q 622 42 743 106 q 339 -22 500 -22 q 172 -2 251 -22 q 38 54 93 18 l 156 283 q 332 232 228 232 q 472 274 417 232 q 543 397 526 317 q 350 343 467 343 q 185 382 261 343 q 63 492 108 421 q 17 654 17 563 q 69 833 17 756 q 211 953 121 911 q 411 994 301 994 m 433 569 q 506 597 478 569 q 533 669 533 624 q 506 742 533 715 q 433 768 478 768 q 361 742 389 768 q 333 669 333 715 q 361 597 333 624 q 433 569 389 569 z "},"\u0000":{"ha":0,"x_min":0,"x_max":0,"o":""},"\r":{"ha":417,"x_min":0,"x_max":0,"o":""}," ":{"ha":417,"x_min":0,"x_max":0,"o":""},"A":{"ha":1119,"x_min":-26,"x_max":1146,"o":"m 742 169 l 372 169 l 307 0 l -26 0 l 399 972 l 721 972 l 1146 0 l 807 0 l 742 169 m 651 406 l 557 650 l 463 406 l 651 406 z "},"Á":{"ha":1119,"x_min":-26,"x_max":1146,"o":"m 742 169 l 372 169 l 307 0 l -26 0 l 399 972 l 721 972 l 1146 0 l 807 0 l 742 169 m 651 406 l 557 650 l 463 406 l 651 406 m 597 1274 l 896 1274 l 622 1051 l 414 1051 l 597 1274 z "},"Ă":{"ha":1119,"x_min":-26,"x_max":1146,"o":"m 742 169 l 372 169 l 307 0 l -26 0 l 399 972 l 721 972 l 1146 0 l 807 0 l 742 169 m 651 406 l 557 650 l 463 406 l 651 406 m 560 1038 q 354 1101 433 1038 q 269 1274 275 1165 l 457 1274 q 488 1212 460 1235 q 560 1189 517 1189 q 631 1212 603 1189 q 663 1274 660 1235 l 850 1274 q 765 1101 844 1165 q 560 1038 686 1038 z "},"Ắ":{"ha":1119,"x_min":-26,"x_max":1146,"o":"m 742 169 l 372 169 l 307 0 l -26 0 l 399 972 l 721 972 l 1146 0 l 807 0 l 742 169 m 651 406 l 557 650 l 463 406 l 651 406 m 560 1038 q 355 1090 435 1038 q 269 1232 275 1143 l 446 1232 q 481 1190 450 1206 q 560 1174 513 1174 q 638 1190 607 1174 q 674 1232 669 1206 l 850 1232 q 765 1090 844 1143 q 560 1038 685 1038 m 556 1465 l 854 1465 l 622 1285 l 414 1285 l 556 1465 z "},"Ặ":{"ha":1119,"x_min":-26,"x_max":1146,"o":"m 742 169 l 372 169 l 307 0 l -26 0 l 399 972 l 721 972 l 1146 0 l 807 0 l 742 169 m 651 406 l 557 650 l 463 406 l 651 406 m 560 -314 q 470 -281 506 -314 q 435 -193 435 -247 q 470 -104 435 -139 q 560 -69 506 -69 q 649 -104 614 -69 q 685 -193 685 -139 q 649 -281 685 -247 q 560 -314 614 -314 m 560 1038 q 354 1101 433 1038 q 269 1274 275 1165 l 457 1274 q 488 1212 460 1235 q 560 1189 517 1189 q 631 1212 603 1189 q 663 1274 660 1235 l 850 1274 q 765 1101 844 1165 q 560 1038 686 1038 z "},"Ằ":{"ha":1119,"x_min":-26,"x_max":1146,"o":"m 742 169 l 372 169 l 307 0 l -26 0 l 399 972 l 721 972 l 1146 0 l 807 0 l 742 169 m 651 406 l 557 650 l 463 406 l 651 406 m 560 1038 q 355 1090 435 1038 q 269 1232 275 1143 l 446 1232 q 481 1190 450 1206 q 560 1174 513 1174 q 638 1190 607 1174 q 674 1232 669 1206 l 850 1232 q 765 1090 844 1143 q 560 1038 685 1038 m 265 1465 l 564 1465 l 706 1285 l 497 1285 l 265 1465 z "},"Ẳ":{"ha":1119,"x_min":-26,"x_max":1146,"o":"m 742 169 l 372 169 l 307 0 l -26 0 l 399 972 l 721 972 l 1146 0 l 807 0 l 742 169 m 651 406 l 557 650 l 463 406 l 651 406 m 560 1038 q 355 1090 435 1038 q 269 1232 275 1143 l 446 1232 q 481 1190 450 1206 q 560 1174 513 1174 q 638 1190 607 1174 q 674 1232 669 1206 l 850 1232 q 765 1090 844 1143 q 560 1038 685 1038 m 536 1306 q 583 1357 583 1331 q 572 1382 583 1372 q 543 1392 561 1392 q 479 1375 513 1392 l 432 1460 q 569 1494 488 1494 q 678 1462 638 1494 q 718 1372 718 1429 q 687 1295 718 1329 q 608 1243 656 1261 l 536 1306 z "},"Ẵ":{"ha":1119,"x_min":-26,"x_max":1146,"o":"m 742 169 l 372 169 l 307 0 l -26 0 l 399 972 l 721 972 l 1146 0 l 807 0 l 742 169 m 651 406 l 557 650 l 463 406 l 651 406 m 560 1038 q 355 1090 435 1038 q 269 1232 275 1143 l 446 1232 q 481 1190 450 1206 q 560 1174 513 1174 q 638 1190 607 1174 q 674 1232 669 1206 l 850 1232 q 765 1090 844 1143 q 560 1038 685 1038 m 665 1271 q 593 1283 625 1271 q 526 1318 561 1296 q 497 1334 511 1328 q 474 1340 483 1340 q 434 1324 450 1340 q 415 1283 418 1308 l 263 1283 q 313 1436 263 1382 q 454 1490 364 1490 q 526 1478 494 1490 q 593 1444 557 1465 q 624 1428 608 1435 q 649 1421 639 1421 q 690 1438 674 1421 q 708 1478 706 1454 l 857 1478 q 808 1326 857 1381 q 665 1271 758 1271 z "},"Ǎ":{"ha":1119,"x_min":-26,"x_max":1146,"o":"m 742 169 l 372 169 l 307 0 l -26 0 l 399 972 l 721 972 l 1146 0 l 807 0 l 742 169 m 651 406 l 557 650 l 463 406 l 651 406 m 871 1274 l 693 1051 l 426 1051 l 249 1274 l 443 1274 l 560 1167 l 676 1274 l 871 1274 z "},"Â":{"ha":1119,"x_min":-26,"x_max":1146,"o":"m 742 169 l 372 169 l 307 0 l -26 0 l 399 972 l 721 972 l 1146 0 l 807 0 l 742 169 m 651 406 l 557 650 l 463 406 l 651 406 m 676 1051 l 560 1158 l 443 1051 l 249 1051 l 426 1274 l 693 1274 l 871 1051 l 676 1051 z "},"Ấ":{"ha":1119,"x_min":-26,"x_max":1201,"o":"m 742 169 l 372 169 l 307 0 l -26 0 l 399 972 l 721 972 l 1146 0 l 807 0 l 742 169 m 651 406 l 557 650 l 463 406 l 651 406 m 676 1051 l 560 1136 l 443 1051 l 249 1051 l 428 1232 l 692 1232 l 871 1051 l 676 1051 m 903 1378 l 1201 1378 l 969 1197 l 761 1197 l 903 1378 z "},"Ậ":{"ha":1119,"x_min":-26,"x_max":1146,"o":"m 742 169 l 372 169 l 307 0 l -26 0 l 399 972 l 721 972 l 1146 0 l 807 0 l 742 169 m 651 406 l 557 650 l 463 406 l 651 406 m 560 -314 q 470 -281 506 -314 q 435 -193 435 -247 q 470 -104 435 -139 q 560 -69 506 -69 q 649 -104 614 -69 q 685 -193 685 -139 q 649 -281 685 -247 q 560 -314 614 -314 m 676 1051 l 560 1158 l 443 1051 l 249 1051 l 426 1274 l 693 1274 l 871 1051 l 676 1051 z "},"Ầ":{"ha":1119,"x_min":-26,"x_max":1146,"o":"m 742 169 l 372 169 l 307 0 l -26 0 l 399 972 l 721 972 l 1146 0 l 807 0 l 742 169 m 651 406 l 557 650 l 463 406 l 651 406 m 676 1051 l 560 1136 l 443 1051 l 249 1051 l 428 1232 l 692 1232 l 871 1051 l 676 1051 m 613 1378 l 911 1378 l 1053 1197 l 844 1197 l 613 1378 z "},"Ẩ":{"ha":1119,"x_min":-26,"x_max":1146,"o":"m 742 169 l 372 169 l 307 0 l -26 0 l 399 972 l 721 972 l 1146 0 l 807 0 l 742 169 m 651 406 l 557 650 l 463 406 l 651 406 m 676 1051 l 560 1136 l 443 1051 l 249 1051 l 428 1232 l 692 1232 l 871 1051 l 676 1051 m 786 1232 q 833 1283 833 1257 q 822 1308 833 1299 q 793 1318 811 1318 q 729 1301 763 1318 l 682 1386 q 819 1421 738 1421 q 928 1388 888 1421 q 968 1299 968 1356 q 937 1222 968 1256 q 858 1169 906 1188 l 786 1232 z "},"Ẫ":{"ha":1119,"x_min":-26,"x_max":1146,"o":"m 742 169 l 372 169 l 307 0 l -26 0 l 399 972 l 721 972 l 1146 0 l 807 0 l 742 169 m 651 406 l 557 650 l 463 406 l 651 406 m 676 1051 l 560 1136 l 443 1051 l 249 1051 l 428 1232 l 692 1232 l 871 1051 l 676 1051 m 665 1281 q 593 1293 625 1281 q 526 1328 561 1306 q 497 1344 511 1338 q 474 1350 483 1350 q 434 1334 450 1350 q 415 1293 418 1318 l 263 1293 q 313 1446 263 1392 q 454 1500 364 1500 q 526 1488 494 1500 q 593 1454 557 1475 q 624 1438 608 1444 q 649 1431 639 1431 q 690 1447 674 1431 q 708 1488 706 1464 l 857 1488 q 808 1335 857 1390 q 665 1281 758 1281 z "},"Ȁ":{"ha":1119,"x_min":-26,"x_max":1146,"o":"m 742 169 l 372 169 l 307 0 l -26 0 l 399 972 l 721 972 l 1146 0 l 807 0 l 742 169 m 651 406 l 557 650 l 463 406 l 651 406 m 158 1274 l 429 1274 l 501 1051 l 293 1051 l 158 1274 m 483 1274 l 754 1274 l 826 1051 l 618 1051 l 483 1274 z "},"Ä":{"ha":1119,"x_min":-26,"x_max":1146,"o":"m 742 169 l 372 169 l 307 0 l -26 0 l 399 972 l 721 972 l 1146 0 l 807 0 l 742 169 m 651 406 l 557 650 l 463 406 l 651 406 m 406 1040 q 316 1074 351 1040 q 281 1163 281 1108 q 316 1251 281 1217 q 406 1286 351 1286 q 495 1251 460 1286 q 531 1163 531 1217 q 495 1074 531 1108 q 406 1040 460 1040 m 714 1040 q 624 1074 660 1040 q 589 1163 589 1108 q 624 1251 589 1217 q 714 1286 660 1286 q 803 1251 768 1286 q 839 1163 839 1217 q 803 1074 839 1108 q 714 1040 768 1040 z "},"Ạ":{"ha":1119,"x_min":-26,"x_max":1146,"o":"m 742 169 l 372 169 l 307 0 l -26 0 l 399 972 l 721 972 l 1146 0 l 807 0 l 742 169 m 651 406 l 557 650 l 463 406 l 651 406 m 560 -314 q 470 -281 506 -314 q 435 -193 435 -247 q 470 -104 435 -139 q 560 -69 506 -69 q 649 -104 614 -69 q 685 -193 685 -139 q 649 -281 685 -247 q 560 -314 614 -314 z "},"À":{"ha":1119,"x_min":-26,"x_max":1146,"o":"m 742 169 l 372 169 l 307 0 l -26 0 l 399 972 l 721 972 l 1146 0 l 807 0 l 742 169 m 651 406 l 557 650 l 463 406 l 651 406 m 224 1274 l 522 1274 l 706 1051 l 497 1051 l 224 1274 z "},"Ả":{"ha":1119,"x_min":-26,"x_max":1146,"o":"m 742 169 l 372 169 l 307 0 l -26 0 l 399 972 l 721 972 l 1146 0 l 807 0 l 742 169 m 651 406 l 557 650 l 463 406 l 651 406 m 525 1128 q 575 1163 561 1144 q 589 1203 589 1182 q 573 1242 589 1228 q 531 1256 557 1256 q 451 1228 492 1256 l 388 1344 q 567 1400 460 1400 q 708 1353 654 1400 q 763 1229 763 1306 q 726 1116 763 1163 q 619 1038 690 1069 l 525 1128 z "},"Ȃ":{"ha":1119,"x_min":-26,"x_max":1146,"o":"m 742 169 l 372 169 l 307 0 l -26 0 l 399 972 l 721 972 l 1146 0 l 807 0 l 742 169 m 651 406 l 557 650 l 463 406 l 651 406 m 269 1051 q 354 1224 275 1160 q 560 1288 433 1288 q 765 1224 686 1288 q 850 1051 844 1160 l 663 1051 q 631 1113 660 1090 q 560 1136 603 1136 q 488 1113 517 1136 q 457 1051 460 1090 l 269 1051 z "},"Ā":{"ha":1119,"x_min":-26,"x_max":1146,"o":"m 742 169 l 372 169 l 307 0 l -26 0 l 399 972 l 721 972 l 1146 0 l 807 0 l 742 169 m 651 406 l 557 650 l 463 406 l 651 406 m 268 1244 l 851 1244 l 851 1081 l 268 1081 l 268 1244 z "},"Ą":{"ha":1119,"x_min":-26,"x_max":1181,"o":"m 742 169 l 372 169 l 307 0 l -26 0 l 399 972 l 721 972 l 1146 0 l 807 0 l 742 169 m 651 406 l 557 650 l 463 406 l 651 406 m 1024 -333 q 863 -287 921 -333 q 804 -162 804 -242 q 865 -26 804 -86 q 1036 68 925 33 l 1146 0 q 1023 -70 1058 -39 q 988 -135 988 -101 q 1006 -176 988 -160 q 1061 -192 1025 -192 q 1143 -172 1101 -192 l 1181 -301 q 1112 -324 1156 -315 q 1024 -333 1068 -333 z "},"Å":{"ha":1119,"x_min":-26,"x_max":1146,"o":"m 742 169 l 372 169 l 307 0 l -26 0 l 399 972 l 721 972 l 1146 0 l 807 0 l 742 169 m 651 406 l 557 650 l 463 406 l 651 406 m 560 1032 q 461 1057 506 1032 q 391 1124 417 1082 q 365 1218 365 1167 q 391 1312 365 1269 q 461 1379 417 1354 q 560 1404 506 1404 q 658 1379 614 1404 q 728 1312 703 1354 q 754 1218 754 1269 q 728 1124 754 1167 q 658 1057 703 1082 q 560 1032 614 1032 m 560 1143 q 613 1164 592 1143 q 635 1218 635 1185 q 613 1272 635 1251 q 560 1293 592 1293 q 506 1272 528 1293 q 485 1218 485 1251 q 506 1164 485 1185 q 560 1143 528 1143 z "},"Ǻ":{"ha":1119,"x_min":-26,"x_max":1146,"o":"m 742 169 l 372 169 l 307 0 l -26 0 l 399 972 l 721 972 l 1146 0 l 807 0 l 742 169 m 651 406 l 557 650 l 463 406 l 651 406 m 732 1306 q 754 1218 754 1264 q 728 1124 754 1167 q 658 1057 703 1082 q 560 1032 614 1032 q 461 1057 506 1032 q 391 1124 417 1082 q 365 1218 365 1167 q 391 1312 365 1269 q 461 1379 417 1354 q 560 1404 506 1404 q 625 1394 589 1404 l 753 1529 l 904 1417 l 732 1306 m 560 1143 q 613 1164 592 1143 q 635 1218 635 1185 q 613 1272 635 1251 q 560 1293 592 1293 q 506 1272 528 1293 q 485 1218 485 1251 q 506 1164 485 1185 q 560 1143 528 1143 z "},"Ã":{"ha":1119,"x_min":-26,"x_max":1146,"o":"m 742 169 l 372 169 l 307 0 l -26 0 l 399 972 l 721 972 l 1146 0 l 807 0 l 742 169 m 651 406 l 557 650 l 463 406 l 651 406 m 672 1038 q 600 1051 632 1038 q 533 1089 568 1065 q 495 1112 510 1104 q 467 1119 481 1119 q 424 1101 440 1119 q 404 1051 407 1083 l 256 1051 q 309 1227 258 1163 q 447 1292 360 1292 q 519 1278 488 1292 q 586 1240 551 1264 q 624 1217 610 1224 q 653 1210 639 1210 q 696 1227 679 1210 q 715 1274 713 1244 l 864 1274 q 810 1102 861 1167 q 672 1038 760 1038 z "},"Æ":{"ha":1554,"x_min":-26,"x_max":1507,"o":"m 1507 247 l 1507 0 l 699 0 l 699 169 l 392 169 l 307 0 l -26 0 l 486 972 l 1489 972 l 1489 725 l 1021 725 l 1021 611 l 1432 611 l 1432 375 l 1021 375 l 1021 247 l 1507 247 m 699 406 l 699 725 l 667 725 l 508 406 l 699 406 z "},"Ǽ":{"ha":1554,"x_min":-26,"x_max":1507,"o":"m 1507 247 l 1507 0 l 699 0 l 699 169 l 392 169 l 307 0 l -26 0 l 486 972 l 1489 972 l 1489 725 l 1021 725 l 1021 611 l 1432 611 l 1432 375 l 1021 375 l 1021 247 l 1507 247 m 699 406 l 699 725 l 667 725 l 508 406 l 699 406 m 897 1274 l 1196 1274 l 922 1051 l 714 1051 l 897 1274 z "},"B":{"ha":1074,"x_min":79,"x_max":1038,"o":"m 857 508 q 990 415 943 476 q 1038 268 1038 354 q 932 70 1038 140 q 626 0 826 0 l 79 0 l 79 972 l 599 972 q 892 903 793 972 q 992 718 992 833 q 958 596 992 650 q 857 508 924 542 m 401 743 l 401 599 l 554 599 q 661 671 661 599 q 554 743 661 743 l 401 743 m 599 229 q 707 306 707 229 q 599 382 707 382 l 401 382 l 401 229 l 599 229 z "},"C":{"ha":1033,"x_min":40,"x_max":1018,"o":"m 582 -22 q 304 42 428 -22 q 110 223 181 107 q 40 486 40 339 q 110 749 40 633 q 304 930 181 865 q 582 994 428 994 q 835 944 724 994 q 1018 800 946 894 l 811 615 q 599 729 721 729 q 433 663 496 729 q 371 486 371 597 q 433 309 371 375 q 599 243 496 243 q 811 357 721 243 l 1018 172 q 835 28 946 78 q 582 -22 724 -22 z "},"Ć":{"ha":1033,"x_min":40,"x_max":1018,"o":"m 582 -22 q 304 42 428 -22 q 110 223 181 107 q 40 486 40 339 q 110 749 40 633 q 304 930 181 865 q 582 994 428 994 q 835 944 724 994 q 1018 800 946 894 l 811 615 q 599 729 721 729 q 433 663 496 729 q 371 486 371 597 q 433 309 371 375 q 599 243 496 243 q 811 357 721 243 l 1018 172 q 835 28 946 78 q 582 -22 724 -22 m 618 1275 l 917 1275 l 643 1053 l 435 1053 l 618 1275 z "},"Č":{"ha":1033,"x_min":40,"x_max":1018,"o":"m 582 -22 q 304 42 428 -22 q 110 223 181 107 q 40 486 40 339 q 110 749 40 633 q 304 930 181 865 q 582 994 428 994 q 835 944 724 994 q 1018 800 946 894 l 811 615 q 599 729 721 729 q 433 663 496 729 q 371 486 371 597 q 433 309 371 375 q 599 243 496 243 q 811 357 721 243 l 1018 172 q 835 28 946 78 q 582 -22 724 -22 m 892 1275 l 714 1053 l 447 1053 l 269 1275 l 464 1275 l 581 1168 l 697 1275 l 892 1275 z "},"Ç":{"ha":1033,"x_min":40,"x_max":1018,"o":"m 582 -22 q 304 42 428 -22 q 110 223 181 107 q 40 486 40 339 q 110 749 40 633 q 304 930 181 865 q 582 994 428 994 q 835 944 724 994 q 1018 800 946 894 l 811 615 q 599 729 721 729 q 433 663 496 729 q 371 486 371 597 q 433 309 371 375 q 599 243 496 243 q 811 357 721 243 l 1018 172 q 835 28 946 78 q 582 -22 724 -22 m 488 -333 q 413 -325 451 -333 q 351 -304 374 -317 l 390 -189 q 474 -206 432 -206 q 540 -172 540 -206 q 483 -144 540 -144 l 426 -144 l 464 14 l 625 14 l 606 -72 q 695 -112 667 -81 q 724 -183 724 -143 q 659 -293 724 -253 q 488 -333 594 -333 z "},"Ḉ":{"ha":1033,"x_min":40,"x_max":1018,"o":"m 582 -22 q 304 42 428 -22 q 110 223 181 107 q 40 486 40 339 q 110 749 40 633 q 304 930 181 865 q 582 994 428 994 q 835 944 724 994 q 1018 800 946 894 l 811 615 q 599 729 721 729 q 433 663 496 729 q 371 486 371 597 q 433 309 371 375 q 599 243 496 243 q 811 357 721 243 l 1018 172 q 835 28 946 78 q 582 -22 724 -22 m 488 -333 q 413 -325 451 -333 q 351 -304 374 -317 l 390 -189 q 474 -206 432 -206 q 540 -172 540 -206 q 483 -144 540 -144 l 426 -144 l 464 14 l 625 14 l 606 -72 q 695 -112 667 -81 q 724 -183 724 -143 q 659 -293 724 -253 q 488 -333 594 -333 m 618 1275 l 917 1275 l 643 1053 l 435 1053 l 618 1275 z "},"Ĉ":{"ha":1033,"x_min":40,"x_max":1018,"o":"m 582 -22 q 304 42 428 -22 q 110 223 181 107 q 40 486 40 339 q 110 749 40 633 q 304 930 181 865 q 582 994 428 994 q 835 944 724 994 q 1018 800 946 894 l 811 615 q 599 729 721 729 q 433 663 496 729 q 371 486 371 597 q 433 309 371 375 q 599 243 496 243 q 811 357 721 243 l 1018 172 q 835 28 946 78 q 582 -22 724 -22 m 697 1053 l 581 1160 l 464 1053 l 269 1053 l 447 1275 l 714 1275 l 892 1053 l 697 1053 z "},"Ċ":{"ha":1033,"x_min":40,"x_max":1018,"o":"m 582 -22 q 304 42 428 -22 q 110 223 181 107 q 40 486 40 339 q 110 749 40 633 q 304 930 181 865 q 582 994 428 994 q 835 944 724 994 q 1018 800 946 894 l 811 615 q 599 729 721 729 q 433 663 496 729 q 371 486 371 597 q 433 309 371 375 q 599 243 496 243 q 811 357 721 243 l 1018 172 q 835 28 946 78 q 582 -22 724 -22 m 581 1039 q 467 1083 511 1039 q 422 1197 422 1128 q 467 1311 422 1267 q 581 1356 511 1356 q 694 1311 650 1356 q 739 1197 739 1267 q 694 1083 739 1128 q 581 1039 650 1039 z "},"D":{"ha":1147,"x_min":79,"x_max":1107,"o":"m 79 972 l 558 972 q 845 913 721 972 q 1038 744 969 854 q 1107 486 1107 635 q 1038 228 1107 338 q 845 59 969 118 q 558 0 721 0 l 79 0 l 79 972 m 544 256 q 713 316 650 256 q 776 486 776 376 q 713 656 776 596 q 544 717 650 717 l 407 717 l 407 256 l 544 256 z "},"Ǆ":{"ha":2003,"x_min":79,"x_max":1992,"o":"m 79 972 l 558 972 q 845 913 721 972 q 1038 744 969 854 q 1107 486 1107 635 q 1038 228 1107 338 q 845 59 969 118 q 558 0 721 0 l 79 0 l 79 972 m 544 256 q 713 316 650 256 q 776 486 776 376 q 713 656 776 596 q 544 717 650 717 l 407 717 l 407 256 l 544 256 m 1992 254 l 1992 0 l 1099 0 l 1099 201 l 1543 718 l 1113 718 l 1113 972 l 1969 972 l 1969 771 l 1525 254 l 1992 254 m 1857 1274 l 1679 1051 l 1413 1051 l 1235 1274 l 1429 1274 l 1546 1167 l 1663 1274 l 1857 1274 z "},"Ð":{"ha":1175,"x_min":-12,"x_max":1135,"o":"m 107 972 l 586 972 q 873 913 749 972 q 1066 744 997 854 q 1135 486 1135 635 q 1066 228 1135 338 q 873 59 997 118 q 586 0 749 0 l 107 0 l 107 972 m 572 256 q 741 316 678 256 q 804 486 804 376 q 741 656 804 596 q 572 717 678 717 l 435 717 l 435 256 l 572 256 m -12 588 l 640 588 l 640 399 l -12 399 l -12 588 z "},"Ď":{"ha":1147,"x_min":79,"x_max":1107,"o":"m 79 972 l 558 972 q 845 913 721 972 q 1038 744 969 854 q 1107 486 1107 635 q 1038 228 1107 338 q 845 59 969 118 q 558 0 721 0 l 79 0 l 79 972 m 544 256 q 713 316 650 256 q 776 486 776 376 q 713 656 776 596 q 544 717 650 717 l 407 717 l 407 256 l 544 256 m 810 1274 l 632 1051 l 365 1051 l 188 1274 l 382 1274 l 499 1167 l 615 1274 l 810 1274 z "},"Đ":{"ha":1175,"x_min":-12,"x_max":1135,"o":"m 107 972 l 586 972 q 873 913 749 972 q 1066 744 997 854 q 1135 486 1135 635 q 1066 228 1135 338 q 873 59 997 118 q 586 0 749 0 l 107 0 l 107 972 m 572 256 q 741 316 678 256 q 804 486 804 376 q 741 656 804 596 q 572 717 678 717 l 435 717 l 435 256 l 572 256 m -12 588 l 640 588 l 640 399 l -12 399 l -12 588 z "},"Ḍ":{"ha":1147,"x_min":79,"x_max":1107,"o":"m 79 972 l 558 972 q 845 913 721 972 q 1038 744 969 854 q 1107 486 1107 635 q 1038 228 1107 338 q 845 59 969 118 q 558 0 721 0 l 79 0 l 79 972 m 544 256 q 713 316 650 256 q 776 486 776 376 q 713 656 776 596 q 544 717 650 717 l 407 717 l 407 256 l 544 256 m 501 -314 q 412 -281 447 -314 q 376 -193 376 -247 q 412 -104 376 -139 q 501 -69 447 -69 q 591 -104 556 -69 q 626 -193 626 -139 q 591 -281 626 -247 q 501 -314 556 -314 z "},"Ḏ":{"ha":1147,"x_min":79,"x_max":1107,"o":"m 79 972 l 558 972 q 845 913 721 972 q 1038 744 969 854 q 1107 486 1107 635 q 1038 228 1107 338 q 845 59 969 118 q 558 0 721 0 l 79 0 l 79 972 m 544 256 q 713 316 650 256 q 776 486 776 376 q 713 656 776 596 q 544 717 650 717 l 407 717 l 407 256 l 544 256 m 210 -103 l 793 -103 l 793 -267 l 210 -267 l 210 -103 z "},"ǅ":{"ha":1939,"x_min":79,"x_max":1914,"o":"m 79 972 l 558 972 q 845 913 721 972 q 1038 744 969 854 q 1107 486 1107 635 q 1038 228 1107 338 q 845 59 969 118 q 558 0 721 0 l 79 0 l 79 972 m 544 256 q 713 316 650 256 q 776 486 776 376 q 713 656 776 596 q 544 717 650 717 l 407 717 l 407 256 l 544 256 m 1914 229 l 1914 0 l 1189 0 l 1189 181 l 1503 531 l 1200 531 l 1200 760 l 1899 760 l 1899 579 l 1585 229 l 1914 229 m 1861 1065 l 1683 843 l 1417 843 l 1239 1065 l 1433 1065 l 1550 958 l 1667 1065 l 1861 1065 z "},"E":{"ha":935,"x_min":79,"x_max":888,"o":"m 888 247 l 888 0 l 79 0 l 79 972 l 869 972 l 869 725 l 401 725 l 401 611 l 813 611 l 813 375 l 401 375 l 401 247 l 888 247 z "},"É":{"ha":935,"x_min":79,"x_max":888,"o":"m 888 247 l 888 0 l 79 0 l 79 972 l 869 972 l 869 725 l 401 725 l 401 611 l 813 611 l 813 375 l 401 375 l 401 247 l 888 247 m 513 1274 l 811 1274 l 538 1051 l 329 1051 l 513 1274 z "},"Ĕ":{"ha":935,"x_min":79,"x_max":888,"o":"m 888 247 l 888 0 l 79 0 l 79 972 l 869 972 l 869 725 l 401 725 l 401 611 l 813 611 l 813 375 l 401 375 l 401 247 l 888 247 m 475 1038 q 269 1101 349 1038 q 185 1274 190 1165 l 372 1274 q 403 1212 375 1235 q 475 1189 432 1189 q 547 1212 518 1189 q 578 1274 575 1235 l 765 1274 q 681 1101 760 1165 q 475 1038 601 1038 z "},"Ě":{"ha":935,"x_min":79,"x_max":888,"o":"m 888 247 l 888 0 l 79 0 l 79 972 l 869 972 l 869 725 l 401 725 l 401 611 l 813 611 l 813 375 l 401 375 l 401 247 l 888 247 m 786 1274 l 608 1051 l 342 1051 l 164 1274 l 358 1274 l 475 1167 l 592 1274 l 786 1274 z "},"Ḝ":{"ha":935,"x_min":79,"x_max":888,"o":"m 888 247 l 888 0 l 79 0 l 79 972 l 869 972 l 869 725 l 401 725 l 401 611 l 813 611 l 813 375 l 401 375 l 401 247 l 888 247 m 418 -333 q 343 -325 382 -333 q 282 -304 304 -317 l 321 -189 q 404 -206 363 -206 q 471 -172 471 -206 q 414 -144 471 -144 l 357 -144 l 394 14 l 556 14 l 536 -72 q 626 -112 597 -81 q 654 -183 654 -143 q 590 -293 654 -253 q 418 -333 525 -333 m 475 1038 q 269 1101 349 1038 q 185 1274 190 1165 l 372 1274 q 403 1212 375 1235 q 475 1189 432 1189 q 547 1212 518 1189 q 578 1274 575 1235 l 765 1274 q 681 1101 760 1165 q 475 1038 601 1038 z "},"Ê":{"ha":935,"x_min":79,"x_max":888,"o":"m 888 247 l 888 0 l 79 0 l 79 972 l 869 972 l 869 725 l 401 725 l 401 611 l 813 611 l 813 375 l 401 375 l 401 247 l 888 247 m 592 1051 l 475 1158 l 358 1051 l 164 1051 l 342 1274 l 608 1274 l 786 1051 l 592 1051 z "},"Ế":{"ha":935,"x_min":79,"x_max":1117,"o":"m 888 247 l 888 0 l 79 0 l 79 972 l 869 972 l 869 725 l 401 725 l 401 611 l 813 611 l 813 375 l 401 375 l 401 247 l 888 247 m 592 1051 l 475 1136 l 358 1051 l 164 1051 l 343 1232 l 607 1232 l 786 1051 l 592 1051 m 818 1378 l 1117 1378 l 885 1197 l 676 1197 l 818 1378 z "},"Ệ":{"ha":935,"x_min":79,"x_max":888,"o":"m 888 247 l 888 0 l 79 0 l 79 972 l 869 972 l 869 725 l 401 725 l 401 611 l 813 611 l 813 375 l 401 375 l 401 247 l 888 247 m 475 -314 q 385 -281 421 -314 q 350 -193 350 -247 q 385 -104 350 -139 q 475 -69 421 -69 q 565 -104 529 -69 q 600 -193 600 -139 q 565 -281 600 -247 q 475 -314 529 -314 m 592 1051 l 475 1158 l 358 1051 l 164 1051 l 342 1274 l 608 1274 l 786 1051 l 592 1051 z "},"Ề":{"ha":935,"x_min":79,"x_max":968,"o":"m 888 247 l 888 0 l 79 0 l 79 972 l 869 972 l 869 725 l 401 725 l 401 611 l 813 611 l 813 375 l 401 375 l 401 247 l 888 247 m 592 1051 l 475 1136 l 358 1051 l 164 1051 l 343 1232 l 607 1232 l 786 1051 l 592 1051 m 528 1378 l 826 1378 l 968 1197 l 760 1197 l 528 1378 z "},"Ể":{"ha":935,"x_min":79,"x_max":888,"o":"m 888 247 l 888 0 l 79 0 l 79 972 l 869 972 l 869 725 l 401 725 l 401 611 l 813 611 l 813 375 l 401 375 l 401 247 l 888 247 m 592 1051 l 475 1136 l 358 1051 l 164 1051 l 343 1232 l 607 1232 l 786 1051 l 592 1051 m 701 1232 q 749 1283 749 1257 q 738 1308 749 1299 q 708 1318 726 1318 q 644 1301 678 1318 l 597 1386 q 735 1421 653 1421 q 843 1388 803 1421 q 883 1299 883 1356 q 852 1222 883 1256 q 774 1169 821 1188 l 701 1232 z "},"Ễ":{"ha":935,"x_min":79,"x_max":888,"o":"m 888 247 l 888 0 l 79 0 l 79 972 l 869 972 l 869 725 l 401 725 l 401 611 l 813 611 l 813 375 l 401 375 l 401 247 l 888 247 m 592 1051 l 475 1136 l 358 1051 l 164 1051 l 343 1232 l 607 1232 l 786 1051 l 592 1051 m 581 1281 q 508 1293 540 1281 q 442 1328 476 1306 q 413 1344 426 1338 q 389 1350 399 1350 q 349 1334 365 1350 q 331 1293 333 1318 l 178 1293 q 228 1446 178 1392 q 369 1500 279 1500 q 441 1488 410 1500 q 508 1454 472 1475 q 539 1438 524 1444 q 564 1431 554 1431 q 605 1447 589 1431 q 624 1488 621 1464 l 772 1488 q 723 1335 772 1390 q 581 1281 674 1281 z "},"Ȅ":{"ha":935,"x_min":74,"x_max":888,"o":"m 888 247 l 888 0 l 79 0 l 79 972 l 869 972 l 869 725 l 401 725 l 401 611 l 813 611 l 813 375 l 401 375 l 401 247 l 888 247 m 74 1274 l 344 1274 l 417 1051 l 208 1051 l 74 1274 m 399 1274 l 669 1274 l 742 1051 l 533 1051 l 399 1274 z "},"Ë":{"ha":935,"x_min":79,"x_max":888,"o":"m 888 247 l 888 0 l 79 0 l 79 972 l 869 972 l 869 725 l 401 725 l 401 611 l 813 611 l 813 375 l 401 375 l 401 247 l 888 247 m 321 1040 q 231 1074 267 1040 q 196 1163 196 1108 q 231 1251 196 1217 q 321 1286 267 1286 q 410 1251 375 1286 q 446 1163 446 1217 q 410 1074 446 1108 q 321 1040 375 1040 m 629 1040 q 540 1074 575 1040 q 504 1163 504 1108 q 540 1251 504 1217 q 629 1286 575 1286 q 719 1251 683 1286 q 754 1163 754 1217 q 719 1074 754 1108 q 629 1040 683 1040 z "},"Ė":{"ha":935,"x_min":79,"x_max":888,"o":"m 888 247 l 888 0 l 79 0 l 79 972 l 869 972 l 869 725 l 401 725 l 401 611 l 813 611 l 813 375 l 401 375 l 401 247 l 888 247 m 475 1038 q 361 1082 406 1038 q 317 1196 317 1126 q 361 1310 317 1265 q 475 1354 406 1354 q 589 1310 544 1354 q 633 1196 633 1265 q 589 1082 633 1126 q 475 1038 544 1038 z "},"Ẹ":{"ha":935,"x_min":79,"x_max":888,"o":"m 888 247 l 888 0 l 79 0 l 79 972 l 869 972 l 869 725 l 401 725 l 401 611 l 813 611 l 813 375 l 401 375 l 401 247 l 888 247 m 475 -314 q 385 -281 421 -314 q 350 -193 350 -247 q 385 -104 350 -139 q 475 -69 421 -69 q 565 -104 529 -69 q 600 -193 600 -139 q 565 -281 600 -247 q 475 -314 529 -314 z "},"È":{"ha":935,"x_min":79,"x_max":888,"o":"m 888 247 l 888 0 l 79 0 l 79 972 l 869 972 l 869 725 l 401 725 l 401 611 l 813 611 l 813 375 l 401 375 l 401 247 l 888 247 m 139 1274 l 438 1274 l 621 1051 l 413 1051 l 139 1274 z "},"Ẻ":{"ha":935,"x_min":79,"x_max":888,"o":"m 888 247 l 888 0 l 79 0 l 79 972 l 869 972 l 869 725 l 401 725 l 401 611 l 813 611 l 813 375 l 401 375 l 401 247 l 888 247 m 440 1128 q 490 1163 476 1144 q 504 1203 504 1182 q 488 1242 504 1228 q 446 1256 472 1256 q 367 1228 407 1256 l 303 1344 q 482 1400 375 1400 q 624 1353 569 1400 q 678 1229 678 1306 q 642 1116 678 1163 q 535 1038 606 1069 l 440 1128 z "},"Ȇ":{"ha":935,"x_min":79,"x_max":888,"o":"m 888 247 l 888 0 l 79 0 l 79 972 l 869 972 l 869 725 l 401 725 l 401 611 l 813 611 l 813 375 l 401 375 l 401 247 l 888 247 m 185 1051 q 269 1224 190 1160 q 475 1288 349 1288 q 681 1224 601 1288 q 765 1051 760 1160 l 578 1051 q 547 1113 575 1090 q 475 1136 518 1136 q 403 1113 432 1136 q 372 1051 375 1090 l 185 1051 z "},"Ē":{"ha":935,"x_min":79,"x_max":888,"o":"m 888 247 l 888 0 l 79 0 l 79 972 l 869 972 l 869 725 l 401 725 l 401 611 l 813 611 l 813 375 l 401 375 l 401 247 l 888 247 m 183 1244 l 767 1244 l 767 1081 l 183 1081 l 183 1244 z "},"Ḗ":{"ha":935,"x_min":79,"x_max":888,"o":"m 888 247 l 888 0 l 79 0 l 79 972 l 869 972 l 869 725 l 401 725 l 401 611 l 813 611 l 813 375 l 401 375 l 401 247 l 888 247 m 183 1219 l 767 1219 l 767 1064 l 183 1064 l 183 1219 m 471 1486 l 769 1486 l 538 1306 l 329 1306 l 471 1486 z "},"Ḕ":{"ha":935,"x_min":79,"x_max":888,"o":"m 888 247 l 888 0 l 79 0 l 79 972 l 869 972 l 869 725 l 401 725 l 401 611 l 813 611 l 813 375 l 401 375 l 401 247 l 888 247 m 183 1219 l 767 1219 l 767 1064 l 183 1064 l 183 1219 m 181 1486 l 479 1486 l 621 1306 l 413 1306 l 181 1486 z "},"Ę":{"ha":935,"x_min":79,"x_max":922,"o":"m 888 247 l 888 0 l 79 0 l 79 972 l 869 972 l 869 725 l 401 725 l 401 611 l 813 611 l 813 375 l 401 375 l 401 247 l 888 247 m 765 -333 q 604 -287 663 -333 q 546 -162 546 -242 q 606 -26 546 -86 q 778 68 667 33 l 888 0 q 765 -70 800 -39 q 729 -135 729 -101 q 748 -176 729 -160 q 803 -192 767 -192 q 885 -172 843 -192 l 922 -301 q 853 -324 897 -315 q 765 -333 810 -333 z "},"Ẽ":{"ha":935,"x_min":79,"x_max":888,"o":"m 888 247 l 888 0 l 79 0 l 79 972 l 869 972 l 869 725 l 401 725 l 401 611 l 813 611 l 813 375 l 401 375 l 401 247 l 888 247 m 588 1038 q 515 1051 547 1038 q 449 1089 483 1065 q 410 1112 425 1104 q 382 1119 396 1119 q 339 1101 356 1119 q 319 1051 322 1083 l 171 1051 q 224 1227 174 1163 q 363 1292 275 1292 q 435 1278 403 1292 q 501 1240 467 1264 q 540 1217 525 1224 q 568 1210 554 1210 q 611 1227 594 1210 q 631 1274 628 1244 l 779 1274 q 726 1102 776 1167 q 588 1038 675 1038 z "},"Ʒ":{"ha":908,"x_min":22,"x_max":878,"o":"m 633 589 q 815 487 751 560 q 878 313 878 414 q 828 147 878 224 q 675 24 779 71 q 417 -22 571 -22 q 205 0 311 -22 q 22 65 99 22 l 128 307 q 264 254 190 272 q 406 236 338 236 q 509 256 471 236 q 547 311 547 275 q 418 378 547 378 l 288 378 l 288 579 l 439 725 l 68 725 l 68 972 l 822 972 l 822 771 l 633 589 z "},"Ǯ":{"ha":908,"x_min":22,"x_max":878,"o":"m 633 589 q 815 487 751 560 q 878 313 878 414 q 828 147 878 224 q 675 24 779 71 q 417 -22 571 -22 q 205 0 311 -22 q 22 65 99 22 l 128 307 q 264 254 190 272 q 406 236 338 236 q 509 256 471 236 q 547 311 547 275 q 418 378 547 378 l 288 378 l 288 579 l 439 725 l 68 725 l 68 972 l 822 972 l 822 771 l 633 589 m 751 1274 l 574 1051 l 307 1051 l 129 1274 l 324 1274 l 440 1167 l 557 1274 l 751 1274 z "},"F":{"ha":894,"x_min":79,"x_max":869,"o":"m 407 725 l 407 558 l 813 558 l 813 311 l 407 311 l 407 0 l 79 0 l 79 972 l 869 972 l 869 725 l 407 725 z "},"G":{"ha":1068,"x_min":40,"x_max":1035,"o":"m 722 513 l 1007 513 l 1007 101 q 807 10 921 42 q 583 -22 693 -22 q 304 42 428 -22 q 110 223 181 107 q 40 486 40 339 q 110 749 40 633 q 306 930 181 865 q 590 994 432 994 q 847 947 733 994 q 1035 807 960 899 l 825 622 q 607 729 733 729 q 435 664 499 729 q 371 486 371 599 q 434 310 371 376 q 603 243 497 243 q 722 267 665 243 l 722 513 z "},"Ğ":{"ha":1068,"x_min":40,"x_max":1035,"o":"m 722 513 l 1007 513 l 1007 101 q 807 10 921 42 q 583 -22 693 -22 q 304 42 428 -22 q 110 223 181 107 q 40 486 40 339 q 110 749 40 633 q 306 930 181 865 q 590 994 432 994 q 847 947 733 994 q 1035 807 960 899 l 825 622 q 607 729 733 729 q 435 664 499 729 q 371 486 371 599 q 434 310 371 376 q 603 243 497 243 q 722 267 665 243 l 722 513 m 589 1039 q 383 1103 463 1039 q 299 1275 304 1167 l 486 1275 q 517 1213 489 1236 q 589 1190 546 1190 q 660 1213 632 1190 q 692 1275 689 1236 l 879 1275 q 794 1103 874 1167 q 589 1039 715 1039 z "},"Ǧ":{"ha":1068,"x_min":40,"x_max":1035,"o":"m 722 513 l 1007 513 l 1007 101 q 807 10 921 42 q 583 -22 693 -22 q 304 42 428 -22 q 110 223 181 107 q 40 486 40 339 q 110 749 40 633 q 306 930 181 865 q 590 994 432 994 q 847 947 733 994 q 1035 807 960 899 l 825 622 q 607 729 733 729 q 435 664 499 729 q 371 486 371 599 q 434 310 371 376 q 603 243 497 243 q 722 267 665 243 l 722 513 m 900 1275 l 722 1053 l 456 1053 l 278 1275 l 472 1275 l 589 1168 l 706 1275 l 900 1275 z "},"Ĝ":{"ha":1068,"x_min":40,"x_max":1035,"o":"m 722 513 l 1007 513 l 1007 101 q 807 10 921 42 q 583 -22 693 -22 q 304 42 428 -22 q 110 223 181 107 q 40 486 40 339 q 110 749 40 633 q 306 930 181 865 q 590 994 432 994 q 847 947 733 994 q 1035 807 960 899 l 825 622 q 607 729 733 729 q 435 664 499 729 q 371 486 371 599 q 434 310 371 376 q 603 243 497 243 q 722 267 665 243 l 722 513 m 706 1053 l 589 1160 l 472 1053 l 278 1053 l 456 1275 l 722 1275 l 900 1053 l 706 1053 z "},"Ģ":{"ha":1068,"x_min":40,"x_max":1035,"o":"m 722 513 l 1007 513 l 1007 101 q 807 10 921 42 q 583 -22 693 -22 q 304 42 428 -22 q 110 223 181 107 q 40 486 40 339 q 110 749 40 633 q 306 930 181 865 q 590 994 432 994 q 847 947 733 994 q 1035 807 960 899 l 825 622 q 607 729 733 729 q 435 664 499 729 q 371 486 371 599 q 434 310 371 376 q 603 243 497 243 q 722 267 665 243 l 722 513 m 569 -69 q 661 -98 628 -69 q 694 -174 694 -126 q 660 -285 694 -225 l 606 -375 l 468 -375 l 504 -265 q 444 -174 444 -243 q 478 -98 444 -126 q 569 -69 511 -69 z "},"Ġ":{"ha":1068,"x_min":40,"x_max":1035,"o":"m 722 513 l 1007 513 l 1007 101 q 807 10 921 42 q 583 -22 693 -22 q 304 42 428 -22 q 110 223 181 107 q 40 486 40 339 q 110 749 40 633 q 306 930 181 865 q 590 994 432 994 q 847 947 733 994 q 1035 807 960 899 l 825 622 q 607 729 733 729 q 435 664 499 729 q 371 486 371 599 q 434 310 371 376 q 603 243 497 243 q 722 267 665 243 l 722 513 m 589 1039 q 475 1083 519 1039 q 431 1197 431 1128 q 475 1311 431 1267 q 589 1356 519 1356 q 703 1311 658 1356 q 747 1197 747 1267 q 703 1083 747 1128 q 589 1039 658 1039 z "},"Ḡ":{"ha":1068,"x_min":40,"x_max":1035,"o":"m 722 513 l 1007 513 l 1007 101 q 807 10 921 42 q 583 -22 693 -22 q 304 42 428 -22 q 110 223 181 107 q 40 486 40 339 q 110 749 40 633 q 306 930 181 865 q 590 994 432 994 q 847 947 733 994 q 1035 807 960 899 l 825 622 q 607 729 733 729 q 435 664 499 729 q 371 486 371 599 q 434 310 371 376 q 603 243 497 243 q 722 267 665 243 l 722 513 m 297 1246 l 881 1246 l 881 1082 l 297 1082 l 297 1246 z "},"Ǥ":{"ha":1133,"x_min":40,"x_max":1114,"o":"m 722 513 l 1007 513 l 1007 101 q 807 10 921 42 q 583 -22 693 -22 q 304 42 428 -22 q 110 223 181 107 q 40 486 40 339 q 110 749 40 633 q 306 930 181 865 q 590 994 432 994 q 847 947 733 994 q 1035 807 960 899 l 825 622 q 607 729 733 729 q 435 664 499 729 q 371 486 371 599 q 434 310 371 376 q 603 243 497 243 q 722 267 665 243 l 722 513 m 539 470 l 1114 470 l 1114 285 l 539 285 l 539 470 z "},"H":{"ha":1117,"x_min":79,"x_max":1038,"o":"m 1038 972 l 1038 0 l 710 0 l 710 358 l 407 358 l 407 0 l 79 0 l 79 972 l 407 972 l 407 628 l 710 628 l 710 972 l 1038 972 z "},"Ħ":{"ha":1172,"x_min":-12,"x_max":1185,"o":"m 1065 972 l 1065 0 l 738 0 l 738 358 l 435 358 l 435 0 l 107 0 l 107 972 l 435 972 l 435 628 l 738 628 l 738 972 l 1065 972 m -12 893 l 1185 893 l 1185 704 l -12 704 l -12 893 z "},"Ḫ":{"ha":1117,"x_min":79,"x_max":1038,"o":"m 1038 972 l 1038 0 l 710 0 l 710 358 l 407 358 l 407 0 l 79 0 l 79 972 l 407 972 l 407 628 l 710 628 l 710 972 l 1038 972 m 558 -312 q 354 -252 433 -312 q 268 -93 275 -192 l 444 -93 q 480 -151 449 -129 q 558 -172 511 -172 q 637 -151 606 -172 q 672 -93 668 -129 l 849 -93 q 763 -252 842 -192 q 558 -312 683 -312 z "},"Ȟ":{"ha":1117,"x_min":79,"x_max":1038,"o":"m 1038 972 l 1038 0 l 710 0 l 710 358 l 407 358 l 407 0 l 79 0 l 79 972 l 407 972 l 407 628 l 710 628 l 710 972 l 1038 972 m 869 1274 l 692 1051 l 425 1051 l 247 1274 l 442 1274 l 558 1167 l 675 1274 l 869 1274 z "},"Ĥ":{"ha":1117,"x_min":79,"x_max":1038,"o":"m 1038 972 l 1038 0 l 710 0 l 710 358 l 407 358 l 407 0 l 79 0 l 79 972 l 407 972 l 407 628 l 710 628 l 710 972 l 1038 972 m 675 1051 l 558 1158 l 442 1051 l 247 1051 l 425 1274 l 692 1274 l 869 1051 l 675 1051 z "},"Ḥ":{"ha":1117,"x_min":79,"x_max":1038,"o":"m 1038 972 l 1038 0 l 710 0 l 710 358 l 407 358 l 407 0 l 79 0 l 79 972 l 407 972 l 407 628 l 710 628 l 710 972 l 1038 972 m 558 -314 q 469 -281 504 -314 q 433 -193 433 -247 q 469 -104 433 -139 q 558 -69 504 -69 q 648 -104 613 -69 q 683 -193 683 -139 q 648 -281 683 -247 q 558 -314 613 -314 z "},"I":{"ha":486,"x_min":79,"x_max":407,"o":"m 79 972 l 407 972 l 407 0 l 79 0 l 79 972 z "},"Ĳ":{"ha":1013,"x_min":43,"x_max":942,"o":"m 456 -22 q 227 9 333 -22 q 43 96 121 40 l 163 328 q 303 262 229 285 q 440 239 378 239 q 572 285 531 239 q 614 433 614 332 l 614 972 l 942 972 l 942 451 q 881 194 942 301 q 711 33 821 88 q 456 -22 601 -22 m 71 972 l 399 972 l 399 467 l 71 467 l 71 972 z "},"Í":{"ha":486,"x_min":79,"x_max":579,"o":"m 79 972 l 407 972 l 407 0 l 79 0 l 79 972 m 281 1274 l 579 1274 l 306 1051 l 97 1051 l 281 1274 z "},"Ĭ":{"ha":486,"x_min":-47,"x_max":533,"o":"m 79 972 l 407 972 l 407 0 l 79 0 l 79 972 m 243 1038 q 38 1101 117 1038 q -47 1274 -42 1165 l 140 1274 q 172 1212 143 1235 q 243 1189 200 1189 q 315 1212 286 1189 q 346 1274 343 1235 l 533 1274 q 449 1101 528 1165 q 243 1038 369 1038 z "},"Î":{"ha":486,"x_min":-68,"x_max":554,"o":"m 79 972 l 407 972 l 407 0 l 79 0 l 79 972 m 360 1051 l 243 1158 l 126 1051 l -68 1051 l 110 1274 l 376 1274 l 554 1051 l 360 1051 z "},"Ȉ":{"ha":486,"x_min":-158,"x_max":510,"o":"m 79 972 l 407 972 l 407 0 l 79 0 l 79 972 m -158 1274 l 113 1274 l 185 1051 l -24 1051 l -158 1274 m 167 1274 l 438 1274 l 510 1051 l 301 1051 l 167 1274 z "},"Ï":{"ha":486,"x_min":-36,"x_max":522,"o":"m 79 972 l 407 972 l 407 0 l 79 0 l 79 972 m 89 1040 q -1 1074 35 1040 q -36 1163 -36 1108 q -1 1251 -36 1217 q 89 1286 35 1286 q 178 1251 143 1286 q 214 1163 214 1217 q 178 1074 214 1108 q 89 1040 143 1040 m 397 1040 q 308 1074 343 1040 q 272 1163 272 1108 q 308 1251 272 1217 q 397 1286 343 1286 q 487 1251 451 1286 q 522 1163 522 1217 q 487 1074 522 1108 q 397 1040 451 1040 z "},"Ḯ":{"ha":486,"x_min":-22,"x_max":538,"o":"m 79 972 l 407 972 l 407 0 l 79 0 l 79 972 m 96 1039 q 11 1071 44 1039 q -22 1154 -22 1103 q 12 1238 -22 1206 q 96 1271 46 1271 q 180 1238 146 1271 q 214 1154 214 1206 q 181 1071 214 1103 q 96 1039 147 1039 m 390 1039 q 306 1071 339 1039 q 272 1154 272 1103 q 306 1238 272 1206 q 390 1271 340 1271 q 474 1238 440 1271 q 508 1154 508 1206 q 475 1071 508 1103 q 390 1039 442 1039 m 239 1485 l 538 1485 l 306 1304 l 97 1304 l 239 1485 z "},"İ":{"ha":486,"x_min":79,"x_max":407,"o":"m 79 972 l 407 972 l 407 0 l 79 0 l 79 972 m 243 1038 q 129 1082 174 1038 q 85 1196 85 1126 q 129 1310 85 1265 q 243 1354 174 1354 q 357 1310 313 1354 q 401 1196 401 1265 q 357 1082 401 1126 q 243 1038 313 1038 z "},"Ị":{"ha":486,"x_min":79,"x_max":407,"o":"m 79 972 l 407 972 l 407 0 l 79 0 l 79 972 m 243 -314 q 153 -281 189 -314 q 118 -193 118 -247 q 153 -104 118 -139 q 243 -69 189 -69 q 333 -104 297 -69 q 368 -193 368 -139 q 333 -281 368 -247 q 243 -314 297 -314 z "},"Ì":{"ha":486,"x_min":-93,"x_max":407,"o":"m 79 972 l 407 972 l 407 0 l 79 0 l 79 972 m -93 1274 l 206 1274 l 389 1051 l 181 1051 l -93 1274 z "},"Ỉ":{"ha":486,"x_min":71,"x_max":446,"o":"m 79 972 l 407 972 l 407 0 l 79 0 l 79 972 m 208 1128 q 258 1163 244 1144 q 272 1203 272 1182 q 256 1242 272 1228 q 214 1256 240 1256 q 135 1228 175 1256 l 71 1344 q 250 1400 143 1400 q 392 1353 338 1400 q 446 1229 446 1306 q 410 1116 446 1163 q 303 1038 374 1069 l 208 1128 z "},"Ȋ":{"ha":486,"x_min":-47,"x_max":533,"o":"m 79 972 l 407 972 l 407 0 l 79 0 l 79 972 m -47 1051 q 38 1224 -42 1160 q 243 1288 117 1288 q 449 1224 369 1288 q 533 1051 528 1160 l 346 1051 q 315 1113 343 1090 q 243 1136 286 1136 q 172 1113 200 1136 q 140 1051 143 1090 l -47 1051 z "},"Ī":{"ha":486,"x_min":7,"x_max":479,"o":"m 79 972 l 407 972 l 407 0 l 79 0 l 79 972 m 7 1243 l 479 1243 l 479 1079 l 7 1079 l 7 1243 z "},"Į":{"ha":486,"x_min":79,"x_max":442,"o":"m 79 972 l 407 972 l 407 0 l 79 0 l 79 972 m 324 -333 q 178 -286 233 -333 q 124 -160 124 -239 q 176 -22 124 -83 q 324 71 229 39 l 407 0 q 331 -65 353 -35 q 308 -132 308 -96 q 324 -175 308 -158 q 361 -192 339 -192 q 406 -176 386 -192 l 442 -301 q 324 -333 393 -333 z "},"Ĩ":{"ha":486,"x_min":-61,"x_max":547,"o":"m 79 972 l 407 972 l 407 0 l 79 0 l 79 972 m 356 1038 q 283 1051 315 1038 q 217 1089 251 1065 q 178 1112 193 1104 q 150 1119 164 1119 q 107 1101 124 1119 q 88 1051 90 1083 l -61 1051 q -8 1227 -58 1163 q 131 1292 43 1292 q 203 1278 171 1292 q 269 1240 235 1264 q 308 1217 293 1224 q 336 1210 322 1210 q 379 1227 363 1210 q 399 1274 396 1244 l 547 1274 q 494 1102 544 1167 q 356 1038 443 1038 z "},"J":{"ha":797,"x_min":-33,"x_max":726,"o":"m 325 -22 q 119 15 211 -22 q -33 122 26 51 l 143 331 q 219 258 182 282 q 297 235 257 235 q 376 265 349 235 q 403 356 403 296 l 403 725 l 72 725 l 72 972 l 726 972 l 726 375 q 624 77 726 176 q 325 -22 522 -22 z "},"Ĵ":{"ha":797,"x_min":-33,"x_max":726,"o":"m 325 -22 q 119 15 211 -22 q -33 122 26 51 l 143 331 q 219 258 182 282 q 297 235 257 235 q 376 265 349 235 q 403 356 403 296 l 403 725 l 72 725 l 72 972 l 726 972 l 726 375 q 624 77 726 176 q 325 -22 522 -22 m 517 1051 l 400 1158 l 283 1051 l 89 1051 l 267 1274 l 533 1274 l 711 1051 l 517 1051 z "},"K":{"ha":1063,"x_min":79,"x_max":1097,"o":"m 475 322 l 401 240 l 401 0 l 79 0 l 79 972 l 401 972 l 401 619 l 721 972 l 1078 972 l 689 544 l 1097 0 l 718 0 l 475 322 z "},"Ǩ":{"ha":1063,"x_min":79,"x_max":1097,"o":"m 475 322 l 401 240 l 401 0 l 79 0 l 79 972 l 401 972 l 401 619 l 721 972 l 1078 972 l 689 544 l 1097 0 l 718 0 l 475 322 m 844 1274 l 667 1051 l 400 1051 l 222 1274 l 417 1274 l 533 1167 l 650 1274 l 844 1274 z "},"Ķ":{"ha":1063,"x_min":79,"x_max":1097,"o":"m 475 322 l 401 240 l 401 0 l 79 0 l 79 972 l 401 972 l 401 619 l 721 972 l 1078 972 l 689 544 l 1097 0 l 718 0 l 475 322 m 533 -69 q 625 -98 592 -69 q 658 -174 658 -126 q 624 -285 658 -225 l 569 -375 l 432 -375 l 468 -265 q 408 -174 408 -243 q 442 -98 408 -126 q 533 -69 475 -69 z "},"L":{"ha":857,"x_min":79,"x_max":846,"o":"m 79 972 l 407 972 l 407 254 l 846 254 l 846 0 l 79 0 l 79 972 z "},"Ǉ":{"ha":1654,"x_min":79,"x_max":1583,"o":"m 79 972 l 407 972 l 407 254 l 846 254 l 846 0 l 79 0 l 79 972 m 1182 -22 q 976 15 1068 -22 q 824 122 883 51 l 1000 331 q 1076 258 1039 282 q 1154 235 1114 235 q 1233 265 1206 235 q 1260 356 1260 296 l 1260 725 l 929 725 l 929 972 l 1583 972 l 1583 375 q 1481 77 1583 176 q 1182 -22 1379 -22 z "},"Ĺ":{"ha":857,"x_min":79,"x_max":846,"o":"m 79 972 l 407 972 l 407 254 l 846 254 l 846 0 l 79 0 l 79 972 m 281 1274 l 579 1274 l 306 1051 l 97 1051 l 281 1274 z "},"Ľ":{"ha":857,"x_min":79,"x_max":846,"o":"m 79 972 l 407 972 l 407 254 l 846 254 l 846 0 l 79 0 l 79 972 m 588 1042 l 807 1042 l 765 750 l 588 750 l 588 1042 z "},"Ļ":{"ha":857,"x_min":79,"x_max":846,"o":"m 79 972 l 407 972 l 407 254 l 846 254 l 846 0 l 79 0 l 79 972 m 479 -69 q 571 -98 538 -69 q 604 -174 604 -126 q 569 -285 604 -225 l 515 -375 l 378 -375 l 414 -265 q 354 -174 354 -243 q 388 -98 354 -126 q 479 -69 421 -69 z "},"Ŀ":{"ha":857,"x_min":79,"x_max":846,"o":"m 79 972 l 407 972 l 407 254 l 846 254 l 846 0 l 79 0 l 79 972 m 672 454 q 558 499 603 454 q 514 613 514 543 q 558 726 514 682 q 672 771 603 771 q 786 726 742 771 q 831 613 831 682 q 786 499 831 543 q 672 454 742 454 z "},"Ḷ":{"ha":857,"x_min":79,"x_max":846,"o":"m 79 972 l 407 972 l 407 254 l 846 254 l 846 0 l 79 0 l 79 972 m 479 -314 q 390 -281 425 -314 q 354 -193 354 -247 q 390 -104 354 -139 q 479 -69 425 -69 q 569 -104 533 -69 q 604 -193 604 -139 q 569 -281 604 -247 q 479 -314 533 -314 z "},"ǈ":{"ha":1321,"x_min":79,"x_max":1283,"o":"m 79 972 l 407 972 l 407 254 l 846 254 l 846 0 l 79 0 l 79 972 m 919 -283 q 726 -246 799 -283 l 801 -28 q 872 -46 835 -46 q 919 -24 901 -46 q 938 42 938 -3 l 938 760 l 1251 760 l 1251 39 q 1163 -197 1251 -110 q 919 -283 1075 -283 m 1094 821 q 958 866 1010 821 q 906 981 906 911 q 958 1095 906 1050 q 1094 1140 1010 1140 q 1232 1097 1181 1140 q 1283 986 1283 1054 q 1232 867 1283 914 q 1094 821 1181 821 z "},"Ḻ":{"ha":857,"x_min":79,"x_max":846,"o":"m 79 972 l 407 972 l 407 254 l 846 254 l 846 0 l 79 0 l 79 972 m 188 -103 l 771 -103 l 771 -267 l 188 -267 l 188 -103 z "},"Ł":{"ha":885,"x_min":-50,"x_max":874,"o":"m 107 972 l 435 972 l 435 254 l 874 254 l 874 0 l 107 0 l 107 972 m -50 422 l 568 881 l 665 742 l 47 283 l -50 422 z "},"M":{"ha":1325,"x_min":79,"x_max":1246,"o":"m 947 0 l 944 443 l 733 88 l 589 88 l 378 428 l 378 0 l 79 0 l 79 972 l 349 972 l 665 454 l 974 972 l 1243 972 l 1246 0 l 947 0 z "},"Ṃ":{"ha":1325,"x_min":79,"x_max":1246,"o":"m 947 0 l 944 443 l 733 88 l 589 88 l 378 428 l 378 0 l 79 0 l 79 972 l 349 972 l 665 454 l 974 972 l 1243 972 l 1246 0 l 947 0 m 661 -314 q 572 -281 607 -314 q 536 -193 536 -247 q 572 -104 536 -139 q 661 -69 607 -69 q 751 -104 715 -69 q 786 -193 786 -139 q 751 -281 786 -247 q 661 -314 715 -314 z "},"N":{"ha":1117,"x_min":79,"x_max":1038,"o":"m 1038 972 l 1038 0 l 768 0 l 399 442 l 399 0 l 79 0 l 79 972 l 349 972 l 718 531 l 718 972 l 1038 972 z "},"Ǌ":{"ha":1914,"x_min":79,"x_max":1843,"o":"m 1038 972 l 1038 0 l 768 0 l 399 442 l 399 0 l 79 0 l 79 972 l 349 972 l 718 531 l 718 972 l 1038 972 m 1442 -22 q 1235 15 1328 -22 q 1083 122 1143 51 l 1260 331 q 1336 258 1299 282 q 1414 235 1374 235 q 1492 265 1465 235 q 1519 356 1519 296 l 1519 725 l 1189 725 l 1189 972 l 1843 972 l 1843 375 q 1741 77 1843 176 q 1442 -22 1639 -22 z "},"Ń":{"ha":1117,"x_min":79,"x_max":1038,"o":"m 1038 972 l 1038 0 l 768 0 l 399 442 l 399 0 l 79 0 l 79 972 l 349 972 l 718 531 l 718 972 l 1038 972 m 596 1274 l 894 1274 l 621 1051 l 413 1051 l 596 1274 z "},"Ň":{"ha":1117,"x_min":79,"x_max":1038,"o":"m 1038 972 l 1038 0 l 768 0 l 399 442 l 399 0 l 79 0 l 79 972 l 349 972 l 718 531 l 718 972 l 1038 972 m 869 1274 l 692 1051 l 425 1051 l 247 1274 l 442 1274 l 558 1167 l 675 1274 l 869 1274 z "},"Ņ":{"ha":1117,"x_min":79,"x_max":1038,"o":"m 1038 972 l 1038 0 l 768 0 l 399 442 l 399 0 l 79 0 l 79 972 l 349 972 l 718 531 l 718 972 l 1038 972 m 558 -69 q 650 -98 617 -69 q 683 -174 683 -126 q 649 -285 683 -225 l 594 -375 l 457 -375 l 493 -265 q 433 -174 433 -243 q 467 -98 433 -126 q 558 -69 500 -69 z "},"Ṅ":{"ha":1117,"x_min":79,"x_max":1038,"o":"m 1038 972 l 1038 0 l 768 0 l 399 442 l 399 0 l 79 0 l 79 972 l 349 972 l 718 531 l 718 972 l 1038 972 m 558 1038 q 444 1082 489 1038 q 400 1196 400 1126 q 444 1310 400 1265 q 558 1354 489 1354 q 672 1310 628 1354 q 717 1196 717 1265 q 672 1082 717 1126 q 558 1038 628 1038 z "},"Ṇ":{"ha":1117,"x_min":79,"x_max":1038,"o":"m 1038 972 l 1038 0 l 768 0 l 399 442 l 399 0 l 79 0 l 79 972 l 349 972 l 718 531 l 718 972 l 1038 972 m 558 -314 q 469 -281 504 -314 q 433 -193 433 -247 q 469 -104 433 -139 q 558 -69 504 -69 q 648 -104 613 -69 q 683 -193 683 -139 q 648 -281 683 -247 q 558 -314 613 -314 z "},"Ŋ":{"ha":1117,"x_min":79,"x_max":1038,"o":"m 1038 972 l 1038 142 q 938 -180 1038 -76 q 640 -283 839 -283 q 367 -212 474 -283 l 517 7 q 613 -28 567 -28 q 683 -5 657 -28 q 715 63 710 18 l 399 442 l 399 0 l 79 0 l 79 972 l 349 972 l 718 531 l 718 972 l 1038 972 z "},"ǋ":{"ha":1581,"x_min":79,"x_max":1543,"o":"m 1038 972 l 1038 0 l 768 0 l 399 442 l 399 0 l 79 0 l 79 972 l 349 972 l 718 531 l 718 972 l 1038 972 m 1179 -283 q 986 -246 1058 -283 l 1061 -28 q 1132 -46 1094 -46 q 1179 -24 1161 -46 q 1197 42 1197 -3 l 1197 760 l 1511 760 l 1511 39 q 1423 -197 1511 -110 q 1179 -283 1335 -283 m 1354 821 q 1217 866 1269 821 q 1165 981 1165 911 q 1217 1095 1165 1050 q 1354 1140 1269 1140 q 1492 1097 1440 1140 q 1543 986 1543 1054 q 1492 867 1543 914 q 1354 821 1440 821 z "},"Ṉ":{"ha":1117,"x_min":79,"x_max":1038,"o":"m 1038 972 l 1038 0 l 768 0 l 399 442 l 399 0 l 79 0 l 79 972 l 349 972 l 718 531 l 718 972 l 1038 972 m 267 -103 l 850 -103 l 850 -267 l 267 -267 l 267 -103 z "},"Ñ":{"ha":1117,"x_min":79,"x_max":1038,"o":"m 1038 972 l 1038 0 l 768 0 l 399 442 l 399 0 l 79 0 l 79 972 l 349 972 l 718 531 l 718 972 l 1038 972 m 671 1038 q 599 1051 631 1038 q 532 1089 567 1065 q 494 1112 508 1104 q 465 1119 479 1119 q 422 1101 439 1119 q 403 1051 406 1083 l 254 1051 q 308 1227 257 1163 q 446 1292 358 1292 q 518 1278 486 1292 q 585 1240 550 1264 q 623 1217 608 1224 q 651 1210 638 1210 q 694 1227 678 1210 q 714 1274 711 1244 l 863 1274 q 809 1102 860 1167 q 671 1038 758 1038 z "},"O":{"ha":1178,"x_min":40,"x_max":1138,"o":"m 589 -22 q 307 43 432 -22 q 111 224 182 108 q 40 486 40 340 q 111 748 40 632 q 307 929 182 864 q 589 994 432 994 q 871 929 746 994 q 1067 748 996 864 q 1138 486 1138 632 q 1067 224 1138 340 q 871 43 996 108 q 589 -22 746 -22 m 589 243 q 699 273 650 243 q 778 358 749 303 q 807 486 807 413 q 778 615 807 560 q 699 699 749 669 q 589 729 650 729 q 478 699 528 729 q 400 615 429 669 q 371 486 371 560 q 400 358 371 413 q 478 273 429 303 q 589 243 528 243 z "},"Ó":{"ha":1178,"x_min":40,"x_max":1138,"o":"m 589 -22 q 307 43 432 -22 q 111 224 182 108 q 40 486 40 340 q 111 748 40 632 q 307 929 182 864 q 589 994 432 994 q 871 929 746 994 q 1067 748 996 864 q 1138 486 1138 632 q 1067 224 1138 340 q 871 43 996 108 q 589 -22 746 -22 m 589 243 q 699 273 650 243 q 778 358 749 303 q 807 486 807 413 q 778 615 807 560 q 699 699 749 669 q 589 729 650 729 q 478 699 528 729 q 400 615 429 669 q 371 486 371 560 q 400 358 371 413 q 478 273 429 303 q 589 243 528 243 m 626 1274 l 925 1274 l 651 1051 l 443 1051 l 626 1274 z "},"Ŏ":{"ha":1178,"x_min":40,"x_max":1138,"o":"m 589 -22 q 307 43 432 -22 q 111 224 182 108 q 40 486 40 340 q 111 748 40 632 q 307 929 182 864 q 589 994 432 994 q 871 929 746 994 q 1067 748 996 864 q 1138 486 1138 632 q 1067 224 1138 340 q 871 43 996 108 q 589 -22 746 -22 m 589 243 q 699 273 650 243 q 778 358 749 303 q 807 486 807 413 q 778 615 807 560 q 699 699 749 669 q 589 729 650 729 q 478 699 528 729 q 400 615 429 669 q 371 486 371 560 q 400 358 371 413 q 478 273 429 303 q 589 243 528 243 m 589 1038 q 383 1101 463 1038 q 299 1274 304 1165 l 486 1274 q 517 1212 489 1235 q 589 1189 546 1189 q 660 1212 632 1189 q 692 1274 689 1235 l 879 1274 q 794 1101 874 1165 q 589 1038 715 1038 z "},"Ô":{"ha":1178,"x_min":40,"x_max":1138,"o":"m 589 -22 q 307 43 432 -22 q 111 224 182 108 q 40 486 40 340 q 111 748 40 632 q 307 929 182 864 q 589 994 432 994 q 871 929 746 994 q 1067 748 996 864 q 1138 486 1138 632 q 1067 224 1138 340 q 871 43 996 108 q 589 -22 746 -22 m 589 243 q 699 273 650 243 q 778 358 749 303 q 807 486 807 413 q 778 615 807 560 q 699 699 749 669 q 589 729 650 729 q 478 699 528 729 q 400 615 429 669 q 371 486 371 560 q 400 358 371 413 q 478 273 429 303 q 589 243 528 243 m 706 1051 l 589 1158 l 472 1051 l 278 1051 l 456 1274 l 722 1274 l 900 1051 l 706 1051 z "},"Ố":{"ha":1178,"x_min":40,"x_max":1231,"o":"m 589 -22 q 307 43 432 -22 q 111 224 182 108 q 40 486 40 340 q 111 748 40 632 q 307 929 182 864 q 589 994 432 994 q 871 929 746 994 q 1067 748 996 864 q 1138 486 1138 632 q 1067 224 1138 340 q 871 43 996 108 q 589 -22 746 -22 m 589 243 q 699 273 650 243 q 778 358 749 303 q 807 486 807 413 q 778 615 807 560 q 699 699 749 669 q 589 729 650 729 q 478 699 528 729 q 400 615 429 669 q 371 486 371 560 q 400 358 371 413 q 478 273 429 303 q 589 243 528 243 m 706 1051 l 589 1136 l 472 1051 l 278 1051 l 457 1232 l 721 1232 l 900 1051 l 706 1051 m 932 1378 l 1231 1378 l 999 1197 l 790 1197 l 932 1378 z "},"Ộ":{"ha":1178,"x_min":40,"x_max":1138,"o":"m 589 -22 q 307 43 432 -22 q 111 224 182 108 q 40 486 40 340 q 111 748 40 632 q 307 929 182 864 q 589 994 432 994 q 871 929 746 994 q 1067 748 996 864 q 1138 486 1138 632 q 1067 224 1138 340 q 871 43 996 108 q 589 -22 746 -22 m 589 243 q 699 273 650 243 q 778 358 749 303 q 807 486 807 413 q 778 615 807 560 q 699 699 749 669 q 589 729 650 729 q 478 699 528 729 q 400 615 429 669 q 371 486 371 560 q 400 358 371 413 q 478 273 429 303 q 589 243 528 243 m 589 -314 q 499 -281 535 -314 q 464 -193 464 -247 q 499 -104 464 -139 q 589 -69 535 -69 q 678 -104 643 -69 q 714 -193 714 -139 q 678 -281 714 -247 q 589 -314 643 -314 m 706 1051 l 589 1158 l 472 1051 l 278 1051 l 456 1274 l 722 1274 l 900 1051 l 706 1051 z "},"Ồ":{"ha":1178,"x_min":40,"x_max":1138,"o":"m 589 -22 q 307 43 432 -22 q 111 224 182 108 q 40 486 40 340 q 111 748 40 632 q 307 929 182 864 q 589 994 432 994 q 871 929 746 994 q 1067 748 996 864 q 1138 486 1138 632 q 1067 224 1138 340 q 871 43 996 108 q 589 -22 746 -22 m 589 243 q 699 273 650 243 q 778 358 749 303 q 807 486 807 413 q 778 615 807 560 q 699 699 749 669 q 589 729 650 729 q 478 699 528 729 q 400 615 429 669 q 371 486 371 560 q 400 358 371 413 q 478 273 429 303 q 589 243 528 243 m 706 1051 l 589 1136 l 472 1051 l 278 1051 l 457 1232 l 721 1232 l 900 1051 l 706 1051 m 642 1378 l 940 1378 l 1082 1197 l 874 1197 l 642 1378 z "},"Ổ":{"ha":1178,"x_min":40,"x_max":1138,"o":"m 589 -22 q 307 43 432 -22 q 111 224 182 108 q 40 486 40 340 q 111 748 40 632 q 307 929 182 864 q 589 994 432 994 q 871 929 746 994 q 1067 748 996 864 q 1138 486 1138 632 q 1067 224 1138 340 q 871 43 996 108 q 589 -22 746 -22 m 589 243 q 699 273 650 243 q 778 358 749 303 q 807 486 807 413 q 778 615 807 560 q 699 699 749 669 q 589 729 650 729 q 478 699 528 729 q 400 615 429 669 q 371 486 371 560 q 400 358 371 413 q 478 273 429 303 q 589 243 528 243 m 706 1051 l 589 1136 l 472 1051 l 278 1051 l 457 1232 l 721 1232 l 900 1051 l 706 1051 m 815 1232 q 863 1283 863 1257 q 851 1308 863 1299 q 822 1318 840 1318 q 758 1301 792 1318 l 711 1386 q 849 1421 767 1421 q 957 1388 917 1421 q 997 1299 997 1356 q 966 1222 997 1256 q 888 1169 935 1188 l 815 1232 z "},"Ỗ":{"ha":1178,"x_min":40,"x_max":1138,"o":"m 589 -22 q 307 43 432 -22 q 111 224 182 108 q 40 486 40 340 q 111 748 40 632 q 307 929 182 864 q 589 994 432 994 q 871 929 746 994 q 1067 748 996 864 q 1138 486 1138 632 q 1067 224 1138 340 q 871 43 996 108 q 589 -22 746 -22 m 589 243 q 699 273 650 243 q 778 358 749 303 q 807 486 807 413 q 778 615 807 560 q 699 699 749 669 q 589 729 650 729 q 478 699 528 729 q 400 615 429 669 q 371 486 371 560 q 400 358 371 413 q 478 273 429 303 q 589 243 528 243 m 706 1051 l 589 1136 l 472 1051 l 278 1051 l 457 1232 l 721 1232 l 900 1051 l 706 1051 m 694 1281 q 622 1293 654 1281 q 556 1328 590 1306 q 526 1344 540 1338 q 503 1350 513 1350 q 463 1334 479 1350 q 444 1293 447 1318 l 292 1293 q 342 1446 292 1392 q 483 1500 393 1500 q 555 1488 524 1500 q 622 1454 586 1475 q 653 1438 638 1444 q 678 1431 668 1431 q 719 1447 703 1431 q 738 1488 735 1464 l 886 1488 q 837 1335 886 1390 q 694 1281 788 1281 z "},"Ȍ":{"ha":1178,"x_min":40,"x_max":1138,"o":"m 589 -22 q 307 43 432 -22 q 111 224 182 108 q 40 486 40 340 q 111 748 40 632 q 307 929 182 864 q 589 994 432 994 q 871 929 746 994 q 1067 748 996 864 q 1138 486 1138 632 q 1067 224 1138 340 q 871 43 996 108 q 589 -22 746 -22 m 589 243 q 699 273 650 243 q 778 358 749 303 q 807 486 807 413 q 778 615 807 560 q 699 699 749 669 q 589 729 650 729 q 478 699 528 729 q 400 615 429 669 q 371 486 371 560 q 400 358 371 413 q 478 273 429 303 q 589 243 528 243 m 188 1274 l 458 1274 l 531 1051 l 322 1051 l 188 1274 m 513 1274 l 783 1274 l 856 1051 l 647 1051 l 513 1274 z "},"Ö":{"ha":1178,"x_min":40,"x_max":1138,"o":"m 589 -22 q 307 43 432 -22 q 111 224 182 108 q 40 486 40 340 q 111 748 40 632 q 307 929 182 864 q 589 994 432 994 q 871 929 746 994 q 1067 748 996 864 q 1138 486 1138 632 q 1067 224 1138 340 q 871 43 996 108 q 589 -22 746 -22 m 589 243 q 699 273 650 243 q 778 358 749 303 q 807 486 807 413 q 778 615 807 560 q 699 699 749 669 q 589 729 650 729 q 478 699 528 729 q 400 615 429 669 q 371 486 371 560 q 400 358 371 413 q 478 273 429 303 q 589 243 528 243 m 435 1040 q 345 1074 381 1040 q 310 1163 310 1108 q 345 1251 310 1217 q 435 1286 381 1286 q 524 1251 489 1286 q 560 1163 560 1217 q 524 1074 560 1108 q 435 1040 489 1040 m 743 1040 q 653 1074 689 1040 q 618 1163 618 1108 q 653 1251 618 1217 q 743 1286 689 1286 q 833 1251 797 1286 q 868 1163 868 1217 q 833 1074 868 1108 q 743 1040 797 1040 z "},"Ȫ":{"ha":1178,"x_min":40,"x_max":1138,"o":"m 589 -22 q 307 43 432 -22 q 111 224 182 108 q 40 486 40 340 q 111 748 40 632 q 307 929 182 864 q 589 994 432 994 q 871 929 746 994 q 1067 748 996 864 q 1138 486 1138 632 q 1067 224 1138 340 q 871 43 996 108 q 589 -22 746 -22 m 589 243 q 699 273 650 243 q 778 358 749 303 q 807 486 807 413 q 778 615 807 560 q 699 699 749 669 q 589 729 650 729 q 478 699 528 729 q 400 615 429 669 q 371 486 371 560 q 400 358 371 413 q 478 273 429 303 q 589 243 528 243 m 442 1040 q 357 1072 390 1040 q 324 1156 324 1104 q 358 1240 324 1207 q 442 1272 392 1272 q 526 1240 492 1272 q 560 1156 560 1207 q 526 1072 560 1104 q 442 1040 493 1040 m 736 1040 q 651 1072 685 1040 q 618 1156 618 1104 q 652 1240 618 1207 q 736 1272 686 1272 q 820 1240 786 1272 q 854 1156 854 1207 q 821 1072 854 1104 q 736 1040 788 1040 m 297 1474 l 881 1474 l 881 1318 l 297 1318 l 297 1474 z "},"Ȱ":{"ha":1178,"x_min":40,"x_max":1138,"o":"m 589 -22 q 307 43 432 -22 q 111 224 182 108 q 40 486 40 340 q 111 748 40 632 q 307 929 182 864 q 589 994 432 994 q 871 929 746 994 q 1067 748 996 864 q 1138 486 1138 632 q 1067 224 1138 340 q 871 43 996 108 q 589 -22 746 -22 m 589 243 q 699 273 650 243 q 778 358 749 303 q 807 486 807 413 q 778 615 807 560 q 699 699 749 669 q 589 729 650 729 q 478 699 528 729 q 400 615 429 669 q 371 486 371 560 q 400 358 371 413 q 478 273 429 303 q 589 243 528 243 m 589 1038 q 499 1071 535 1038 q 464 1158 464 1104 q 499 1247 464 1213 q 589 1282 535 1282 q 678 1247 643 1282 q 714 1158 714 1213 q 678 1071 714 1104 q 589 1038 643 1038 m 297 1488 l 881 1488 l 881 1332 l 297 1332 l 297 1488 z "},"Ọ":{"ha":1178,"x_min":40,"x_max":1138,"o":"m 589 -22 q 307 43 432 -22 q 111 224 182 108 q 40 486 40 340 q 111 748 40 632 q 307 929 182 864 q 589 994 432 994 q 871 929 746 994 q 1067 748 996 864 q 1138 486 1138 632 q 1067 224 1138 340 q 871 43 996 108 q 589 -22 746 -22 m 589 243 q 699 273 650 243 q 778 358 749 303 q 807 486 807 413 q 778 615 807 560 q 699 699 749 669 q 589 729 650 729 q 478 699 528 729 q 400 615 429 669 q 371 486 371 560 q 400 358 371 413 q 478 273 429 303 q 589 243 528 243 m 589 -314 q 499 -281 535 -314 q 464 -193 464 -247 q 499 -104 464 -139 q 589 -69 535 -69 q 678 -104 643 -69 q 714 -193 714 -139 q 678 -281 714 -247 q 589 -314 643 -314 z "},"Ò":{"ha":1178,"x_min":40,"x_max":1138,"o":"m 589 -22 q 307 43 432 -22 q 111 224 182 108 q 40 486 40 340 q 111 748 40 632 q 307 929 182 864 q 589 994 432 994 q 871 929 746 994 q 1067 748 996 864 q 1138 486 1138 632 q 1067 224 1138 340 q 871 43 996 108 q 589 -22 746 -22 m 589 243 q 699 273 650 243 q 778 358 749 303 q 807 486 807 413 q 778 615 807 560 q 699 699 749 669 q 589 729 650 729 q 478 699 528 729 q 400 615 429 669 q 371 486 371 560 q 400 358 371 413 q 478 273 429 303 q 589 243 528 243 m 253 1274 l 551 1274 l 735 1051 l 526 1051 l 253 1274 z "},"Ỏ":{"ha":1178,"x_min":40,"x_max":1138,"o":"m 589 -22 q 307 43 432 -22 q 111 224 182 108 q 40 486 40 340 q 111 748 40 632 q 307 929 182 864 q 589 994 432 994 q 871 929 746 994 q 1067 748 996 864 q 1138 486 1138 632 q 1067 224 1138 340 q 871 43 996 108 q 589 -22 746 -22 m 589 243 q 699 273 650 243 q 778 358 749 303 q 807 486 807 413 q 778 615 807 560 q 699 699 749 669 q 589 729 650 729 q 478 699 528 729 q 400 615 429 669 q 371 486 371 560 q 400 358 371 413 q 478 273 429 303 q 589 243 528 243 m 554 1128 q 604 1163 590 1144 q 618 1203 618 1182 q 602 1242 618 1228 q 560 1256 586 1256 q 481 1228 521 1256 l 417 1344 q 596 1400 489 1400 q 738 1353 683 1400 q 792 1229 792 1306 q 756 1116 792 1163 q 649 1038 719 1069 l 554 1128 z "},"Ơ":{"ha":1178,"x_min":40,"x_max":1139,"o":"m 999 826 q 1101 676 1065 763 q 1138 486 1138 589 q 1067 224 1138 340 q 871 43 996 108 q 589 -22 746 -22 q 307 43 432 -22 q 111 224 182 108 q 40 486 40 340 q 112 748 40 632 q 312 929 183 864 q 603 994 440 994 q 756 983 667 994 q 844 976 814 976 q 913 998 888 976 q 938 1057 938 1019 q 910 1136 938 1104 l 1088 1199 q 1139 1044 1139 1133 q 1102 910 1139 965 q 999 826 1065 856 m 589 243 q 699 273 650 243 q 778 358 749 303 q 807 486 807 413 q 778 615 807 560 q 699 699 749 669 q 589 729 650 729 q 478 699 528 729 q 400 615 429 669 q 371 486 371 560 q 400 358 371 413 q 478 273 429 303 q 589 243 528 243 z "},"Ớ":{"ha":1178,"x_min":40,"x_max":1139,"o":"m 999 826 q 1101 676 1065 763 q 1138 486 1138 589 q 1067 224 1138 340 q 871 43 996 108 q 589 -22 746 -22 q 307 43 432 -22 q 111 224 182 108 q 40 486 40 340 q 112 748 40 632 q 312 929 183 864 q 603 994 440 994 q 756 983 667 994 q 844 976 814 976 q 913 998 888 976 q 938 1057 938 1019 q 910 1136 938 1104 l 1088 1199 q 1139 1044 1139 1133 q 1102 910 1139 965 q 999 826 1065 856 m 589 243 q 699 273 650 243 q 778 358 749 303 q 807 486 807 413 q 778 615 807 560 q 699 699 749 669 q 589 729 650 729 q 478 699 528 729 q 400 615 429 669 q 371 486 371 560 q 400 358 371 413 q 478 273 429 303 q 589 243 528 243 m 626 1274 l 925 1274 l 651 1051 l 443 1051 l 626 1274 z "},"Ợ":{"ha":1178,"x_min":40,"x_max":1139,"o":"m 999 826 q 1101 676 1065 763 q 1138 486 1138 589 q 1067 224 1138 340 q 871 43 996 108 q 589 -22 746 -22 q 307 43 432 -22 q 111 224 182 108 q 40 486 40 340 q 112 748 40 632 q 312 929 183 864 q 603 994 440 994 q 756 983 667 994 q 844 976 814 976 q 913 998 888 976 q 938 1057 938 1019 q 910 1136 938 1104 l 1088 1199 q 1139 1044 1139 1133 q 1102 910 1139 965 q 999 826 1065 856 m 589 243 q 699 273 650 243 q 778 358 749 303 q 807 486 807 413 q 778 615 807 560 q 699 699 749 669 q 589 729 650 729 q 478 699 528 729 q 400 615 429 669 q 371 486 371 560 q 400 358 371 413 q 478 273 429 303 q 589 243 528 243 m 589 -314 q 499 -281 535 -314 q 464 -193 464 -247 q 499 -104 464 -139 q 589 -69 535 -69 q 678 -104 643 -69 q 714 -193 714 -139 q 678 -281 714 -247 q 589 -314 643 -314 z "},"Ờ":{"ha":1178,"x_min":40,"x_max":1139,"o":"m 999 826 q 1101 676 1065 763 q 1138 486 1138 589 q 1067 224 1138 340 q 871 43 996 108 q 589 -22 746 -22 q 307 43 432 -22 q 111 224 182 108 q 40 486 40 340 q 112 748 40 632 q 312 929 183 864 q 603 994 440 994 q 756 983 667 994 q 844 976 814 976 q 913 998 888 976 q 938 1057 938 1019 q 910 1136 938 1104 l 1088 1199 q 1139 1044 1139 1133 q 1102 910 1139 965 q 999 826 1065 856 m 589 243 q 699 273 650 243 q 778 358 749 303 q 807 486 807 413 q 778 615 807 560 q 699 699 749 669 q 589 729 650 729 q 478 699 528 729 q 400 615 429 669 q 371 486 371 560 q 400 358 371 413 q 478 273 429 303 q 589 243 528 243 m 253 1274 l 551 1274 l 735 1051 l 526 1051 l 253 1274 z "},"Ở":{"ha":1178,"x_min":40,"x_max":1139,"o":"m 999 826 q 1101 676 1065 763 q 1138 486 1138 589 q 1067 224 1138 340 q 871 43 996 108 q 589 -22 746 -22 q 307 43 432 -22 q 111 224 182 108 q 40 486 40 340 q 112 748 40 632 q 312 929 183 864 q 603 994 440 994 q 756 983 667 994 q 844 976 814 976 q 913 998 888 976 q 938 1057 938 1019 q 910 1136 938 1104 l 1088 1199 q 1139 1044 1139 1133 q 1102 910 1139 965 q 999 826 1065 856 m 589 243 q 699 273 650 243 q 778 358 749 303 q 807 486 807 413 q 778 615 807 560 q 699 699 749 669 q 589 729 650 729 q 478 699 528 729 q 400 615 429 669 q 371 486 371 560 q 400 358 371 413 q 478 273 429 303 q 589 243 528 243 m 554 1128 q 604 1163 590 1144 q 618 1203 618 1182 q 602 1242 618 1228 q 560 1256 586 1256 q 481 1228 521 1256 l 417 1344 q 596 1400 489 1400 q 738 1353 683 1400 q 792 1229 792 1306 q 756 1116 792 1163 q 649 1038 719 1069 l 554 1128 z "},"Ỡ":{"ha":1178,"x_min":40,"x_max":1139,"o":"m 999 826 q 1101 676 1065 763 q 1138 486 1138 589 q 1067 224 1138 340 q 871 43 996 108 q 589 -22 746 -22 q 307 43 432 -22 q 111 224 182 108 q 40 486 40 340 q 112 748 40 632 q 312 929 183 864 q 603 994 440 994 q 756 983 667 994 q 844 976 814 976 q 913 998 888 976 q 938 1057 938 1019 q 910 1136 938 1104 l 1088 1199 q 1139 1044 1139 1133 q 1102 910 1139 965 q 999 826 1065 856 m 589 243 q 699 273 650 243 q 778 358 749 303 q 807 486 807 413 q 778 615 807 560 q 699 699 749 669 q 589 729 650 729 q 478 699 528 729 q 400 615 429 669 q 371 486 371 560 q 400 358 371 413 q 478 273 429 303 q 589 243 528 243 m 701 1038 q 629 1051 661 1038 q 563 1089 597 1065 q 524 1112 539 1104 q 496 1119 510 1119 q 453 1101 469 1119 q 433 1051 436 1083 l 285 1051 q 338 1227 288 1163 q 476 1292 389 1292 q 549 1278 517 1292 q 615 1240 581 1264 q 653 1217 639 1224 q 682 1210 668 1210 q 725 1227 708 1210 q 744 1274 742 1244 l 893 1274 q 840 1102 890 1167 q 701 1038 789 1038 z "},"Ő":{"ha":1178,"x_min":40,"x_max":1138,"o":"m 589 -22 q 307 43 432 -22 q 111 224 182 108 q 40 486 40 340 q 111 748 40 632 q 307 929 182 864 q 589 994 432 994 q 871 929 746 994 q 1067 748 996 864 q 1138 486 1138 632 q 1067 224 1138 340 q 871 43 996 108 q 589 -22 746 -22 m 589 243 q 699 273 650 243 q 778 358 749 303 q 807 486 807 413 q 778 615 807 560 q 699 699 749 669 q 589 729 650 729 q 478 699 528 729 q 400 615 429 669 q 371 486 371 560 q 400 358 371 413 q 478 273 429 303 q 589 243 528 243 m 394 1274 l 665 1274 l 531 1051 l 322 1051 l 394 1274 m 719 1274 l 990 1274 l 856 1051 l 647 1051 l 719 1274 z "},"Ȏ":{"ha":1178,"x_min":40,"x_max":1138,"o":"m 589 -22 q 307 43 432 -22 q 111 224 182 108 q 40 486 40 340 q 111 748 40 632 q 307 929 182 864 q 589 994 432 994 q 871 929 746 994 q 1067 748 996 864 q 1138 486 1138 632 q 1067 224 1138 340 q 871 43 996 108 q 589 -22 746 -22 m 589 243 q 699 273 650 243 q 778 358 749 303 q 807 486 807 413 q 778 615 807 560 q 699 699 749 669 q 589 729 650 729 q 478 699 528 729 q 400 615 429 669 q 371 486 371 560 q 400 358 371 413 q 478 273 429 303 q 589 243 528 243 m 299 1051 q 383 1224 304 1160 q 589 1288 463 1288 q 794 1224 715 1288 q 879 1051 874 1160 l 692 1051 q 660 1113 689 1090 q 589 1136 632 1136 q 517 1113 546 1136 q 486 1051 489 1090 l 299 1051 z "},"Ō":{"ha":1178,"x_min":40,"x_max":1138,"o":"m 589 -22 q 307 43 432 -22 q 111 224 182 108 q 40 486 40 340 q 111 748 40 632 q 307 929 182 864 q 589 994 432 994 q 871 929 746 994 q 1067 748 996 864 q 1138 486 1138 632 q 1067 224 1138 340 q 871 43 996 108 q 589 -22 746 -22 m 589 243 q 699 273 650 243 q 778 358 749 303 q 807 486 807 413 q 778 615 807 560 q 699 699 749 669 q 589 729 650 729 q 478 699 528 729 q 400 615 429 669 q 371 486 371 560 q 400 358 371 413 q 478 273 429 303 q 589 243 528 243 m 297 1244 l 881 1244 l 881 1081 l 297 1081 l 297 1244 z "},"Ṓ":{"ha":1178,"x_min":40,"x_max":1138,"o":"m 589 -22 q 307 43 432 -22 q 111 224 182 108 q 40 486 40 340 q 111 748 40 632 q 307 929 182 864 q 589 994 432 994 q 871 929 746 994 q 1067 748 996 864 q 1138 486 1138 632 q 1067 224 1138 340 q 871 43 996 108 q 589 -22 746 -22 m 589 243 q 699 273 650 243 q 778 358 749 303 q 807 486 807 413 q 778 615 807 560 q 699 699 749 669 q 589 729 650 729 q 478 699 528 729 q 400 615 429 669 q 371 486 371 560 q 400 358 371 413 q 478 273 429 303 q 589 243 528 243 m 297 1219 l 881 1219 l 881 1064 l 297 1064 l 297 1219 m 585 1486 l 883 1486 l 651 1306 l 443 1306 l 585 1486 z "},"Ṑ":{"ha":1178,"x_min":40,"x_max":1138,"o":"m 589 -22 q 307 43 432 -22 q 111 224 182 108 q 40 486 40 340 q 111 748 40 632 q 307 929 182 864 q 589 994 432 994 q 871 929 746 994 q 1067 748 996 864 q 1138 486 1138 632 q 1067 224 1138 340 q 871 43 996 108 q 589 -22 746 -22 m 589 243 q 699 273 650 243 q 778 358 749 303 q 807 486 807 413 q 778 615 807 560 q 699 699 749 669 q 589 729 650 729 q 478 699 528 729 q 400 615 429 669 q 371 486 371 560 q 400 358 371 413 q 478 273 429 303 q 589 243 528 243 m 297 1219 l 881 1219 l 881 1064 l 297 1064 l 297 1219 m 294 1486 l 593 1486 l 735 1306 l 526 1306 l 294 1486 z "},"Ǫ":{"ha":1178,"x_min":40,"x_max":1138,"o":"m 783 7 q 601 -135 601 -54 q 620 -176 601 -160 q 675 -192 639 -192 q 757 -172 715 -192 l 794 -301 q 726 -324 769 -315 q 638 -333 682 -333 q 476 -287 535 -333 q 418 -162 418 -242 q 490 -15 418 -79 q 256 74 358 4 q 97 250 154 143 q 40 486 40 357 q 111 748 40 632 q 307 929 182 864 q 589 994 432 994 q 871 929 746 994 q 1067 748 996 864 q 1138 486 1138 632 q 1040 186 1138 313 q 783 7 942 60 m 371 486 q 400 358 371 413 q 478 273 429 303 q 589 243 528 243 q 699 273 650 243 q 778 358 749 303 q 807 486 807 413 q 778 615 807 560 q 699 699 749 669 q 589 729 650 729 q 478 699 528 729 q 400 615 429 669 q 371 486 371 560 z "},"Ø":{"ha":1178,"x_min":40,"x_max":1138,"o":"m 589 -22 q 307 43 432 -22 q 111 224 182 108 q 40 486 40 340 q 111 748 40 632 q 307 929 182 864 q 589 994 432 994 q 871 929 746 994 q 1067 748 996 864 q 1138 486 1138 632 q 1067 224 1138 340 q 871 43 996 108 q 589 -22 746 -22 m 589 243 q 699 273 650 243 q 778 358 749 303 q 807 486 807 413 q 778 615 807 560 q 699 699 749 669 q 589 729 650 729 q 478 699 528 729 q 400 615 429 669 q 371 486 371 560 q 400 358 371 413 q 478 273 429 303 q 589 243 528 243 m 913 1069 l 1093 1069 l 265 -97 l 85 -97 l 913 1069 z "},"Ǿ":{"ha":1178,"x_min":40,"x_max":1138,"o":"m 589 -22 q 307 43 432 -22 q 111 224 182 108 q 40 486 40 340 q 111 748 40 632 q 307 929 182 864 q 589 994 432 994 q 871 929 746 994 q 1067 748 996 864 q 1138 486 1138 632 q 1067 224 1138 340 q 871 43 996 108 q 589 -22 746 -22 m 589 243 q 699 273 650 243 q 778 358 749 303 q 807 486 807 413 q 778 615 807 560 q 699 699 749 669 q 589 729 650 729 q 478 699 528 729 q 400 615 429 669 q 371 486 371 560 q 400 358 371 413 q 478 273 429 303 q 589 243 528 243 m 913 1069 l 1093 1069 l 265 -97 l 85 -97 l 913 1069 m 626 1274 l 925 1274 l 651 1051 l 443 1051 l 626 1274 z "},"Õ":{"ha":1178,"x_min":40,"x_max":1138,"o":"m 589 -22 q 307 43 432 -22 q 111 224 182 108 q 40 486 40 340 q 111 748 40 632 q 307 929 182 864 q 589 994 432 994 q 871 929 746 994 q 1067 748 996 864 q 1138 486 1138 632 q 1067 224 1138 340 q 871 43 996 108 q 589 -22 746 -22 m 589 243 q 699 273 650 243 q 778 358 749 303 q 807 486 807 413 q 778 615 807 560 q 699 699 749 669 q 589 729 650 729 q 478 699 528 729 q 400 615 429 669 q 371 486 371 560 q 400 358 371 413 q 478 273 429 303 q 589 243 528 243 m 701 1038 q 629 1051 661 1038 q 563 1089 597 1065 q 524 1112 539 1104 q 496 1119 510 1119 q 453 1101 469 1119 q 433 1051 436 1083 l 285 1051 q 338 1227 288 1163 q 476 1292 389 1292 q 549 1278 517 1292 q 615 1240 581 1264 q 653 1217 639 1224 q 682 1210 668 1210 q 725 1227 708 1210 q 744 1274 742 1244 l 893 1274 q 840 1102 890 1167 q 701 1038 789 1038 z "},"Ṍ":{"ha":1178,"x_min":40,"x_max":1138,"o":"m 589 -22 q 307 43 432 -22 q 111 224 182 108 q 40 486 40 340 q 111 748 40 632 q 307 929 182 864 q 589 994 432 994 q 871 929 746 994 q 1067 748 996 864 q 1138 486 1138 632 q 1067 224 1138 340 q 871 43 996 108 q 589 -22 746 -22 m 589 243 q 699 273 650 243 q 778 358 749 303 q 807 486 807 413 q 778 615 807 560 q 699 699 749 669 q 589 729 650 729 q 478 699 528 729 q 400 615 429 669 q 371 486 371 560 q 400 358 371 413 q 478 273 429 303 q 589 243 528 243 m 694 1038 q 622 1050 654 1038 q 556 1085 590 1063 q 526 1101 540 1094 q 503 1107 513 1107 q 463 1091 479 1107 q 444 1050 447 1075 l 292 1050 q 342 1203 292 1149 q 483 1257 393 1257 q 555 1244 524 1257 q 622 1211 586 1232 q 653 1194 638 1201 q 678 1188 668 1188 q 719 1204 703 1188 q 738 1244 735 1221 l 886 1244 q 837 1092 886 1147 q 694 1038 788 1038 m 585 1486 l 883 1486 l 651 1306 l 443 1306 l 585 1486 z "},"Ṏ":{"ha":1178,"x_min":40,"x_max":1138,"o":"m 589 -22 q 307 43 432 -22 q 111 224 182 108 q 40 486 40 340 q 111 748 40 632 q 307 929 182 864 q 589 994 432 994 q 871 929 746 994 q 1067 748 996 864 q 1138 486 1138 632 q 1067 224 1138 340 q 871 43 996 108 q 589 -22 746 -22 m 589 243 q 699 273 650 243 q 778 358 749 303 q 807 486 807 413 q 778 615 807 560 q 699 699 749 669 q 589 729 650 729 q 478 699 528 729 q 400 615 429 669 q 371 486 371 560 q 400 358 371 413 q 478 273 429 303 q 589 243 528 243 m 694 1038 q 622 1050 654 1038 q 556 1085 590 1063 q 526 1101 540 1094 q 503 1107 513 1107 q 463 1091 479 1107 q 444 1050 447 1075 l 292 1050 q 342 1203 292 1149 q 483 1257 393 1257 q 555 1244 524 1257 q 622 1211 586 1232 q 653 1194 638 1201 q 678 1188 668 1188 q 719 1204 703 1188 q 738 1244 735 1221 l 886 1244 q 837 1092 886 1147 q 694 1038 788 1038 m 442 1294 q 357 1326 390 1294 q 324 1410 324 1358 q 358 1494 324 1461 q 442 1526 392 1526 q 526 1494 492 1526 q 560 1410 560 1461 q 526 1326 560 1358 q 442 1294 493 1294 m 736 1294 q 651 1326 685 1294 q 618 1410 618 1358 q 652 1494 618 1461 q 736 1526 686 1526 q 820 1494 786 1526 q 854 1410 854 1461 q 821 1326 854 1358 q 736 1294 788 1294 z "},"Ȭ":{"ha":1178,"x_min":40,"x_max":1138,"o":"m 589 -22 q 307 43 432 -22 q 111 224 182 108 q 40 486 40 340 q 111 748 40 632 q 307 929 182 864 q 589 994 432 994 q 871 929 746 994 q 1067 748 996 864 q 1138 486 1138 632 q 1067 224 1138 340 q 871 43 996 108 q 589 -22 746 -22 m 589 243 q 699 273 650 243 q 778 358 749 303 q 807 486 807 413 q 778 615 807 560 q 699 699 749 669 q 589 729 650 729 q 478 699 528 729 q 400 615 429 669 q 371 486 371 560 q 400 358 371 413 q 478 273 429 303 q 589 243 528 243 m 694 1038 q 622 1050 654 1038 q 556 1085 590 1063 q 526 1101 540 1094 q 503 1107 513 1107 q 463 1091 479 1107 q 444 1050 447 1075 l 292 1050 q 342 1203 292 1149 q 483 1257 393 1257 q 555 1244 524 1257 q 622 1211 586 1232 q 653 1194 638 1201 q 678 1188 668 1188 q 719 1204 703 1188 q 738 1244 735 1221 l 886 1244 q 837 1092 886 1147 q 694 1038 788 1038 m 297 1474 l 881 1474 l 881 1318 l 297 1318 l 297 1474 z "},"Œ":{"ha":1596,"x_min":40,"x_max":1549,"o":"m 1549 247 l 1549 0 l 589 0 q 302 59 426 0 q 109 228 178 118 q 40 486 40 338 q 109 744 40 635 q 302 913 178 854 q 589 972 426 972 l 1531 972 l 1531 725 l 1063 725 l 1063 611 l 1474 611 l 1474 375 l 1063 375 l 1063 247 l 1549 247 m 740 256 l 740 717 l 603 717 q 434 656 497 717 q 371 486 371 596 q 434 316 371 376 q 603 256 497 256 l 740 256 z "},"P":{"ha":1032,"x_min":79,"x_max":990,"o":"m 547 972 q 782 928 682 972 q 936 800 882 883 q 990 606 990 717 q 936 411 990 494 q 782 283 882 328 q 547 239 682 239 l 407 239 l 407 0 l 79 0 l 79 972 l 547 972 m 526 492 q 626 522 593 492 q 660 606 660 551 q 626 690 660 660 q 526 719 593 719 l 407 719 l 407 492 l 526 492 z "},"Þ":{"ha":1032,"x_min":79,"x_max":990,"o":"m 547 879 q 782 835 682 879 q 936 707 882 790 q 990 513 990 624 q 936 318 990 401 q 782 190 882 235 q 547 146 682 146 l 407 146 l 407 0 l 79 0 l 79 974 l 407 974 l 407 879 l 547 879 m 526 399 q 626 428 593 399 q 660 513 660 458 q 626 597 660 567 q 526 626 593 626 l 407 626 l 407 399 l 526 399 z "},"Q":{"ha":1178,"x_min":40,"x_max":1190,"o":"m 1190 -122 q 1067 -215 1139 -183 q 907 -246 994 -246 q 750 -224 819 -246 q 611 -152 681 -203 q 453 -8 542 -101 q 238 87 331 17 q 92 260 144 157 q 40 486 40 363 q 111 748 40 632 q 307 929 182 864 q 589 994 432 994 q 871 929 746 994 q 1067 748 996 864 q 1138 486 1138 632 q 1053 203 1138 326 q 824 22 968 81 q 866 -9 844 0 q 914 -18 888 -18 q 1049 44 986 -18 l 1190 -122 m 589 729 q 478 699 528 729 q 400 615 429 669 q 371 486 371 560 q 400 358 371 413 q 478 273 429 303 q 589 243 528 243 q 699 273 650 243 q 778 358 749 303 q 807 486 807 413 q 778 615 807 560 q 699 699 749 669 q 589 729 650 729 z "},"R":{"ha":1035,"x_min":79,"x_max":1011,"o":"m 496 244 l 407 244 l 407 0 l 79 0 l 79 972 l 547 972 q 782 928 682 972 q 936 800 882 883 q 990 606 990 717 q 943 424 990 501 q 807 300 896 346 l 1011 0 l 661 0 l 496 244 m 660 606 q 626 690 660 660 q 526 719 593 719 l 407 719 l 407 492 l 526 492 q 626 522 593 492 q 660 606 660 551 z "},"Ŕ":{"ha":1035,"x_min":79,"x_max":1011,"o":"m 496 244 l 407 244 l 407 0 l 79 0 l 79 972 l 547 972 q 782 928 682 972 q 936 800 882 883 q 990 606 990 717 q 943 424 990 501 q 807 300 896 346 l 1011 0 l 661 0 l 496 244 m 660 606 q 626 690 660 660 q 526 719 593 719 l 407 719 l 407 492 l 526 492 q 626 522 593 492 q 660 606 660 551 m 564 1274 l 863 1274 l 589 1051 l 381 1051 l 564 1274 z "},"Ř":{"ha":1035,"x_min":79,"x_max":1011,"o":"m 496 244 l 407 244 l 407 0 l 79 0 l 79 972 l 547 972 q 782 928 682 972 q 936 800 882 883 q 990 606 990 717 q 943 424 990 501 q 807 300 896 346 l 1011 0 l 661 0 l 496 244 m 660 606 q 626 690 660 660 q 526 719 593 719 l 407 719 l 407 492 l 526 492 q 626 522 593 492 q 660 606 660 551 m 838 1274 l 660 1051 l 393 1051 l 215 1274 l 410 1274 l 526 1167 l 643 1274 l 838 1274 z "},"Ŗ":{"ha":1035,"x_min":79,"x_max":1011,"o":"m 496 244 l 407 244 l 407 0 l 79 0 l 79 972 l 547 972 q 782 928 682 972 q 936 800 882 883 q 990 606 990 717 q 943 424 990 501 q 807 300 896 346 l 1011 0 l 661 0 l 496 244 m 660 606 q 626 690 660 660 q 526 719 593 719 l 407 719 l 407 492 l 526 492 q 626 522 593 492 q 660 606 660 551 m 526 -69 q 618 -98 585 -69 q 651 -174 651 -126 q 617 -285 651 -225 l 563 -375 l 425 -375 l 461 -265 q 401 -174 401 -243 q 435 -98 401 -126 q 526 -69 468 -69 z "},"Ȑ":{"ha":1035,"x_min":79,"x_max":1011,"o":"m 496 244 l 407 244 l 407 0 l 79 0 l 79 972 l 547 972 q 782 928 682 972 q 936 800 882 883 q 990 606 990 717 q 943 424 990 501 q 807 300 896 346 l 1011 0 l 661 0 l 496 244 m 660 606 q 626 690 660 660 q 526 719 593 719 l 407 719 l 407 492 l 526 492 q 626 522 593 492 q 660 606 660 551 m 125 1274 l 396 1274 l 468 1051 l 260 1051 l 125 1274 m 450 1274 l 721 1274 l 793 1051 l 585 1051 l 450 1274 z "},"Ṛ":{"ha":1035,"x_min":79,"x_max":1011,"o":"m 496 244 l 407 244 l 407 0 l 79 0 l 79 972 l 547 972 q 782 928 682 972 q 936 800 882 883 q 990 606 990 717 q 943 424 990 501 q 807 300 896 346 l 1011 0 l 661 0 l 496 244 m 660 606 q 626 690 660 660 q 526 719 593 719 l 407 719 l 407 492 l 526 492 q 626 522 593 492 q 660 606 660 551 m 526 -314 q 437 -281 472 -314 q 401 -193 401 -247 q 437 -104 401 -139 q 526 -69 472 -69 q 616 -104 581 -69 q 651 -193 651 -139 q 616 -281 651 -247 q 526 -314 581 -314 z "},"Ȓ":{"ha":1035,"x_min":79,"x_max":1011,"o":"m 496 244 l 407 244 l 407 0 l 79 0 l 79 972 l 547 972 q 782 928 682 972 q 936 800 882 883 q 990 606 990 717 q 943 424 990 501 q 807 300 896 346 l 1011 0 l 661 0 l 496 244 m 660 606 q 626 690 660 660 q 526 719 593 719 l 407 719 l 407 492 l 526 492 q 626 522 593 492 q 660 606 660 551 m 236 1051 q 321 1224 242 1160 q 526 1288 400 1288 q 732 1224 653 1288 q 817 1051 811 1160 l 629 1051 q 598 1113 626 1090 q 526 1136 569 1136 q 455 1113 483 1136 q 424 1051 426 1090 l 236 1051 z "},"Ṟ":{"ha":1035,"x_min":79,"x_max":1011,"o":"m 496 244 l 407 244 l 407 0 l 79 0 l 79 972 l 547 972 q 782 928 682 972 q 936 800 882 883 q 990 606 990 717 q 943 424 990 501 q 807 300 896 346 l 1011 0 l 661 0 l 496 244 m 660 606 q 626 690 660 660 q 526 719 593 719 l 407 719 l 407 492 l 526 492 q 626 522 593 492 q 660 606 660 551 m 235 -103 l 818 -103 l 818 -267 l 235 -267 l 235 -103 z "},"S":{"ha":913,"x_min":18,"x_max":894,"o":"m 442 -22 q 206 5 321 -22 q 18 78 92 32 l 124 317 q 279 252 193 276 q 444 228 365 228 q 542 241 513 228 q 571 281 571 254 q 533 326 571 311 q 407 360 494 342 q 219 410 294 383 q 89 499 144 438 q 33 667 33 561 q 85 833 33 758 q 238 951 136 908 q 486 994 340 994 q 683 973 586 994 q 853 910 779 951 l 754 672 q 483 744 611 744 q 357 683 357 744 q 394 640 357 654 q 518 608 432 625 q 706 560 629 588 q 838 472 782 533 q 894 306 894 411 q 843 140 894 214 q 690 22 792 65 q 442 -22 588 -22 z "},"Ś":{"ha":913,"x_min":18,"x_max":894,"o":"m 442 -22 q 206 5 321 -22 q 18 78 92 32 l 124 317 q 279 252 193 276 q 444 228 365 228 q 542 241 513 228 q 571 281 571 254 q 533 326 571 311 q 407 360 494 342 q 219 410 294 383 q 89 499 144 438 q 33 667 33 561 q 85 833 33 758 q 238 951 136 908 q 486 994 340 994 q 683 973 586 994 q 853 910 779 951 l 754 672 q 483 744 611 744 q 357 683 357 744 q 394 640 357 654 q 518 608 432 625 q 706 560 629 588 q 838 472 782 533 q 894 306 894 411 q 843 140 894 214 q 690 22 792 65 q 442 -22 588 -22 m 494 1274 l 793 1274 l 519 1051 l 311 1051 l 494 1274 z "},"Ṥ":{"ha":913,"x_min":18,"x_max":894,"o":"m 442 -22 q 206 5 321 -22 q 18 78 92 32 l 124 317 q 279 252 193 276 q 444 228 365 228 q 542 241 513 228 q 571 281 571 254 q 533 326 571 311 q 407 360 494 342 q 219 410 294 383 q 89 499 144 438 q 33 667 33 561 q 85 833 33 758 q 238 951 136 908 q 486 994 340 994 q 683 973 586 994 q 853 910 779 951 l 754 672 q 483 744 611 744 q 357 683 357 744 q 394 640 357 654 q 518 608 432 625 q 706 560 629 588 q 838 472 782 533 q 894 306 894 411 q 843 140 894 214 q 690 22 792 65 q 442 -22 588 -22 m 453 1232 l 751 1232 l 519 1051 l 311 1051 l 453 1232 m 457 1292 q 367 1325 403 1292 q 332 1413 332 1358 q 367 1501 332 1467 q 457 1536 403 1536 q 547 1501 511 1536 q 582 1413 582 1467 q 547 1325 582 1358 q 457 1292 511 1292 z "},"Ꞌ":{"ha":475,"x_min":76,"x_max":399,"o":"m 76 974 l 399 974 l 357 411 l 76 411 l 76 974 z "},"Š":{"ha":913,"x_min":18,"x_max":894,"o":"m 442 -22 q 206 5 321 -22 q 18 78 92 32 l 124 317 q 279 252 193 276 q 444 228 365 228 q 542 241 513 228 q 571 281 571 254 q 533 326 571 311 q 407 360 494 342 q 219 410 294 383 q 89 499 144 438 q 33 667 33 561 q 85 833 33 758 q 238 951 136 908 q 486 994 340 994 q 683 973 586 994 q 853 910 779 951 l 754 672 q 483 744 611 744 q 357 683 357 744 q 394 640 357 654 q 518 608 432 625 q 706 560 629 588 q 838 472 782 533 q 894 306 894 411 q 843 140 894 214 q 690 22 792 65 q 442 -22 588 -22 m 768 1274 l 590 1051 l 324 1051 l 146 1274 l 340 1274 l 457 1167 l 574 1274 l 768 1274 z "},"Ṧ":{"ha":913,"x_min":18,"x_max":894,"o":"m 442 -22 q 206 5 321 -22 q 18 78 92 32 l 124 317 q 279 252 193 276 q 444 228 365 228 q 542 241 513 228 q 571 281 571 254 q 533 326 571 311 q 407 360 494 342 q 219 410 294 383 q 89 499 144 438 q 33 667 33 561 q 85 833 33 758 q 238 951 136 908 q 486 994 340 994 q 683 973 586 994 q 853 910 779 951 l 754 672 q 483 744 611 744 q 357 683 357 744 q 394 640 357 654 q 518 608 432 625 q 706 560 629 588 q 838 472 782 533 q 894 306 894 411 q 843 140 894 214 q 690 22 792 65 q 442 -22 588 -22 m 768 1232 l 589 1051 l 325 1051 l 146 1232 l 340 1232 l 457 1147 l 574 1232 l 768 1232 m 457 1260 q 367 1293 403 1260 q 332 1381 332 1326 q 367 1469 332 1435 q 457 1504 403 1504 q 547 1469 511 1504 q 582 1381 582 1435 q 547 1293 582 1326 q 457 1260 511 1260 z "},"Ş":{"ha":913,"x_min":18,"x_max":894,"o":"m 442 -22 q 206 5 321 -22 q 18 78 92 32 l 124 317 q 279 252 193 276 q 444 228 365 228 q 542 241 513 228 q 571 281 571 254 q 533 326 571 311 q 407 360 494 342 q 219 410 294 383 q 89 499 144 438 q 33 667 33 561 q 85 833 33 758 q 238 951 136 908 q 486 994 340 994 q 683 973 586 994 q 853 910 779 951 l 754 672 q 483 744 611 744 q 357 683 357 744 q 394 640 357 654 q 518 608 432 625 q 706 560 629 588 q 838 472 782 533 q 894 306 894 411 q 843 140 894 214 q 690 22 792 65 q 442 -22 588 -22 m 400 -333 q 325 -325 364 -333 q 264 -304 286 -317 l 303 -189 q 386 -206 344 -206 q 453 -172 453 -206 q 396 -144 453 -144 l 339 -144 l 376 14 l 538 14 l 518 -72 q 608 -112 579 -81 q 636 -183 636 -143 q 572 -293 636 -253 q 400 -333 507 -333 z "},"Ŝ":{"ha":913,"x_min":18,"x_max":894,"o":"m 442 -22 q 206 5 321 -22 q 18 78 92 32 l 124 317 q 279 252 193 276 q 444 228 365 228 q 542 241 513 228 q 571 281 571 254 q 533 326 571 311 q 407 360 494 342 q 219 410 294 383 q 89 499 144 438 q 33 667 33 561 q 85 833 33 758 q 238 951 136 908 q 486 994 340 994 q 683 973 586 994 q 853 910 779 951 l 754 672 q 483 744 611 744 q 357 683 357 744 q 394 640 357 654 q 518 608 432 625 q 706 560 629 588 q 838 472 782 533 q 894 306 894 411 q 843 140 894 214 q 690 22 792 65 q 442 -22 588 -22 m 574 1051 l 457 1158 l 340 1051 l 146 1051 l 324 1274 l 590 1274 l 768 1051 l 574 1051 z "},"Ș":{"ha":913,"x_min":18,"x_max":894,"o":"m 442 -22 q 206 5 321 -22 q 18 78 92 32 l 124 317 q 279 252 193 276 q 444 228 365 228 q 542 241 513 228 q 571 281 571 254 q 533 326 571 311 q 407 360 494 342 q 219 410 294 383 q 89 499 144 438 q 33 667 33 561 q 85 833 33 758 q 238 951 136 908 q 486 994 340 994 q 683 973 586 994 q 853 910 779 951 l 754 672 q 483 744 611 744 q 357 683 357 744 q 394 640 357 654 q 518 608 432 625 q 706 560 629 588 q 838 472 782 533 q 894 306 894 411 q 843 140 894 214 q 690 22 792 65 q 442 -22 588 -22 m 457 -69 q 549 -98 515 -69 q 582 -174 582 -126 q 547 -285 582 -225 l 493 -375 l 356 -375 l 392 -265 q 332 -174 332 -243 q 365 -98 332 -126 q 457 -69 399 -69 z "},"Ṡ":{"ha":913,"x_min":18,"x_max":894,"o":"m 442 -22 q 206 5 321 -22 q 18 78 92 32 l 124 317 q 279 252 193 276 q 444 228 365 228 q 542 241 513 228 q 571 281 571 254 q 533 326 571 311 q 407 360 494 342 q 219 410 294 383 q 89 499 144 438 q 33 667 33 561 q 85 833 33 758 q 238 951 136 908 q 486 994 340 994 q 683 973 586 994 q 853 910 779 951 l 754 672 q 483 744 611 744 q 357 683 357 744 q 394 640 357 654 q 518 608 432 625 q 706 560 629 588 q 838 472 782 533 q 894 306 894 411 q 843 140 894 214 q 690 22 792 65 q 442 -22 588 -22 m 457 1038 q 343 1082 388 1038 q 299 1196 299 1126 q 343 1310 299 1265 q 457 1354 388 1354 q 571 1310 526 1354 q 615 1196 615 1265 q 571 1082 615 1126 q 457 1038 526 1038 z "},"Ṣ":{"ha":913,"x_min":18,"x_max":894,"o":"m 442 -22 q 206 5 321 -22 q 18 78 92 32 l 124 317 q 279 252 193 276 q 444 228 365 228 q 542 241 513 228 q 571 281 571 254 q 533 326 571 311 q 407 360 494 342 q 219 410 294 383 q 89 499 144 438 q 33 667 33 561 q 85 833 33 758 q 238 951 136 908 q 486 994 340 994 q 683 973 586 994 q 853 910 779 951 l 754 672 q 483 744 611 744 q 357 683 357 744 q 394 640 357 654 q 518 608 432 625 q 706 560 629 588 q 838 472 782 533 q 894 306 894 411 q 843 140 894 214 q 690 22 792 65 q 442 -22 588 -22 m 457 -314 q 367 -281 403 -314 q 332 -193 332 -247 q 367 -104 332 -139 q 457 -69 403 -69 q 547 -104 511 -69 q 582 -193 582 -139 q 547 -281 582 -247 q 457 -314 511 -314 z "},"Ṩ":{"ha":913,"x_min":18,"x_max":894,"o":"m 442 -22 q 206 5 321 -22 q 18 78 92 32 l 124 317 q 279 252 193 276 q 444 228 365 228 q 542 241 513 228 q 571 281 571 254 q 533 326 571 311 q 407 360 494 342 q 219 410 294 383 q 89 499 144 438 q 33 667 33 561 q 85 833 33 758 q 238 951 136 908 q 486 994 340 994 q 683 973 586 994 q 853 910 779 951 l 754 672 q 483 744 611 744 q 357 683 357 744 q 394 640 357 654 q 518 608 432 625 q 706 560 629 588 q 838 472 782 533 q 894 306 894 411 q 843 140 894 214 q 690 22 792 65 q 442 -22 588 -22 m 457 -314 q 367 -281 403 -314 q 332 -193 332 -247 q 367 -104 332 -139 q 457 -69 403 -69 q 547 -104 511 -69 q 582 -193 582 -139 q 547 -281 582 -247 q 457 -314 511 -314 m 457 1038 q 343 1082 388 1038 q 299 1196 299 1126 q 343 1310 299 1265 q 457 1354 388 1354 q 571 1310 526 1354 q 615 1196 615 1265 q 571 1082 615 1126 q 457 1038 526 1038 z "},"ẞ":{"ha":1108,"x_min":71,"x_max":1072,"o":"m 856 582 q 1013 472 953 547 q 1072 293 1072 397 q 1021 126 1072 197 q 881 16 969 54 q 686 -22 793 -22 q 468 10 556 -22 l 513 254 q 570 235 538 243 q 631 228 603 228 q 742 307 742 228 q 635 386 742 386 q 549 372 588 386 l 493 504 l 692 736 q 603 744 650 744 q 450 686 501 744 q 399 519 399 628 l 399 0 l 71 0 l 71 526 q 133 776 71 671 q 313 938 194 881 q 599 994 432 994 q 798 969 694 994 q 969 903 901 944 l 969 715 l 856 582 z "},"Ə":{"ha":1136,"x_min":40,"x_max":1096,"o":"m 540 994 q 828 930 701 994 q 1025 749 954 865 q 1096 486 1096 633 q 1028 222 1096 338 q 840 42 960 107 q 568 -22 719 -22 q 293 42 413 -22 q 107 226 174 107 q 40 500 40 344 l 40 553 l 760 553 q 685 681 744 633 q 538 729 625 729 q 404 698 476 729 q 289 615 332 667 l 96 814 q 289 943 167 892 q 540 994 411 994 m 568 218 q 699 258 650 218 q 760 372 747 299 l 376 372 q 438 258 389 299 q 568 218 486 218 z "},"T":{"ha":908,"x_min":6,"x_max":903,"o":"m 290 718 l 6 718 l 6 972 l 903 972 l 903 718 l 618 718 l 618 0 l 290 0 l 290 718 z "},"Ŧ":{"ha":908,"x_min":6,"x_max":903,"o":"m 290 718 l 6 718 l 6 972 l 903 972 l 903 718 l 618 718 l 618 0 l 290 0 l 290 718 m 128 532 l 781 532 l 781 343 l 128 343 l 128 532 z "},"Ť":{"ha":908,"x_min":6,"x_max":903,"o":"m 290 718 l 6 718 l 6 972 l 903 972 l 903 718 l 618 718 l 618 0 l 290 0 l 290 718 m 765 1274 l 588 1051 l 321 1051 l 143 1274 l 338 1274 l 454 1167 l 571 1274 l 765 1274 z "},"Ţ":{"ha":908,"x_min":6,"x_max":903,"o":"m 290 718 l 6 718 l 6 972 l 903 972 l 903 718 l 618 718 l 618 0 l 290 0 l 290 718 m 397 -333 q 322 -325 361 -333 q 261 -304 283 -317 l 300 -189 q 383 -206 342 -206 q 450 -172 450 -206 q 393 -144 450 -144 l 336 -144 l 374 14 l 535 14 l 515 -72 q 605 -112 576 -81 q 633 -183 633 -143 q 569 -293 633 -253 q 397 -333 504 -333 z "},"Ț":{"ha":908,"x_min":6,"x_max":903,"o":"m 290 718 l 6 718 l 6 972 l 903 972 l 903 718 l 618 718 l 618 0 l 290 0 l 290 718 m 454 -69 q 546 -98 513 -69 q 579 -174 579 -126 q 544 -285 579 -225 l 490 -375 l 353 -375 l 389 -265 q 329 -174 329 -243 q 363 -98 329 -126 q 454 -69 396 -69 z "},"Ṭ":{"ha":908,"x_min":6,"x_max":903,"o":"m 290 718 l 6 718 l 6 972 l 903 972 l 903 718 l 618 718 l 618 0 l 290 0 l 290 718 m 454 -314 q 365 -281 400 -314 q 329 -193 329 -247 q 365 -104 329 -139 q 454 -69 400 -69 q 544 -104 508 -69 q 579 -193 579 -139 q 544 -281 579 -247 q 454 -314 508 -314 z "},"Ṯ":{"ha":908,"x_min":6,"x_max":903,"o":"m 290 718 l 6 718 l 6 972 l 903 972 l 903 718 l 618 718 l 618 0 l 290 0 l 290 718 m 163 -103 l 746 -103 l 746 -267 l 163 -267 l 163 -103 z "},"U":{"ha":1089,"x_min":71,"x_max":1018,"o":"m 544 -22 q 196 99 321 -22 q 71 438 71 219 l 71 972 l 399 972 l 399 447 q 437 292 399 340 q 547 243 475 243 q 658 292 619 243 q 696 447 696 340 l 696 972 l 1018 972 l 1018 438 q 893 99 1018 219 q 544 -22 768 -22 z "},"Ú":{"ha":1089,"x_min":71,"x_max":1018,"o":"m 544 -22 q 196 99 321 -22 q 71 438 71 219 l 71 972 l 399 972 l 399 447 q 437 292 399 340 q 547 243 475 243 q 658 292 619 243 q 696 447 696 340 l 696 972 l 1018 972 l 1018 438 q 893 99 1018 219 q 544 -22 768 -22 m 585 1274 l 883 1274 l 610 1051 l 401 1051 l 585 1274 z "},"Ŭ":{"ha":1089,"x_min":71,"x_max":1018,"o":"m 544 -22 q 196 99 321 -22 q 71 438 71 219 l 71 972 l 399 972 l 399 447 q 437 292 399 340 q 547 243 475 243 q 658 292 619 243 q 696 447 696 340 l 696 972 l 1018 972 l 1018 438 q 893 99 1018 219 q 544 -22 768 -22 m 547 1038 q 342 1101 421 1038 q 257 1274 263 1165 l 444 1274 q 476 1212 447 1235 q 547 1189 504 1189 q 619 1212 590 1189 q 650 1274 647 1235 l 838 1274 q 753 1101 832 1165 q 547 1038 674 1038 z "},"Ǔ":{"ha":1089,"x_min":71,"x_max":1018,"o":"m 544 -22 q 196 99 321 -22 q 71 438 71 219 l 71 972 l 399 972 l 399 447 q 437 292 399 340 q 547 243 475 243 q 658 292 619 243 q 696 447 696 340 l 696 972 l 1018 972 l 1018 438 q 893 99 1018 219 q 544 -22 768 -22 m 858 1274 l 681 1051 l 414 1051 l 236 1274 l 431 1274 l 547 1167 l 664 1274 l 858 1274 z "},"Û":{"ha":1089,"x_min":71,"x_max":1018,"o":"m 544 -22 q 196 99 321 -22 q 71 438 71 219 l 71 972 l 399 972 l 399 447 q 437 292 399 340 q 547 243 475 243 q 658 292 619 243 q 696 447 696 340 l 696 972 l 1018 972 l 1018 438 q 893 99 1018 219 q 544 -22 768 -22 m 664 1051 l 547 1158 l 431 1051 l 236 1051 l 414 1274 l 681 1274 l 858 1051 l 664 1051 z "},"Ȕ":{"ha":1089,"x_min":71,"x_max":1018,"o":"m 544 -22 q 196 99 321 -22 q 71 438 71 219 l 71 972 l 399 972 l 399 447 q 437 292 399 340 q 547 243 475 243 q 658 292 619 243 q 696 447 696 340 l 696 972 l 1018 972 l 1018 438 q 893 99 1018 219 q 544 -22 768 -22 m 146 1274 l 417 1274 l 489 1051 l 281 1051 l 146 1274 m 471 1274 l 742 1274 l 814 1051 l 606 1051 l 471 1274 z "},"Ü":{"ha":1089,"x_min":71,"x_max":1018,"o":"m 544 -22 q 196 99 321 -22 q 71 438 71 219 l 71 972 l 399 972 l 399 447 q 437 292 399 340 q 547 243 475 243 q 658 292 619 243 q 696 447 696 340 l 696 972 l 1018 972 l 1018 438 q 893 99 1018 219 q 544 -22 768 -22 m 393 1040 q 303 1074 339 1040 q 268 1163 268 1108 q 303 1251 268 1217 q 393 1286 339 1286 q 483 1251 447 1286 q 518 1163 518 1217 q 483 1074 518 1108 q 393 1040 447 1040 m 701 1040 q 612 1074 647 1040 q 576 1163 576 1108 q 612 1251 576 1217 q 701 1286 647 1286 q 791 1251 756 1286 q 826 1163 826 1217 q 791 1074 826 1108 q 701 1040 756 1040 z "},"Ụ":{"ha":1089,"x_min":71,"x_max":1018,"o":"m 544 -22 q 196 99 321 -22 q 71 438 71 219 l 71 972 l 399 972 l 399 447 q 437 292 399 340 q 547 243 475 243 q 658 292 619 243 q 696 447 696 340 l 696 972 l 1018 972 l 1018 438 q 893 99 1018 219 q 544 -22 768 -22 m 547 -314 q 458 -281 493 -314 q 422 -193 422 -247 q 458 -104 422 -139 q 547 -69 493 -69 q 637 -104 601 -69 q 672 -193 672 -139 q 637 -281 672 -247 q 547 -314 601 -314 z "},"Ù":{"ha":1089,"x_min":71,"x_max":1018,"o":"m 544 -22 q 196 99 321 -22 q 71 438 71 219 l 71 972 l 399 972 l 399 447 q 437 292 399 340 q 547 243 475 243 q 658 292 619 243 q 696 447 696 340 l 696 972 l 1018 972 l 1018 438 q 893 99 1018 219 q 544 -22 768 -22 m 211 1274 l 510 1274 l 693 1051 l 485 1051 l 211 1274 z "},"Ủ":{"ha":1089,"x_min":71,"x_max":1018,"o":"m 544 -22 q 196 99 321 -22 q 71 438 71 219 l 71 972 l 399 972 l 399 447 q 437 292 399 340 q 547 243 475 243 q 658 292 619 243 q 696 447 696 340 l 696 972 l 1018 972 l 1018 438 q 893 99 1018 219 q 544 -22 768 -22 m 513 1128 q 563 1163 549 1144 q 576 1203 576 1182 q 560 1242 576 1228 q 518 1256 544 1256 q 439 1228 479 1256 l 375 1344 q 554 1400 447 1400 q 696 1353 642 1400 q 750 1229 750 1306 q 714 1116 750 1163 q 607 1038 678 1069 l 513 1128 z "},"Ư":{"ha":1117,"x_min":71,"x_max":1181,"o":"m 544 -22 q 196 99 321 -22 q 71 438 71 219 l 71 972 l 399 972 l 399 447 q 437 292 399 340 q 547 243 475 243 q 658 292 619 243 q 696 447 696 340 l 696 972 l 1018 972 l 1018 438 q 893 99 1018 219 q 544 -22 768 -22 m 847 972 l 903 972 q 956 996 933 972 q 979 1057 979 1019 q 951 1136 979 1104 l 1129 1199 q 1181 1044 1181 1133 q 1104 849 1181 918 q 889 781 1028 781 l 847 781 l 847 972 z "},"Ứ":{"ha":1117,"x_min":71,"x_max":1181,"o":"m 544 -22 q 196 99 321 -22 q 71 438 71 219 l 71 972 l 399 972 l 399 447 q 437 292 399 340 q 547 243 475 243 q 658 292 619 243 q 696 447 696 340 l 696 972 l 1018 972 l 1018 438 q 893 99 1018 219 q 544 -22 768 -22 m 847 972 l 903 972 q 956 996 933 972 q 979 1057 979 1019 q 951 1136 979 1104 l 1129 1199 q 1181 1044 1181 1133 q 1104 849 1181 918 q 889 781 1028 781 l 847 781 l 847 972 m 585 1274 l 883 1274 l 610 1051 l 401 1051 l 585 1274 z "},"Ự":{"ha":1117,"x_min":71,"x_max":1181,"o":"m 544 -22 q 196 99 321 -22 q 71 438 71 219 l 71 972 l 399 972 l 399 447 q 437 292 399 340 q 547 243 475 243 q 658 292 619 243 q 696 447 696 340 l 696 972 l 1018 972 l 1018 438 q 893 99 1018 219 q 544 -22 768 -22 m 847 972 l 903 972 q 956 996 933 972 q 979 1057 979 1019 q 951 1136 979 1104 l 1129 1199 q 1181 1044 1181 1133 q 1104 849 1181 918 q 889 781 1028 781 l 847 781 l 847 972 m 547 -314 q 458 -281 493 -314 q 422 -193 422 -247 q 458 -104 422 -139 q 547 -69 493 -69 q 637 -104 601 -69 q 672 -193 672 -139 q 637 -281 672 -247 q 547 -314 601 -314 z "},"Ừ":{"ha":1117,"x_min":71,"x_max":1181,"o":"m 544 -22 q 196 99 321 -22 q 71 438 71 219 l 71 972 l 399 972 l 399 447 q 437 292 399 340 q 547 243 475 243 q 658 292 619 243 q 696 447 696 340 l 696 972 l 1018 972 l 1018 438 q 893 99 1018 219 q 544 -22 768 -22 m 847 972 l 903 972 q 956 996 933 972 q 979 1057 979 1019 q 951 1136 979 1104 l 1129 1199 q 1181 1044 1181 1133 q 1104 849 1181 918 q 889 781 1028 781 l 847 781 l 847 972 m 211 1274 l 510 1274 l 693 1051 l 485 1051 l 211 1274 z "},"Ử":{"ha":1117,"x_min":71,"x_max":1181,"o":"m 544 -22 q 196 99 321 -22 q 71 438 71 219 l 71 972 l 399 972 l 399 447 q 437 292 399 340 q 547 243 475 243 q 658 292 619 243 q 696 447 696 340 l 696 972 l 1018 972 l 1018 438 q 893 99 1018 219 q 544 -22 768 -22 m 847 972 l 903 972 q 956 996 933 972 q 979 1057 979 1019 q 951 1136 979 1104 l 1129 1199 q 1181 1044 1181 1133 q 1104 849 1181 918 q 889 781 1028 781 l 847 781 l 847 972 m 513 1128 q 563 1163 549 1144 q 576 1203 576 1182 q 560 1242 576 1228 q 518 1256 544 1256 q 439 1228 479 1256 l 375 1344 q 554 1400 447 1400 q 696 1353 642 1400 q 750 1229 750 1306 q 714 1116 750 1163 q 607 1038 678 1069 l 513 1128 z "},"Ữ":{"ha":1117,"x_min":71,"x_max":1181,"o":"m 544 -22 q 196 99 321 -22 q 71 438 71 219 l 71 972 l 399 972 l 399 447 q 437 292 399 340 q 547 243 475 243 q 658 292 619 243 q 696 447 696 340 l 696 972 l 1018 972 l 1018 438 q 893 99 1018 219 q 544 -22 768 -22 m 847 972 l 903 972 q 956 996 933 972 q 979 1057 979 1019 q 951 1136 979 1104 l 1129 1199 q 1181 1044 1181 1133 q 1104 849 1181 918 q 889 781 1028 781 l 847 781 l 847 972 m 660 1038 q 588 1051 619 1038 q 521 1089 556 1065 q 483 1112 497 1104 q 454 1119 468 1119 q 411 1101 428 1119 q 392 1051 394 1083 l 243 1051 q 297 1227 246 1163 q 435 1292 347 1292 q 507 1278 475 1292 q 574 1240 539 1264 q 612 1217 597 1224 q 640 1210 626 1210 q 683 1227 667 1210 q 703 1274 700 1244 l 851 1274 q 798 1102 849 1167 q 660 1038 747 1038 z "},"Ű":{"ha":1089,"x_min":71,"x_max":1018,"o":"m 544 -22 q 196 99 321 -22 q 71 438 71 219 l 71 972 l 399 972 l 399 447 q 437 292 399 340 q 547 243 475 243 q 658 292 619 243 q 696 447 696 340 l 696 972 l 1018 972 l 1018 438 q 893 99 1018 219 q 544 -22 768 -22 m 353 1274 l 624 1274 l 489 1051 l 281 1051 l 353 1274 m 678 1274 l 949 1274 l 814 1051 l 606 1051 l 678 1274 z "},"Ȗ":{"ha":1089,"x_min":71,"x_max":1018,"o":"m 544 -22 q 196 99 321 -22 q 71 438 71 219 l 71 972 l 399 972 l 399 447 q 437 292 399 340 q 547 243 475 243 q 658 292 619 243 q 696 447 696 340 l 696 972 l 1018 972 l 1018 438 q 893 99 1018 219 q 544 -22 768 -22 m 257 1051 q 342 1224 263 1160 q 547 1288 421 1288 q 753 1224 674 1288 q 838 1051 832 1160 l 650 1051 q 619 1113 647 1090 q 547 1136 590 1136 q 476 1113 504 1136 q 444 1051 447 1090 l 257 1051 z "},"Ū":{"ha":1089,"x_min":71,"x_max":1018,"o":"m 544 -22 q 196 99 321 -22 q 71 438 71 219 l 71 972 l 399 972 l 399 447 q 437 292 399 340 q 547 243 475 243 q 658 292 619 243 q 696 447 696 340 l 696 972 l 1018 972 l 1018 438 q 893 99 1018 219 q 544 -22 768 -22 m 256 1244 l 839 1244 l 839 1081 l 256 1081 l 256 1244 z "},"Ṻ":{"ha":1089,"x_min":71,"x_max":1018,"o":"m 544 -22 q 196 99 321 -22 q 71 438 71 219 l 71 972 l 399 972 l 399 447 q 437 292 399 340 q 547 243 475 243 q 658 292 619 243 q 696 447 696 340 l 696 972 l 1018 972 l 1018 438 q 893 99 1018 219 q 544 -22 768 -22 m 256 1219 l 839 1219 l 839 1064 l 256 1064 l 256 1219 m 400 1294 q 315 1326 349 1294 q 282 1410 282 1358 q 316 1494 282 1461 q 400 1526 350 1526 q 484 1494 450 1526 q 518 1410 518 1461 q 485 1326 518 1358 q 400 1294 451 1294 m 694 1294 q 610 1326 643 1294 q 576 1410 576 1358 q 610 1494 576 1461 q 694 1526 644 1526 q 778 1494 744 1526 q 813 1410 813 1461 q 779 1326 813 1358 q 694 1294 746 1294 z "},"Ų":{"ha":1089,"x_min":71,"x_max":1018,"o":"m 1018 972 l 1018 438 q 947 165 1018 271 q 750 10 876 58 q 601 -66 644 -32 q 558 -135 558 -100 q 577 -176 558 -160 q 632 -192 596 -192 q 714 -172 672 -192 l 751 -301 q 683 -324 726 -315 q 594 -333 639 -333 q 433 -287 492 -333 q 375 -162 375 -242 q 447 -15 375 -79 q 169 127 267 10 q 71 438 71 244 l 71 972 l 399 972 l 399 447 q 437 292 399 340 q 547 243 475 243 q 658 292 619 243 q 696 447 696 340 l 696 972 l 1018 972 z "},"Ů":{"ha":1089,"x_min":71,"x_max":1018,"o":"m 544 -22 q 196 99 321 -22 q 71 438 71 219 l 71 972 l 399 972 l 399 447 q 437 292 399 340 q 547 243 475 243 q 658 292 619 243 q 696 447 696 340 l 696 972 l 1018 972 l 1018 438 q 893 99 1018 219 q 544 -22 768 -22 m 547 1032 q 449 1057 493 1032 q 378 1124 404 1082 q 353 1218 353 1167 q 378 1312 353 1269 q 449 1379 404 1354 q 547 1404 493 1404 q 646 1379 601 1404 q 716 1312 690 1354 q 742 1218 742 1269 q 716 1124 742 1167 q 646 1057 690 1082 q 547 1032 601 1032 m 547 1143 q 601 1164 579 1143 q 622 1218 622 1185 q 601 1272 622 1251 q 547 1293 579 1293 q 494 1272 515 1293 q 472 1218 472 1251 q 494 1164 472 1185 q 547 1143 515 1143 z "},"Ũ":{"ha":1089,"x_min":71,"x_max":1018,"o":"m 544 -22 q 196 99 321 -22 q 71 438 71 219 l 71 972 l 399 972 l 399 447 q 437 292 399 340 q 547 243 475 243 q 658 292 619 243 q 696 447 696 340 l 696 972 l 1018 972 l 1018 438 q 893 99 1018 219 q 544 -22 768 -22 m 660 1038 q 588 1051 619 1038 q 521 1089 556 1065 q 483 1112 497 1104 q 454 1119 468 1119 q 411 1101 428 1119 q 392 1051 394 1083 l 243 1051 q 297 1227 246 1163 q 435 1292 347 1292 q 507 1278 475 1292 q 574 1240 539 1264 q 612 1217 597 1224 q 640 1210 626 1210 q 683 1227 667 1210 q 703 1274 700 1244 l 851 1274 q 798 1102 849 1167 q 660 1038 747 1038 z "},"Ṹ":{"ha":1089,"x_min":71,"x_max":1018,"o":"m 544 -22 q 196 99 321 -22 q 71 438 71 219 l 71 972 l 399 972 l 399 447 q 437 292 399 340 q 547 243 475 243 q 658 292 619 243 q 696 447 696 340 l 696 972 l 1018 972 l 1018 438 q 893 99 1018 219 q 544 -22 768 -22 m 653 1038 q 581 1050 613 1038 q 514 1085 549 1063 q 485 1101 499 1094 q 461 1107 471 1107 q 422 1091 438 1107 q 403 1050 406 1075 l 250 1050 q 301 1203 250 1149 q 442 1257 351 1257 q 513 1244 482 1257 q 581 1211 544 1232 q 611 1194 596 1201 q 636 1188 626 1188 q 677 1204 661 1188 q 696 1244 693 1221 l 844 1244 q 795 1092 844 1147 q 653 1038 746 1038 m 543 1486 l 842 1486 l 610 1306 l 401 1306 l 543 1486 z "},"V":{"ha":1092,"x_min":-26,"x_max":1118,"o":"m 1118 972 l 707 0 l 385 0 l -26 972 l 326 972 l 558 404 l 796 972 l 1118 972 z "},"W":{"ha":1675,"x_min":14,"x_max":1661,"o":"m 1661 972 l 1350 0 l 999 0 l 842 519 l 676 0 l 325 0 l 14 972 l 351 972 l 521 419 l 700 972 l 1001 972 l 1171 413 l 1350 972 l 1661 972 z "},"Ẃ":{"ha":1675,"x_min":14,"x_max":1661,"o":"m 1661 972 l 1350 0 l 999 0 l 842 519 l 676 0 l 325 0 l 14 972 l 351 972 l 521 419 l 700 972 l 1001 972 l 1171 413 l 1350 972 l 1661 972 m 875 1274 l 1174 1274 l 900 1051 l 692 1051 l 875 1274 z "},"Ŵ":{"ha":1675,"x_min":14,"x_max":1661,"o":"m 1661 972 l 1350 0 l 999 0 l 842 519 l 676 0 l 325 0 l 14 972 l 351 972 l 521 419 l 700 972 l 1001 972 l 1171 413 l 1350 972 l 1661 972 m 954 1051 l 838 1158 l 721 1051 l 526 1051 l 704 1274 l 971 1274 l 1149 1051 l 954 1051 z "},"Ẅ":{"ha":1675,"x_min":14,"x_max":1661,"o":"m 1661 972 l 1350 0 l 999 0 l 842 519 l 676 0 l 325 0 l 14 972 l 351 972 l 521 419 l 700 972 l 1001 972 l 1171 413 l 1350 972 l 1661 972 m 683 1040 q 594 1074 629 1040 q 558 1163 558 1108 q 594 1251 558 1217 q 683 1286 629 1286 q 773 1251 738 1286 q 808 1163 808 1217 q 773 1074 808 1108 q 683 1040 738 1040 m 992 1040 q 902 1074 938 1040 q 867 1163 867 1108 q 902 1251 867 1217 q 992 1286 938 1286 q 1081 1251 1046 1286 q 1117 1163 1117 1217 q 1081 1074 1117 1108 q 992 1040 1046 1040 z "},"Ẁ":{"ha":1675,"x_min":14,"x_max":1661,"o":"m 1661 972 l 1350 0 l 999 0 l 842 519 l 676 0 l 325 0 l 14 972 l 351 972 l 521 419 l 700 972 l 1001 972 l 1171 413 l 1350 972 l 1661 972 m 501 1274 l 800 1274 l 983 1051 l 775 1051 l 501 1274 z "},"X":{"ha":1058,"x_min":-11,"x_max":1069,"o":"m 694 0 l 526 260 l 363 0 l -11 0 l 340 490 l 1 972 l 369 972 l 535 728 l 696 972 l 1049 972 l 711 503 l 1069 0 l 694 0 z "},"Y":{"ha":986,"x_min":-37,"x_max":1024,"o":"m 657 353 l 657 0 l 329 0 l 329 357 l -37 972 l 308 972 l 507 636 l 707 972 l 1024 972 l 657 353 z "},"Ý":{"ha":986,"x_min":-37,"x_max":1024,"o":"m 657 353 l 657 0 l 329 0 l 329 357 l -37 972 l 308 972 l 507 636 l 707 972 l 1024 972 l 657 353 m 531 1274 l 829 1274 l 556 1051 l 347 1051 l 531 1274 z "},"Ŷ":{"ha":986,"x_min":-37,"x_max":1024,"o":"m 657 353 l 657 0 l 329 0 l 329 357 l -37 972 l 308 972 l 507 636 l 707 972 l 1024 972 l 657 353 m 610 1051 l 493 1158 l 376 1051 l 182 1051 l 360 1274 l 626 1274 l 804 1051 l 610 1051 z "},"Ÿ":{"ha":986,"x_min":-37,"x_max":1024,"o":"m 657 353 l 657 0 l 329 0 l 329 357 l -37 972 l 308 972 l 507 636 l 707 972 l 1024 972 l 657 353 m 339 1040 q 249 1074 285 1040 q 214 1163 214 1108 q 249 1251 214 1217 q 339 1286 285 1286 q 428 1251 393 1286 q 464 1163 464 1217 q 428 1074 464 1108 q 339 1040 393 1040 m 647 1040 q 558 1074 593 1040 q 522 1163 522 1108 q 558 1251 522 1217 q 647 1286 593 1286 q 737 1251 701 1286 q 772 1163 772 1217 q 737 1074 772 1108 q 647 1040 701 1040 z "},"Ẏ":{"ha":986,"x_min":-37,"x_max":1024,"o":"m 657 353 l 657 0 l 329 0 l 329 357 l -37 972 l 308 972 l 507 636 l 707 972 l 1024 972 l 657 353 m 493 1038 q 379 1082 424 1038 q 335 1196 335 1126 q 379 1310 335 1265 q 493 1354 424 1354 q 607 1310 563 1354 q 651 1196 651 1265 q 607 1082 651 1126 q 493 1038 563 1038 z "},"Ỵ":{"ha":986,"x_min":-37,"x_max":1024,"o":"m 657 353 l 657 0 l 329 0 l 329 357 l -37 972 l 308 972 l 507 636 l 707 972 l 1024 972 l 657 353 m 493 -314 q 403 -281 439 -314 q 368 -193 368 -247 q 403 -104 368 -139 q 493 -69 439 -69 q 583 -104 547 -69 q 618 -193 618 -139 q 583 -281 618 -247 q 493 -314 547 -314 z "},"Ỳ":{"ha":986,"x_min":-37,"x_max":1024,"o":"m 657 353 l 657 0 l 329 0 l 329 357 l -37 972 l 308 972 l 507 636 l 707 972 l 1024 972 l 657 353 m 157 1274 l 456 1274 l 639 1051 l 431 1051 l 157 1274 z "},"Ỷ":{"ha":986,"x_min":-37,"x_max":1024,"o":"m 657 353 l 657 0 l 329 0 l 329 357 l -37 972 l 308 972 l 507 636 l 707 972 l 1024 972 l 657 353 m 458 1128 q 508 1163 494 1144 q 522 1203 522 1182 q 506 1242 522 1228 q 464 1256 490 1256 q 385 1228 425 1256 l 321 1344 q 500 1400 393 1400 q 642 1353 588 1400 q 696 1229 696 1306 q 660 1116 696 1163 q 553 1038 624 1069 l 458 1128 z "},"Ȳ":{"ha":986,"x_min":-37,"x_max":1024,"o":"m 657 353 l 657 0 l 329 0 l 329 357 l -37 972 l 308 972 l 507 636 l 707 972 l 1024 972 l 657 353 m 201 1244 l 785 1244 l 785 1081 l 201 1081 l 201 1244 z "},"Ỹ":{"ha":986,"x_min":-37,"x_max":1024,"o":"m 657 353 l 657 0 l 329 0 l 329 357 l -37 972 l 308 972 l 507 636 l 707 972 l 1024 972 l 657 353 m 606 1038 q 533 1051 565 1038 q 467 1089 501 1065 q 428 1112 443 1104 q 400 1119 414 1119 q 357 1101 374 1119 q 338 1051 340 1083 l 189 1051 q 242 1227 192 1163 q 381 1292 293 1292 q 453 1278 421 1292 q 519 1240 485 1264 q 558 1217 543 1224 q 586 1210 572 1210 q 629 1227 613 1210 q 649 1274 646 1244 l 797 1274 q 744 1102 794 1167 q 606 1038 693 1038 z "},"Z":{"ha":954,"x_min":44,"x_max":938,"o":"m 938 254 l 938 0 l 44 0 l 44 201 l 489 718 l 58 718 l 58 972 l 915 972 l 915 771 l 471 254 l 938 254 z "},"Ź":{"ha":954,"x_min":44,"x_max":938,"o":"m 938 254 l 938 0 l 44 0 l 44 201 l 489 718 l 58 718 l 58 972 l 915 972 l 915 771 l 471 254 l 938 254 m 529 1274 l 828 1274 l 554 1051 l 346 1051 l 529 1274 z "},"Ž":{"ha":954,"x_min":44,"x_max":938,"o":"m 938 254 l 938 0 l 44 0 l 44 201 l 489 718 l 58 718 l 58 972 l 915 972 l 915 771 l 471 254 l 938 254 m 803 1274 l 625 1051 l 358 1051 l 181 1274 l 375 1274 l 492 1167 l 608 1274 l 803 1274 z "},"Ż":{"ha":954,"x_min":44,"x_max":938,"o":"m 938 254 l 938 0 l 44 0 l 44 201 l 489 718 l 58 718 l 58 972 l 915 972 l 915 771 l 471 254 l 938 254 m 492 1038 q 378 1082 422 1038 q 333 1196 333 1126 q 378 1310 333 1265 q 492 1354 422 1354 q 606 1310 561 1354 q 650 1196 650 1265 q 606 1082 650 1126 q 492 1038 561 1038 z "},"Ẓ":{"ha":954,"x_min":44,"x_max":938,"o":"m 938 254 l 938 0 l 44 0 l 44 201 l 489 718 l 58 718 l 58 972 l 915 972 l 915 771 l 471 254 l 938 254 m 492 -314 q 402 -281 438 -314 q 367 -193 367 -247 q 402 -104 367 -139 q 492 -69 438 -69 q 581 -104 546 -69 q 617 -193 617 -139 q 581 -281 617 -247 q 492 -314 546 -314 z "},"a":{"ha":888,"x_min":32,"x_max":821,"o":"m 410 774 q 715 684 610 774 q 821 408 821 594 l 821 0 l 529 0 l 529 100 q 314 -14 475 -14 q 160 17 224 -14 q 65 102 97 49 q 32 222 32 156 q 118 393 32 335 q 379 451 204 451 l 506 451 q 363 540 490 540 q 258 524 311 540 q 168 481 206 508 l 68 688 q 226 751 133 728 q 410 774 318 774 m 408 175 q 468 193 442 175 q 507 247 494 211 l 507 300 l 429 300 q 333 236 333 300 q 353 192 333 210 q 408 175 374 175 z "},"á":{"ha":888,"x_min":32,"x_max":821,"o":"m 410 774 q 715 684 610 774 q 821 408 821 594 l 821 0 l 529 0 l 529 100 q 314 -14 475 -14 q 160 17 224 -14 q 65 102 97 49 q 32 222 32 156 q 118 393 32 335 q 379 451 204 451 l 506 451 q 363 540 490 540 q 258 524 311 540 q 168 481 206 508 l 68 688 q 226 751 133 728 q 410 774 318 774 m 408 175 q 468 193 442 175 q 507 247 494 211 l 507 300 l 429 300 q 333 236 333 300 q 353 192 333 210 q 408 175 374 175 m 483 1065 l 782 1065 l 508 843 l 300 843 l 483 1065 z "},"ă":{"ha":888,"x_min":32,"x_max":821,"o":"m 410 774 q 715 684 610 774 q 821 408 821 594 l 821 0 l 529 0 l 529 100 q 314 -14 475 -14 q 160 17 224 -14 q 65 102 97 49 q 32 222 32 156 q 118 393 32 335 q 379 451 204 451 l 506 451 q 363 540 490 540 q 258 524 311 540 q 168 481 206 508 l 68 688 q 226 751 133 728 q 410 774 318 774 m 408 175 q 468 193 442 175 q 507 247 494 211 l 507 300 l 429 300 q 333 236 333 300 q 353 192 333 210 q 408 175 374 175 m 446 829 q 240 893 319 829 q 156 1065 161 957 l 343 1065 q 374 1003 346 1026 q 446 981 403 981 q 517 1003 489 981 q 549 1065 546 1026 l 736 1065 q 651 893 731 957 q 446 829 572 829 z "},"ắ":{"ha":888,"x_min":32,"x_max":821,"o":"m 410 774 q 715 684 610 774 q 821 408 821 594 l 821 0 l 529 0 l 529 100 q 314 -14 475 -14 q 160 17 224 -14 q 65 102 97 49 q 32 222 32 156 q 118 393 32 335 q 379 451 204 451 l 506 451 q 363 540 490 540 q 258 524 311 540 q 168 481 206 508 l 68 688 q 226 751 133 728 q 410 774 318 774 m 408 175 q 468 193 442 175 q 507 247 494 211 l 507 300 l 429 300 q 333 236 333 300 q 353 192 333 210 q 408 175 374 175 m 446 829 q 241 882 321 829 q 156 1024 161 935 l 332 1024 q 367 981 336 997 q 446 965 399 965 q 524 981 493 965 q 560 1024 556 997 l 736 1024 q 651 882 731 935 q 446 829 571 829 m 442 1257 l 740 1257 l 508 1076 l 300 1076 l 442 1257 z "},"ặ":{"ha":888,"x_min":32,"x_max":821,"o":"m 410 774 q 715 684 610 774 q 821 408 821 594 l 821 0 l 529 0 l 529 100 q 314 -14 475 -14 q 160 17 224 -14 q 65 102 97 49 q 32 222 32 156 q 118 393 32 335 q 379 451 204 451 l 506 451 q 363 540 490 540 q 258 524 311 540 q 168 481 206 508 l 68 688 q 226 751 133 728 q 410 774 318 774 m 408 175 q 468 193 442 175 q 507 247 494 211 l 507 300 l 429 300 q 333 236 333 300 q 353 192 333 210 q 408 175 374 175 m 414 -314 q 324 -281 360 -314 q 289 -193 289 -247 q 324 -104 289 -139 q 414 -69 360 -69 q 503 -104 468 -69 q 539 -193 539 -139 q 503 -281 539 -247 q 414 -314 468 -314 m 446 829 q 240 893 319 829 q 156 1065 161 957 l 343 1065 q 374 1003 346 1026 q 446 981 403 981 q 517 1003 489 981 q 549 1065 546 1026 l 736 1065 q 651 893 731 957 q 446 829 572 829 z "},"ằ":{"ha":888,"x_min":32,"x_max":821,"o":"m 410 774 q 715 684 610 774 q 821 408 821 594 l 821 0 l 529 0 l 529 100 q 314 -14 475 -14 q 160 17 224 -14 q 65 102 97 49 q 32 222 32 156 q 118 393 32 335 q 379 451 204 451 l 506 451 q 363 540 490 540 q 258 524 311 540 q 168 481 206 508 l 68 688 q 226 751 133 728 q 410 774 318 774 m 408 175 q 468 193 442 175 q 507 247 494 211 l 507 300 l 429 300 q 333 236 333 300 q 353 192 333 210 q 408 175 374 175 m 446 829 q 241 882 321 829 q 156 1024 161 935 l 332 1024 q 367 981 336 997 q 446 965 399 965 q 524 981 493 965 q 560 1024 556 997 l 736 1024 q 651 882 731 935 q 446 829 571 829 m 151 1257 l 450 1257 l 592 1076 l 383 1076 l 151 1257 z "},"ẳ":{"ha":888,"x_min":32,"x_max":821,"o":"m 410 774 q 715 684 610 774 q 821 408 821 594 l 821 0 l 529 0 l 529 100 q 314 -14 475 -14 q 160 17 224 -14 q 65 102 97 49 q 32 222 32 156 q 118 393 32 335 q 379 451 204 451 l 506 451 q 363 540 490 540 q 258 524 311 540 q 168 481 206 508 l 68 688 q 226 751 133 728 q 410 774 318 774 m 408 175 q 468 193 442 175 q 507 247 494 211 l 507 300 l 429 300 q 333 236 333 300 q 353 192 333 210 q 408 175 374 175 m 446 829 q 241 882 321 829 q 156 1024 161 935 l 332 1024 q 367 981 336 997 q 446 965 399 965 q 524 981 493 965 q 560 1024 556 997 l 736 1024 q 651 882 731 935 q 446 829 571 829 m 422 1097 q 469 1149 469 1122 q 458 1174 469 1164 q 429 1183 447 1183 q 365 1167 399 1183 l 318 1251 q 456 1286 374 1286 q 564 1253 524 1286 q 604 1164 604 1221 q 573 1087 604 1121 q 494 1035 542 1053 l 422 1097 z "},"ẵ":{"ha":888,"x_min":32,"x_max":821,"o":"m 410 774 q 715 684 610 774 q 821 408 821 594 l 821 0 l 529 0 l 529 100 q 314 -14 475 -14 q 160 17 224 -14 q 65 102 97 49 q 32 222 32 156 q 118 393 32 335 q 379 451 204 451 l 506 451 q 363 540 490 540 q 258 524 311 540 q 168 481 206 508 l 68 688 q 226 751 133 728 q 410 774 318 774 m 408 175 q 468 193 442 175 q 507 247 494 211 l 507 300 l 429 300 q 333 236 333 300 q 353 192 333 210 q 408 175 374 175 m 446 829 q 241 882 321 829 q 156 1024 161 935 l 332 1024 q 367 981 336 997 q 446 965 399 965 q 524 981 493 965 q 560 1024 556 997 l 736 1024 q 651 882 731 935 q 446 829 571 829 m 551 1063 q 479 1075 511 1063 q 413 1110 447 1088 q 383 1126 397 1119 q 360 1132 369 1132 q 320 1116 336 1132 q 301 1075 304 1100 l 149 1075 q 199 1228 149 1174 q 340 1282 250 1282 q 412 1269 381 1282 q 479 1236 443 1257 q 510 1219 494 1226 q 535 1213 525 1213 q 576 1229 560 1213 q 594 1269 592 1246 l 743 1269 q 694 1117 743 1172 q 551 1063 644 1063 z "},"ǎ":{"ha":888,"x_min":32,"x_max":821,"o":"m 410 774 q 715 684 610 774 q 821 408 821 594 l 821 0 l 529 0 l 529 100 q 314 -14 475 -14 q 160 17 224 -14 q 65 102 97 49 q 32 222 32 156 q 118 393 32 335 q 379 451 204 451 l 506 451 q 363 540 490 540 q 258 524 311 540 q 168 481 206 508 l 68 688 q 226 751 133 728 q 410 774 318 774 m 408 175 q 468 193 442 175 q 507 247 494 211 l 507 300 l 429 300 q 333 236 333 300 q 353 192 333 210 q 408 175 374 175 m 757 1065 l 579 843 l 313 843 l 135 1065 l 329 1065 l 446 958 l 563 1065 l 757 1065 z "},"â":{"ha":888,"x_min":32,"x_max":821,"o":"m 410 774 q 715 684 610 774 q 821 408 821 594 l 821 0 l 529 0 l 529 100 q 314 -14 475 -14 q 160 17 224 -14 q 65 102 97 49 q 32 222 32 156 q 118 393 32 335 q 379 451 204 451 l 506 451 q 363 540 490 540 q 258 524 311 540 q 168 481 206 508 l 68 688 q 226 751 133 728 q 410 774 318 774 m 408 175 q 468 193 442 175 q 507 247 494 211 l 507 300 l 429 300 q 333 236 333 300 q 353 192 333 210 q 408 175 374 175 m 563 843 l 446 950 l 329 843 l 135 843 l 313 1065 l 579 1065 l 757 843 l 563 843 z "},"ấ":{"ha":888,"x_min":32,"x_max":1088,"o":"m 410 774 q 715 684 610 774 q 821 408 821 594 l 821 0 l 529 0 l 529 100 q 314 -14 475 -14 q 160 17 224 -14 q 65 102 97 49 q 32 222 32 156 q 118 393 32 335 q 379 451 204 451 l 506 451 q 363 540 490 540 q 258 524 311 540 q 168 481 206 508 l 68 688 q 226 751 133 728 q 410 774 318 774 m 408 175 q 468 193 442 175 q 507 247 494 211 l 507 300 l 429 300 q 333 236 333 300 q 353 192 333 210 q 408 175 374 175 m 563 843 l 446 928 l 329 843 l 135 843 l 314 1024 l 578 1024 l 757 843 l 563 843 m 789 1169 l 1088 1169 l 856 989 l 647 989 l 789 1169 z "},"ậ":{"ha":888,"x_min":32,"x_max":821,"o":"m 410 774 q 715 684 610 774 q 821 408 821 594 l 821 0 l 529 0 l 529 100 q 314 -14 475 -14 q 160 17 224 -14 q 65 102 97 49 q 32 222 32 156 q 118 393 32 335 q 379 451 204 451 l 506 451 q 363 540 490 540 q 258 524 311 540 q 168 481 206 508 l 68 688 q 226 751 133 728 q 410 774 318 774 m 408 175 q 468 193 442 175 q 507 247 494 211 l 507 300 l 429 300 q 333 236 333 300 q 353 192 333 210 q 408 175 374 175 m 414 -314 q 324 -281 360 -314 q 289 -193 289 -247 q 324 -104 289 -139 q 414 -69 360 -69 q 503 -104 468 -69 q 539 -193 539 -139 q 503 -281 539 -247 q 414 -314 468 -314 m 563 843 l 446 950 l 329 843 l 135 843 l 313 1065 l 579 1065 l 757 843 l 563 843 z "},"ầ":{"ha":888,"x_min":32,"x_max":939,"o":"m 410 774 q 715 684 610 774 q 821 408 821 594 l 821 0 l 529 0 l 529 100 q 314 -14 475 -14 q 160 17 224 -14 q 65 102 97 49 q 32 222 32 156 q 118 393 32 335 q 379 451 204 451 l 506 451 q 363 540 490 540 q 258 524 311 540 q 168 481 206 508 l 68 688 q 226 751 133 728 q 410 774 318 774 m 408 175 q 468 193 442 175 q 507 247 494 211 l 507 300 l 429 300 q 333 236 333 300 q 353 192 333 210 q 408 175 374 175 m 563 843 l 446 928 l 329 843 l 135 843 l 314 1024 l 578 1024 l 757 843 l 563 843 m 499 1169 l 797 1169 l 939 989 l 731 989 l 499 1169 z "},"ẩ":{"ha":888,"x_min":32,"x_max":854,"o":"m 410 774 q 715 684 610 774 q 821 408 821 594 l 821 0 l 529 0 l 529 100 q 314 -14 475 -14 q 160 17 224 -14 q 65 102 97 49 q 32 222 32 156 q 118 393 32 335 q 379 451 204 451 l 506 451 q 363 540 490 540 q 258 524 311 540 q 168 481 206 508 l 68 688 q 226 751 133 728 q 410 774 318 774 m 408 175 q 468 193 442 175 q 507 247 494 211 l 507 300 l 429 300 q 333 236 333 300 q 353 192 333 210 q 408 175 374 175 m 563 843 l 446 928 l 329 843 l 135 843 l 314 1024 l 578 1024 l 757 843 l 563 843 m 672 1024 q 719 1075 719 1049 q 708 1100 719 1090 q 679 1110 697 1110 q 615 1093 649 1110 l 568 1178 q 706 1213 624 1213 q 814 1180 774 1213 q 854 1090 854 1147 q 823 1013 854 1047 q 744 961 792 979 l 672 1024 z "},"ẫ":{"ha":888,"x_min":32,"x_max":821,"o":"m 410 774 q 715 684 610 774 q 821 408 821 594 l 821 0 l 529 0 l 529 100 q 314 -14 475 -14 q 160 17 224 -14 q 65 102 97 49 q 32 222 32 156 q 118 393 32 335 q 379 451 204 451 l 506 451 q 363 540 490 540 q 258 524 311 540 q 168 481 206 508 l 68 688 q 226 751 133 728 q 410 774 318 774 m 408 175 q 468 193 442 175 q 507 247 494 211 l 507 300 l 429 300 q 333 236 333 300 q 353 192 333 210 q 408 175 374 175 m 563 843 l 446 928 l 329 843 l 135 843 l 314 1024 l 578 1024 l 757 843 l 563 843 m 551 1072 q 479 1085 511 1072 q 413 1119 447 1097 q 383 1135 397 1129 q 360 1142 369 1142 q 320 1126 336 1142 q 301 1085 304 1110 l 149 1085 q 199 1238 149 1183 q 340 1292 250 1292 q 412 1279 381 1292 q 479 1246 443 1267 q 510 1229 494 1236 q 535 1222 525 1222 q 576 1239 560 1222 q 594 1279 592 1256 l 743 1279 q 694 1127 743 1182 q 551 1072 644 1072 z "},"ȁ":{"ha":888,"x_min":32,"x_max":821,"o":"m 410 774 q 715 684 610 774 q 821 408 821 594 l 821 0 l 529 0 l 529 100 q 314 -14 475 -14 q 160 17 224 -14 q 65 102 97 49 q 32 222 32 156 q 118 393 32 335 q 379 451 204 451 l 506 451 q 363 540 490 540 q 258 524 311 540 q 168 481 206 508 l 68 688 q 226 751 133 728 q 410 774 318 774 m 408 175 q 468 193 442 175 q 507 247 494 211 l 507 300 l 429 300 q 333 236 333 300 q 353 192 333 210 q 408 175 374 175 m 44 1065 l 315 1065 l 388 843 l 179 843 l 44 1065 m 369 1065 l 640 1065 l 713 843 l 504 843 l 369 1065 z "},"ä":{"ha":888,"x_min":32,"x_max":821,"o":"m 410 774 q 715 684 610 774 q 821 408 821 594 l 821 0 l 529 0 l 529 100 q 314 -14 475 -14 q 160 17 224 -14 q 65 102 97 49 q 32 222 32 156 q 118 393 32 335 q 379 451 204 451 l 506 451 q 363 540 490 540 q 258 524 311 540 q 168 481 206 508 l 68 688 q 226 751 133 728 q 410 774 318 774 m 408 175 q 468 193 442 175 q 507 247 494 211 l 507 300 l 429 300 q 333 236 333 300 q 353 192 333 210 q 408 175 374 175 m 292 832 q 202 866 238 832 q 167 954 167 900 q 202 1043 167 1008 q 292 1078 238 1078 q 381 1043 346 1078 q 417 954 417 1008 q 381 866 417 900 q 292 832 346 832 m 600 832 q 510 866 546 832 q 475 954 475 900 q 510 1043 475 1008 q 600 1078 546 1078 q 690 1043 654 1078 q 725 954 725 1008 q 690 866 725 900 q 600 832 654 832 z "},"ạ":{"ha":888,"x_min":32,"x_max":821,"o":"m 410 774 q 715 684 610 774 q 821 408 821 594 l 821 0 l 529 0 l 529 100 q 314 -14 475 -14 q 160 17 224 -14 q 65 102 97 49 q 32 222 32 156 q 118 393 32 335 q 379 451 204 451 l 506 451 q 363 540 490 540 q 258 524 311 540 q 168 481 206 508 l 68 688 q 226 751 133 728 q 410 774 318 774 m 408 175 q 468 193 442 175 q 507 247 494 211 l 507 300 l 429 300 q 333 236 333 300 q 353 192 333 210 q 408 175 374 175 m 414 -314 q 324 -281 360 -314 q 289 -193 289 -247 q 324 -104 289 -139 q 414 -69 360 -69 q 503 -104 468 -69 q 539 -193 539 -139 q 503 -281 539 -247 q 414 -314 468 -314 z "},"à":{"ha":888,"x_min":32,"x_max":821,"o":"m 410 774 q 715 684 610 774 q 821 408 821 594 l 821 0 l 529 0 l 529 100 q 314 -14 475 -14 q 160 17 224 -14 q 65 102 97 49 q 32 222 32 156 q 118 393 32 335 q 379 451 204 451 l 506 451 q 363 540 490 540 q 258 524 311 540 q 168 481 206 508 l 68 688 q 226 751 133 728 q 410 774 318 774 m 408 175 q 468 193 442 175 q 507 247 494 211 l 507 300 l 429 300 q 333 236 333 300 q 353 192 333 210 q 408 175 374 175 m 110 1065 l 408 1065 l 592 843 l 383 843 l 110 1065 z "},"ả":{"ha":888,"x_min":32,"x_max":821,"o":"m 410 774 q 715 684 610 774 q 821 408 821 594 l 821 0 l 529 0 l 529 100 q 314 -14 475 -14 q 160 17 224 -14 q 65 102 97 49 q 32 222 32 156 q 118 393 32 335 q 379 451 204 451 l 506 451 q 363 540 490 540 q 258 524 311 540 q 168 481 206 508 l 68 688 q 226 751 133 728 q 410 774 318 774 m 408 175 q 468 193 442 175 q 507 247 494 211 l 507 300 l 429 300 q 333 236 333 300 q 353 192 333 210 q 408 175 374 175 m 411 919 q 461 955 447 936 q 475 994 475 974 q 459 1033 475 1019 q 417 1047 443 1047 q 338 1019 378 1047 l 274 1136 q 453 1192 346 1192 q 594 1144 540 1192 q 649 1021 649 1097 q 613 908 649 954 q 506 829 576 861 l 411 919 z "},"ȃ":{"ha":888,"x_min":32,"x_max":821,"o":"m 410 774 q 715 684 610 774 q 821 408 821 594 l 821 0 l 529 0 l 529 100 q 314 -14 475 -14 q 160 17 224 -14 q 65 102 97 49 q 32 222 32 156 q 118 393 32 335 q 379 451 204 451 l 506 451 q 363 540 490 540 q 258 524 311 540 q 168 481 206 508 l 68 688 q 226 751 133 728 q 410 774 318 774 m 408 175 q 468 193 442 175 q 507 247 494 211 l 507 300 l 429 300 q 333 236 333 300 q 353 192 333 210 q 408 175 374 175 m 156 843 q 240 1015 161 951 q 446 1079 319 1079 q 651 1015 572 1079 q 736 843 731 951 l 549 843 q 517 905 546 882 q 446 928 489 928 q 374 905 403 928 q 343 843 346 882 l 156 843 z "},"ā":{"ha":888,"x_min":32,"x_max":821,"o":"m 410 774 q 715 684 610 774 q 821 408 821 594 l 821 0 l 529 0 l 529 100 q 314 -14 475 -14 q 160 17 224 -14 q 65 102 97 49 q 32 222 32 156 q 118 393 32 335 q 379 451 204 451 l 506 451 q 363 540 490 540 q 258 524 311 540 q 168 481 206 508 l 68 688 q 226 751 133 728 q 410 774 318 774 m 408 175 q 468 193 442 175 q 507 247 494 211 l 507 300 l 429 300 q 333 236 333 300 q 353 192 333 210 q 408 175 374 175 m 154 1036 l 738 1036 l 738 872 l 154 872 l 154 1036 z "},"ą":{"ha":888,"x_min":32,"x_max":856,"o":"m 410 774 q 715 684 610 774 q 821 408 821 594 l 821 0 l 529 0 l 529 100 q 314 -14 475 -14 q 160 17 224 -14 q 65 102 97 49 q 32 222 32 156 q 118 393 32 335 q 379 451 204 451 l 506 451 q 363 540 490 540 q 258 524 311 540 q 168 481 206 508 l 68 688 q 226 751 133 728 q 410 774 318 774 m 408 175 q 468 193 442 175 q 507 247 494 211 l 507 300 l 429 300 q 333 236 333 300 q 353 192 333 210 q 408 175 374 175 m 699 -333 q 538 -287 596 -333 q 479 -162 479 -242 q 540 -26 479 -86 q 711 68 600 33 l 821 0 q 698 -70 733 -39 q 663 -135 663 -101 q 681 -176 663 -160 q 736 -192 700 -192 q 818 -172 776 -192 l 856 -301 q 787 -324 831 -315 q 699 -333 743 -333 z "},"å":{"ha":888,"x_min":32,"x_max":821,"o":"m 410 774 q 715 684 610 774 q 821 408 821 594 l 821 0 l 529 0 l 529 100 q 314 -14 475 -14 q 160 17 224 -14 q 65 102 97 49 q 32 222 32 156 q 118 393 32 335 q 379 451 204 451 l 506 451 q 363 540 490 540 q 258 524 311 540 q 168 481 206 508 l 68 688 q 226 751 133 728 q 410 774 318 774 m 408 175 q 468 193 442 175 q 507 247 494 211 l 507 300 l 429 300 q 333 236 333 300 q 353 192 333 210 q 408 175 374 175 m 446 819 q 347 844 392 819 q 277 912 303 869 q 251 1006 251 954 q 277 1099 251 1057 q 347 1167 303 1142 q 446 1192 392 1192 q 544 1167 500 1192 q 615 1099 589 1142 q 640 1006 640 1057 q 615 912 640 954 q 544 844 589 869 q 446 819 500 819 m 446 931 q 499 951 478 931 q 521 1006 521 972 q 499 1060 521 1039 q 446 1081 478 1081 q 392 1060 414 1081 q 371 1006 371 1039 q 392 951 371 972 q 446 931 414 931 z "},"ǻ":{"ha":888,"x_min":32,"x_max":821,"o":"m 410 774 q 715 684 610 774 q 821 408 821 594 l 821 0 l 529 0 l 529 100 q 314 -14 475 -14 q 160 17 224 -14 q 65 102 97 49 q 32 222 32 156 q 118 393 32 335 q 379 451 204 451 l 506 451 q 363 540 490 540 q 258 524 311 540 q 168 481 206 508 l 68 688 q 226 751 133 728 q 410 774 318 774 m 408 175 q 468 193 442 175 q 507 247 494 211 l 507 300 l 429 300 q 333 236 333 300 q 353 192 333 210 q 408 175 374 175 m 618 1093 q 640 1006 640 1051 q 615 912 640 954 q 544 844 589 869 q 446 819 500 819 q 347 844 392 819 q 277 912 303 869 q 251 1006 251 954 q 277 1099 251 1057 q 347 1167 303 1142 q 446 1192 392 1192 q 511 1182 475 1192 l 639 1317 l 790 1204 l 618 1093 m 446 931 q 499 951 478 931 q 521 1006 521 972 q 499 1060 521 1039 q 446 1081 478 1081 q 392 1060 414 1081 q 371 1006 371 1039 q 392 951 371 972 q 446 931 414 931 z "},"ã":{"ha":888,"x_min":32,"x_max":821,"o":"m 410 774 q 715 684 610 774 q 821 408 821 594 l 821 0 l 529 0 l 529 100 q 314 -14 475 -14 q 160 17 224 -14 q 65 102 97 49 q 32 222 32 156 q 118 393 32 335 q 379 451 204 451 l 506 451 q 363 540 490 540 q 258 524 311 540 q 168 481 206 508 l 68 688 q 226 751 133 728 q 410 774 318 774 m 408 175 q 468 193 442 175 q 507 247 494 211 l 507 300 l 429 300 q 333 236 333 300 q 353 192 333 210 q 408 175 374 175 m 558 829 q 486 843 518 829 q 419 881 454 857 q 381 903 396 896 q 353 911 367 911 q 310 893 326 911 q 290 843 293 875 l 142 843 q 195 1019 144 954 q 333 1083 246 1083 q 406 1069 374 1083 q 472 1032 438 1056 q 510 1008 496 1015 q 539 1001 525 1001 q 582 1019 565 1001 q 601 1065 599 1036 l 750 1065 q 697 894 747 958 q 558 829 646 829 z "},"æ":{"ha":1393,"x_min":32,"x_max":1364,"o":"m 1364 383 q 1358 304 1364 349 l 832 304 q 885 240 847 263 q 982 218 924 218 q 1064 231 1026 218 q 1142 274 1101 244 l 1306 108 q 1165 17 1249 49 q 978 -14 1082 -14 q 799 14 882 -14 q 654 100 715 42 q 535 12 604 38 q 375 -14 467 -14 q 124 53 215 -14 q 32 233 32 121 q 119 397 32 339 q 379 456 206 456 l 504 456 q 364 540 486 540 q 258 524 310 540 q 168 481 206 508 l 68 688 q 224 751 133 728 q 408 774 315 774 q 683 690 586 774 q 808 752 739 731 q 951 774 876 774 q 1156 728 1061 774 q 1307 594 1250 682 q 1364 383 1364 506 m 946 560 q 866 532 899 560 q 824 456 833 504 l 1064 456 q 1023 532 1054 504 q 946 560 992 560 m 411 175 q 482 202 457 175 q 507 278 507 229 l 507 304 l 429 304 q 333 240 333 304 q 353 192 333 210 q 411 175 374 175 z "},"ǽ":{"ha":1393,"x_min":32,"x_max":1364,"o":"m 1364 383 q 1358 304 1364 349 l 832 304 q 885 240 847 263 q 982 218 924 218 q 1064 231 1026 218 q 1142 274 1101 244 l 1306 108 q 1165 17 1249 49 q 978 -14 1082 -14 q 799 14 882 -14 q 654 100 715 42 q 535 12 604 38 q 375 -14 467 -14 q 124 53 215 -14 q 32 233 32 121 q 119 397 32 339 q 379 456 206 456 l 504 456 q 364 540 486 540 q 258 524 310 540 q 168 481 206 508 l 68 688 q 224 751 133 728 q 408 774 315 774 q 683 690 586 774 q 808 752 739 731 q 951 774 876 774 q 1156 728 1061 774 q 1307 594 1250 682 q 1364 383 1364 506 m 946 560 q 866 532 899 560 q 824 456 833 504 l 1064 456 q 1023 532 1054 504 q 946 560 992 560 m 411 175 q 482 202 457 175 q 507 278 507 229 l 507 304 l 429 304 q 333 240 333 304 q 353 192 333 210 q 411 175 374 175 m 701 1065 l 1000 1065 l 726 843 l 518 843 l 701 1065 z "},"b":{"ha":972,"x_min":69,"x_max":943,"o":"m 576 774 q 760 726 676 774 q 894 588 844 678 q 943 381 943 499 q 894 172 943 263 q 760 34 844 82 q 576 -14 676 -14 q 368 63 436 -14 l 368 0 l 69 0 l 69 1031 l 383 1031 l 383 708 q 576 774 450 774 m 501 231 q 590 270 556 231 q 625 381 625 310 q 590 490 625 451 q 501 529 556 529 q 413 490 447 529 q 378 381 378 451 q 413 270 378 310 q 501 231 447 231 z "},"c":{"ha":854,"x_min":29,"x_max":851,"o":"m 478 -14 q 247 36 349 -14 q 87 176 144 86 q 29 381 29 267 q 87 584 29 494 q 247 724 144 674 q 478 774 349 774 q 715 714 617 774 q 851 549 814 654 l 608 429 q 476 529 564 529 q 384 490 421 529 q 347 381 347 451 q 384 269 347 308 q 476 231 421 231 q 608 331 564 231 l 851 211 q 715 46 814 106 q 478 -14 617 -14 z "},"ć":{"ha":854,"x_min":29,"x_max":851,"o":"m 478 -14 q 247 36 349 -14 q 87 176 144 86 q 29 381 29 267 q 87 584 29 494 q 247 724 144 674 q 478 774 349 774 q 715 714 617 774 q 851 549 814 654 l 608 429 q 476 529 564 529 q 384 490 421 529 q 347 381 347 451 q 384 269 347 308 q 476 231 421 231 q 608 331 564 231 l 851 211 q 715 46 814 106 q 478 -14 617 -14 m 488 1065 l 786 1065 l 513 843 l 304 843 l 488 1065 z "},"č":{"ha":854,"x_min":29,"x_max":851,"o":"m 478 -14 q 247 36 349 -14 q 87 176 144 86 q 29 381 29 267 q 87 584 29 494 q 247 724 144 674 q 478 774 349 774 q 715 714 617 774 q 851 549 814 654 l 608 429 q 476 529 564 529 q 384 490 421 529 q 347 381 347 451 q 384 269 347 308 q 476 231 421 231 q 608 331 564 231 l 851 211 q 715 46 814 106 q 478 -14 617 -14 m 761 1065 l 583 843 l 317 843 l 139 1065 l 333 1065 l 450 958 l 567 1065 l 761 1065 z "},"ç":{"ha":854,"x_min":29,"x_max":851,"o":"m 478 -14 q 247 36 349 -14 q 87 176 144 86 q 29 381 29 267 q 87 584 29 494 q 247 724 144 674 q 478 774 349 774 q 715 714 617 774 q 851 549 814 654 l 608 429 q 476 529 564 529 q 384 490 421 529 q 347 381 347 451 q 384 269 347 308 q 476 231 421 231 q 608 331 564 231 l 851 211 q 715 46 814 106 q 478 -14 617 -14 m 382 -333 q 307 -325 346 -333 q 246 -304 268 -317 l 285 -189 q 368 -206 326 -206 q 435 -172 435 -206 q 378 -144 435 -144 l 321 -144 l 358 14 l 519 14 l 500 -72 q 590 -112 561 -81 q 618 -183 618 -143 q 553 -293 618 -253 q 382 -333 489 -333 z "},"ḉ":{"ha":854,"x_min":29,"x_max":851,"o":"m 478 -14 q 247 36 349 -14 q 87 176 144 86 q 29 381 29 267 q 87 584 29 494 q 247 724 144 674 q 478 774 349 774 q 715 714 617 774 q 851 549 814 654 l 608 429 q 476 529 564 529 q 384 490 421 529 q 347 381 347 451 q 384 269 347 308 q 476 231 421 231 q 608 331 564 231 l 851 211 q 715 46 814 106 q 478 -14 617 -14 m 382 -333 q 307 -325 346 -333 q 246 -304 268 -317 l 285 -189 q 368 -206 326 -206 q 435 -172 435 -206 q 378 -144 435 -144 l 321 -144 l 358 14 l 519 14 l 500 -72 q 590 -112 561 -81 q 618 -183 618 -143 q 553 -293 618 -253 q 382 -333 489 -333 m 488 1065 l 786 1065 l 513 843 l 304 843 l 488 1065 z "},"ĉ":{"ha":854,"x_min":29,"x_max":851,"o":"m 478 -14 q 247 36 349 -14 q 87 176 144 86 q 29 381 29 267 q 87 584 29 494 q 247 724 144 674 q 478 774 349 774 q 715 714 617 774 q 851 549 814 654 l 608 429 q 476 529 564 529 q 384 490 421 529 q 347 381 347 451 q 384 269 347 308 q 476 231 421 231 q 608 331 564 231 l 851 211 q 715 46 814 106 q 478 -14 617 -14 m 567 843 l 450 950 l 333 843 l 139 843 l 317 1065 l 583 1065 l 761 843 l 567 843 z "},"ċ":{"ha":854,"x_min":29,"x_max":851,"o":"m 478 -14 q 247 36 349 -14 q 87 176 144 86 q 29 381 29 267 q 87 584 29 494 q 247 724 144 674 q 478 774 349 774 q 715 714 617 774 q 851 549 814 654 l 608 429 q 476 529 564 529 q 384 490 421 529 q 347 381 347 451 q 384 269 347 308 q 476 231 421 231 q 608 331 564 231 l 851 211 q 715 46 814 106 q 478 -14 617 -14 m 450 829 q 336 874 381 829 q 292 988 292 918 q 336 1101 292 1057 q 450 1146 381 1146 q 564 1101 519 1146 q 608 988 608 1057 q 564 874 608 918 q 450 829 519 829 z "},"d":{"ha":979,"x_min":36,"x_max":910,"o":"m 910 1031 l 910 0 l 611 0 l 611 63 q 403 -14 543 -14 q 219 34 303 -14 q 85 172 135 82 q 36 381 36 263 q 85 588 36 499 q 219 726 135 678 q 403 774 303 774 q 596 708 529 774 l 596 1031 l 910 1031 m 478 231 q 567 270 532 231 q 601 381 601 310 q 567 490 601 451 q 478 529 532 529 q 389 490 424 529 q 354 381 354 451 q 389 270 354 310 q 478 231 424 231 z "},"ð":{"ha":939,"x_min":29,"x_max":910,"o":"m 806 844 q 910 469 910 701 q 850 206 910 317 q 683 36 790 94 q 431 -22 575 -22 q 226 20 318 -22 q 82 140 135 63 q 29 318 29 218 q 75 481 29 410 q 199 590 121 551 q 372 629 278 629 q 576 569 500 629 q 522 742 572 679 l 200 625 l 151 751 l 354 825 q 303 828 321 828 q 135 803 211 828 l 106 1029 q 322 1053 217 1053 q 699 950 551 1053 l 828 997 l 876 871 l 806 844 m 456 204 q 532 231 501 204 q 563 303 563 258 q 532 375 563 347 q 456 403 501 403 q 379 375 410 403 q 349 303 349 347 q 379 231 349 258 q 456 204 410 204 z "},"ď":{"ha":979,"x_min":36,"x_max":1231,"o":"m 910 1031 l 910 0 l 611 0 l 611 63 q 403 -14 543 -14 q 219 34 303 -14 q 85 172 135 82 q 36 381 36 263 q 85 588 36 499 q 219 726 135 678 q 403 774 303 774 q 596 708 529 774 l 596 1031 l 910 1031 m 478 231 q 567 270 532 231 q 601 381 601 310 q 567 490 601 451 q 478 529 532 529 q 389 490 424 529 q 354 381 354 451 q 389 270 354 310 q 478 231 424 231 m 1011 1100 l 1231 1100 l 1189 808 l 1011 808 l 1011 1100 z "},"đ":{"ha":979,"x_min":36,"x_max":981,"o":"m 910 1031 l 910 0 l 611 0 l 611 63 q 403 -14 543 -14 q 219 34 303 -14 q 85 172 135 82 q 36 381 36 263 q 85 588 36 499 q 219 726 135 678 q 403 774 303 774 q 596 708 529 774 l 596 1031 l 910 1031 m 478 231 q 567 270 532 231 q 601 381 601 310 q 567 490 601 451 q 478 529 532 529 q 389 490 424 529 q 354 381 354 451 q 389 270 354 310 q 478 231 424 231 m 386 965 l 981 965 l 981 813 l 386 813 l 386 965 z "},"ḍ":{"ha":979,"x_min":36,"x_max":910,"o":"m 910 1031 l 910 0 l 611 0 l 611 63 q 403 -14 543 -14 q 219 34 303 -14 q 85 172 135 82 q 36 381 36 263 q 85 588 36 499 q 219 726 135 678 q 403 774 303 774 q 596 708 529 774 l 596 1031 l 910 1031 m 478 231 q 567 270 532 231 q 601 381 601 310 q 567 490 601 451 q 478 529 532 529 q 389 490 424 529 q 354 381 354 451 q 389 270 354 310 q 478 231 424 231 m 531 -314 q 441 -281 476 -314 q 406 -193 406 -247 q 441 -104 406 -139 q 531 -69 476 -69 q 620 -104 585 -69 q 656 -193 656 -139 q 620 -281 656 -247 q 531 -314 585 -314 z "},"ḏ":{"ha":979,"x_min":36,"x_max":910,"o":"m 910 1031 l 910 0 l 611 0 l 611 63 q 403 -14 543 -14 q 219 34 303 -14 q 85 172 135 82 q 36 381 36 263 q 85 588 36 499 q 219 726 135 678 q 403 774 303 774 q 596 708 529 774 l 596 1031 l 910 1031 m 478 231 q 567 270 532 231 q 601 381 601 310 q 567 490 601 451 q 478 529 532 529 q 389 490 424 529 q 354 381 354 451 q 389 270 354 310 q 478 231 424 231 m 239 -103 l 822 -103 l 822 -267 l 239 -267 l 239 -103 z "},"ǆ":{"ha":1747,"x_min":36,"x_max":1725,"o":"m 910 1031 l 910 0 l 611 0 l 611 63 q 403 -14 543 -14 q 219 34 303 -14 q 85 172 135 82 q 36 381 36 263 q 85 588 36 499 q 219 726 135 678 q 403 774 303 774 q 596 708 529 774 l 596 1031 l 910 1031 m 478 231 q 567 270 532 231 q 601 381 601 310 q 567 490 601 451 q 478 529 532 529 q 389 490 424 529 q 354 381 354 451 q 389 270 354 310 q 478 231 424 231 m 1725 229 l 1725 0 l 1000 0 l 1000 181 l 1314 531 l 1011 531 l 1011 760 l 1710 760 l 1710 579 l 1396 229 l 1725 229 m 1672 1065 l 1494 843 l 1228 843 l 1050 1065 l 1244 1065 l 1361 958 l 1478 1065 l 1672 1065 z "},"e":{"ha":907,"x_min":29,"x_max":878,"o":"m 878 381 q 874 307 878 374 l 346 307 q 401 241 363 264 q 499 218 440 218 q 583 231 549 218 q 657 274 617 243 l 821 108 q 489 -14 710 -14 q 247 37 351 -14 q 86 178 143 88 q 29 381 29 268 q 85 584 29 494 q 240 724 142 674 q 460 774 338 774 q 670 728 575 774 q 822 593 765 682 q 878 381 878 504 m 463 560 q 382 533 414 560 q 340 458 350 507 l 585 458 q 543 533 575 506 q 463 560 511 560 z "},"é":{"ha":907,"x_min":29,"x_max":878,"o":"m 878 381 q 874 307 878 374 l 346 307 q 401 241 363 264 q 499 218 440 218 q 583 231 549 218 q 657 274 617 243 l 821 108 q 489 -14 710 -14 q 247 37 351 -14 q 86 178 143 88 q 29 381 29 268 q 85 584 29 494 q 240 724 142 674 q 460 774 338 774 q 670 728 575 774 q 822 593 765 682 q 878 381 878 504 m 463 560 q 382 533 414 560 q 340 458 350 507 l 585 458 q 543 533 575 506 q 463 560 511 560 m 492 1065 l 790 1065 l 517 843 l 308 843 l 492 1065 z "},"ĕ":{"ha":907,"x_min":29,"x_max":878,"o":"m 878 381 q 874 307 878 374 l 346 307 q 401 241 363 264 q 499 218 440 218 q 583 231 549 218 q 657 274 617 243 l 821 108 q 489 -14 710 -14 q 247 37 351 -14 q 86 178 143 88 q 29 381 29 268 q 85 584 29 494 q 240 724 142 674 q 460 774 338 774 q 670 728 575 774 q 822 593 765 682 q 878 381 878 504 m 463 560 q 382 533 414 560 q 340 458 350 507 l 585 458 q 543 533 575 506 q 463 560 511 560 m 454 829 q 249 893 328 829 q 164 1065 169 957 l 351 1065 q 383 1003 354 1026 q 454 981 411 981 q 526 1003 497 981 q 557 1065 554 1026 l 744 1065 q 660 893 739 957 q 454 829 581 829 z "},"ě":{"ha":907,"x_min":29,"x_max":878,"o":"m 878 381 q 874 307 878 374 l 346 307 q 401 241 363 264 q 499 218 440 218 q 583 231 549 218 q 657 274 617 243 l 821 108 q 489 -14 710 -14 q 247 37 351 -14 q 86 178 143 88 q 29 381 29 268 q 85 584 29 494 q 240 724 142 674 q 460 774 338 774 q 670 728 575 774 q 822 593 765 682 q 878 381 878 504 m 463 560 q 382 533 414 560 q 340 458 350 507 l 585 458 q 543 533 575 506 q 463 560 511 560 m 765 1065 l 588 843 l 321 843 l 143 1065 l 338 1065 l 454 958 l 571 1065 l 765 1065 z "},"ḝ":{"ha":907,"x_min":29,"x_max":878,"o":"m 878 381 q 874 307 878 374 l 346 307 q 401 241 363 264 q 499 218 440 218 q 583 231 549 218 q 657 274 617 243 l 821 108 q 489 -14 710 -14 q 247 37 351 -14 q 86 178 143 88 q 29 381 29 268 q 85 584 29 494 q 240 724 142 674 q 460 774 338 774 q 670 728 575 774 q 822 593 765 682 q 878 381 878 504 m 463 560 q 382 533 414 560 q 340 458 350 507 l 585 458 q 543 533 575 506 q 463 560 511 560 m 397 -333 q 322 -325 361 -333 q 261 -304 283 -317 l 300 -189 q 383 -206 342 -206 q 450 -172 450 -206 q 393 -144 450 -144 l 336 -144 l 374 14 l 535 14 l 515 -72 q 605 -112 576 -81 q 633 -183 633 -143 q 569 -293 633 -253 q 397 -333 504 -333 m 454 829 q 249 893 328 829 q 164 1065 169 957 l 351 1065 q 383 1003 354 1026 q 454 981 411 981 q 526 1003 497 981 q 557 1065 554 1026 l 744 1065 q 660 893 739 957 q 454 829 581 829 z "},"ê":{"ha":907,"x_min":29,"x_max":878,"o":"m 878 381 q 874 307 878 374 l 346 307 q 401 241 363 264 q 499 218 440 218 q 583 231 549 218 q 657 274 617 243 l 821 108 q 489 -14 710 -14 q 247 37 351 -14 q 86 178 143 88 q 29 381 29 268 q 85 584 29 494 q 240 724 142 674 q 460 774 338 774 q 670 728 575 774 q 822 593 765 682 q 878 381 878 504 m 463 560 q 382 533 414 560 q 340 458 350 507 l 585 458 q 543 533 575 506 q 463 560 511 560 m 571 843 l 454 950 l 338 843 l 143 843 l 321 1065 l 588 1065 l 765 843 l 571 843 z "},"ế":{"ha":907,"x_min":29,"x_max":1096,"o":"m 878 381 q 874 307 878 374 l 346 307 q 401 241 363 264 q 499 218 440 218 q 583 231 549 218 q 657 274 617 243 l 821 108 q 489 -14 710 -14 q 247 37 351 -14 q 86 178 143 88 q 29 381 29 268 q 85 584 29 494 q 240 724 142 674 q 460 774 338 774 q 670 728 575 774 q 822 593 765 682 q 878 381 878 504 m 463 560 q 382 533 414 560 q 340 458 350 507 l 585 458 q 543 533 575 506 q 463 560 511 560 m 571 843 l 454 928 l 338 843 l 143 843 l 322 1024 l 586 1024 l 765 843 l 571 843 m 797 1169 l 1096 1169 l 864 989 l 656 989 l 797 1169 z "},"ệ":{"ha":907,"x_min":29,"x_max":878,"o":"m 878 381 q 874 307 878 374 l 346 307 q 401 241 363 264 q 499 218 440 218 q 583 231 549 218 q 657 274 617 243 l 821 108 q 489 -14 710 -14 q 247 37 351 -14 q 86 178 143 88 q 29 381 29 268 q 85 584 29 494 q 240 724 142 674 q 460 774 338 774 q 670 728 575 774 q 822 593 765 682 q 878 381 878 504 m 463 560 q 382 533 414 560 q 340 458 350 507 l 585 458 q 543 533 575 506 q 463 560 511 560 m 454 -314 q 365 -281 400 -314 q 329 -193 329 -247 q 365 -104 329 -139 q 454 -69 400 -69 q 544 -104 508 -69 q 579 -193 579 -139 q 544 -281 579 -247 q 454 -314 508 -314 m 571 843 l 454 950 l 338 843 l 143 843 l 321 1065 l 588 1065 l 765 843 l 571 843 z "},"ề":{"ha":907,"x_min":29,"x_max":947,"o":"m 878 381 q 874 307 878 374 l 346 307 q 401 241 363 264 q 499 218 440 218 q 583 231 549 218 q 657 274 617 243 l 821 108 q 489 -14 710 -14 q 247 37 351 -14 q 86 178 143 88 q 29 381 29 268 q 85 584 29 494 q 240 724 142 674 q 460 774 338 774 q 670 728 575 774 q 822 593 765 682 q 878 381 878 504 m 463 560 q 382 533 414 560 q 340 458 350 507 l 585 458 q 543 533 575 506 q 463 560 511 560 m 571 843 l 454 928 l 338 843 l 143 843 l 322 1024 l 586 1024 l 765 843 l 571 843 m 507 1169 l 806 1169 l 947 989 l 739 989 l 507 1169 z "},"ể":{"ha":907,"x_min":29,"x_max":878,"o":"m 878 381 q 874 307 878 374 l 346 307 q 401 241 363 264 q 499 218 440 218 q 583 231 549 218 q 657 274 617 243 l 821 108 q 489 -14 710 -14 q 247 37 351 -14 q 86 178 143 88 q 29 381 29 268 q 85 584 29 494 q 240 724 142 674 q 460 774 338 774 q 670 728 575 774 q 822 593 765 682 q 878 381 878 504 m 463 560 q 382 533 414 560 q 340 458 350 507 l 585 458 q 543 533 575 506 q 463 560 511 560 m 571 843 l 454 928 l 338 843 l 143 843 l 322 1024 l 586 1024 l 765 843 l 571 843 m 681 1024 q 728 1075 728 1049 q 717 1100 728 1090 q 688 1110 706 1110 q 624 1093 657 1110 l 576 1178 q 714 1213 632 1213 q 822 1180 782 1213 q 863 1090 863 1147 q 831 1013 863 1047 q 753 961 800 979 l 681 1024 z "},"ễ":{"ha":907,"x_min":29,"x_max":878,"o":"m 878 381 q 874 307 878 374 l 346 307 q 401 241 363 264 q 499 218 440 218 q 583 231 549 218 q 657 274 617 243 l 821 108 q 489 -14 710 -14 q 247 37 351 -14 q 86 178 143 88 q 29 381 29 268 q 85 584 29 494 q 240 724 142 674 q 460 774 338 774 q 670 728 575 774 q 822 593 765 682 q 878 381 878 504 m 463 560 q 382 533 414 560 q 340 458 350 507 l 585 458 q 543 533 575 506 q 463 560 511 560 m 571 843 l 454 928 l 338 843 l 143 843 l 322 1024 l 586 1024 l 765 843 l 571 843 m 560 1072 q 488 1085 519 1072 q 421 1119 456 1097 q 392 1135 406 1129 q 368 1142 378 1142 q 328 1126 344 1142 q 310 1085 313 1110 l 157 1085 q 208 1238 157 1183 q 349 1292 258 1292 q 420 1279 389 1292 q 488 1246 451 1267 q 518 1229 503 1236 q 543 1222 533 1222 q 584 1239 568 1222 q 603 1279 600 1256 l 751 1279 q 702 1127 751 1182 q 560 1072 653 1072 z "},"ȅ":{"ha":907,"x_min":29,"x_max":878,"o":"m 878 381 q 874 307 878 374 l 346 307 q 401 241 363 264 q 499 218 440 218 q 583 231 549 218 q 657 274 617 243 l 821 108 q 489 -14 710 -14 q 247 37 351 -14 q 86 178 143 88 q 29 381 29 268 q 85 584 29 494 q 240 724 142 674 q 460 774 338 774 q 670 728 575 774 q 822 593 765 682 q 878 381 878 504 m 463 560 q 382 533 414 560 q 340 458 350 507 l 585 458 q 543 533 575 506 q 463 560 511 560 m 53 1065 l 324 1065 l 396 843 l 188 843 l 53 1065 m 378 1065 l 649 1065 l 721 843 l 513 843 l 378 1065 z "},"ë":{"ha":907,"x_min":29,"x_max":878,"o":"m 878 381 q 874 307 878 374 l 346 307 q 401 241 363 264 q 499 218 440 218 q 583 231 549 218 q 657 274 617 243 l 821 108 q 489 -14 710 -14 q 247 37 351 -14 q 86 178 143 88 q 29 381 29 268 q 85 584 29 494 q 240 724 142 674 q 460 774 338 774 q 670 728 575 774 q 822 593 765 682 q 878 381 878 504 m 463 560 q 382 533 414 560 q 340 458 350 507 l 585 458 q 543 533 575 506 q 463 560 511 560 m 300 832 q 210 866 246 832 q 175 954 175 900 q 210 1043 175 1008 q 300 1078 246 1078 q 390 1043 354 1078 q 425 954 425 1008 q 390 866 425 900 q 300 832 354 832 m 608 832 q 519 866 554 832 q 483 954 483 900 q 519 1043 483 1008 q 608 1078 554 1078 q 698 1043 663 1078 q 733 954 733 1008 q 698 866 733 900 q 608 832 663 832 z "},"ė":{"ha":907,"x_min":29,"x_max":878,"o":"m 878 381 q 874 307 878 374 l 346 307 q 401 241 363 264 q 499 218 440 218 q 583 231 549 218 q 657 274 617 243 l 821 108 q 489 -14 710 -14 q 247 37 351 -14 q 86 178 143 88 q 29 381 29 268 q 85 584 29 494 q 240 724 142 674 q 460 774 338 774 q 670 728 575 774 q 822 593 765 682 q 878 381 878 504 m 463 560 q 382 533 414 560 q 340 458 350 507 l 585 458 q 543 533 575 506 q 463 560 511 560 m 454 829 q 340 874 385 829 q 296 988 296 918 q 340 1101 296 1057 q 454 1146 385 1146 q 568 1101 524 1146 q 613 988 613 1057 q 568 874 613 918 q 454 829 524 829 z "},"ẹ":{"ha":907,"x_min":29,"x_max":878,"o":"m 878 381 q 874 307 878 374 l 346 307 q 401 241 363 264 q 499 218 440 218 q 583 231 549 218 q 657 274 617 243 l 821 108 q 489 -14 710 -14 q 247 37 351 -14 q 86 178 143 88 q 29 381 29 268 q 85 584 29 494 q 240 724 142 674 q 460 774 338 774 q 670 728 575 774 q 822 593 765 682 q 878 381 878 504 m 463 560 q 382 533 414 560 q 340 458 350 507 l 585 458 q 543 533 575 506 q 463 560 511 560 m 454 -314 q 365 -281 400 -314 q 329 -193 329 -247 q 365 -104 329 -139 q 454 -69 400 -69 q 544 -104 508 -69 q 579 -193 579 -139 q 544 -281 579 -247 q 454 -314 508 -314 z "},"è":{"ha":907,"x_min":29,"x_max":878,"o":"m 878 381 q 874 307 878 374 l 346 307 q 401 241 363 264 q 499 218 440 218 q 583 231 549 218 q 657 274 617 243 l 821 108 q 489 -14 710 -14 q 247 37 351 -14 q 86 178 143 88 q 29 381 29 268 q 85 584 29 494 q 240 724 142 674 q 460 774 338 774 q 670 728 575 774 q 822 593 765 682 q 878 381 878 504 m 463 560 q 382 533 414 560 q 340 458 350 507 l 585 458 q 543 533 575 506 q 463 560 511 560 m 118 1065 l 417 1065 l 600 843 l 392 843 l 118 1065 z "},"ẻ":{"ha":907,"x_min":29,"x_max":878,"o":"m 878 381 q 874 307 878 374 l 346 307 q 401 241 363 264 q 499 218 440 218 q 583 231 549 218 q 657 274 617 243 l 821 108 q 489 -14 710 -14 q 247 37 351 -14 q 86 178 143 88 q 29 381 29 268 q 85 584 29 494 q 240 724 142 674 q 460 774 338 774 q 670 728 575 774 q 822 593 765 682 q 878 381 878 504 m 463 560 q 382 533 414 560 q 340 458 350 507 l 585 458 q 543 533 575 506 q 463 560 511 560 m 419 919 q 469 955 456 936 q 483 994 483 974 q 467 1033 483 1019 q 425 1047 451 1047 q 346 1019 386 1047 l 282 1136 q 461 1192 354 1192 q 603 1144 549 1192 q 657 1021 657 1097 q 621 908 657 954 q 514 829 585 861 l 419 919 z "},"ȇ":{"ha":907,"x_min":29,"x_max":878,"o":"m 878 381 q 874 307 878 374 l 346 307 q 401 241 363 264 q 499 218 440 218 q 583 231 549 218 q 657 274 617 243 l 821 108 q 489 -14 710 -14 q 247 37 351 -14 q 86 178 143 88 q 29 381 29 268 q 85 584 29 494 q 240 724 142 674 q 460 774 338 774 q 670 728 575 774 q 822 593 765 682 q 878 381 878 504 m 463 560 q 382 533 414 560 q 340 458 350 507 l 585 458 q 543 533 575 506 q 463 560 511 560 m 164 843 q 249 1015 169 951 q 454 1079 328 1079 q 660 1015 581 1079 q 744 843 739 951 l 557 843 q 526 905 554 882 q 454 928 497 928 q 383 905 411 928 q 351 843 354 882 l 164 843 z "},"ē":{"ha":907,"x_min":29,"x_max":878,"o":"m 878 381 q 874 307 878 374 l 346 307 q 401 241 363 264 q 499 218 440 218 q 583 231 549 218 q 657 274 617 243 l 821 108 q 489 -14 710 -14 q 247 37 351 -14 q 86 178 143 88 q 29 381 29 268 q 85 584 29 494 q 240 724 142 674 q 460 774 338 774 q 670 728 575 774 q 822 593 765 682 q 878 381 878 504 m 463 560 q 382 533 414 560 q 340 458 350 507 l 585 458 q 543 533 575 506 q 463 560 511 560 m 163 1036 l 746 1036 l 746 872 l 163 872 l 163 1036 z "},"ḗ":{"ha":907,"x_min":29,"x_max":878,"o":"m 878 381 q 874 307 878 374 l 346 307 q 401 241 363 264 q 499 218 440 218 q 583 231 549 218 q 657 274 617 243 l 821 108 q 489 -14 710 -14 q 247 37 351 -14 q 86 178 143 88 q 29 381 29 268 q 85 584 29 494 q 240 724 142 674 q 460 774 338 774 q 670 728 575 774 q 822 593 765 682 q 878 381 878 504 m 463 560 q 382 533 414 560 q 340 458 350 507 l 585 458 q 543 533 575 506 q 463 560 511 560 m 163 1011 l 746 1011 l 746 856 l 163 856 l 163 1011 m 450 1278 l 749 1278 l 517 1097 l 308 1097 l 450 1278 z "},"ḕ":{"ha":907,"x_min":29,"x_max":878,"o":"m 878 381 q 874 307 878 374 l 346 307 q 401 241 363 264 q 499 218 440 218 q 583 231 549 218 q 657 274 617 243 l 821 108 q 489 -14 710 -14 q 247 37 351 -14 q 86 178 143 88 q 29 381 29 268 q 85 584 29 494 q 240 724 142 674 q 460 774 338 774 q 670 728 575 774 q 822 593 765 682 q 878 381 878 504 m 463 560 q 382 533 414 560 q 340 458 350 507 l 585 458 q 543 533 575 506 q 463 560 511 560 m 163 1011 l 746 1011 l 746 856 l 163 856 l 163 1011 m 160 1278 l 458 1278 l 600 1097 l 392 1097 l 160 1278 z "},"ę":{"ha":907,"x_min":29,"x_max":878,"o":"m 878 381 q 874 307 878 374 l 346 307 q 401 241 363 264 q 499 218 440 218 q 583 231 549 218 q 657 274 617 243 l 822 108 q 763 57 792 75 q 640 -41 671 0 q 608 -124 608 -82 q 628 -173 608 -154 q 685 -192 649 -192 q 764 -172 722 -192 l 801 -301 q 733 -324 776 -315 q 644 -333 689 -333 q 483 -287 540 -333 q 425 -158 425 -240 q 444 -81 425 -118 q 496 -14 463 -43 l 489 -14 q 247 37 351 -14 q 86 178 143 88 q 29 381 29 268 q 85 584 29 494 q 240 724 142 674 q 460 774 338 774 q 670 728 575 774 q 822 593 765 682 q 878 381 878 504 m 463 560 q 382 533 414 560 q 340 458 350 507 l 585 458 q 543 533 575 506 q 463 560 511 560 z "},"ẽ":{"ha":907,"x_min":29,"x_max":878,"o":"m 878 381 q 874 307 878 374 l 346 307 q 401 241 363 264 q 499 218 440 218 q 583 231 549 218 q 657 274 617 243 l 821 108 q 489 -14 710 -14 q 247 37 351 -14 q 86 178 143 88 q 29 381 29 268 q 85 584 29 494 q 240 724 142 674 q 460 774 338 774 q 670 728 575 774 q 822 593 765 682 q 878 381 878 504 m 463 560 q 382 533 414 560 q 340 458 350 507 l 585 458 q 543 533 575 506 q 463 560 511 560 m 567 829 q 494 843 526 829 q 428 881 463 857 q 390 903 404 896 q 361 911 375 911 q 318 893 335 911 q 299 843 301 875 l 150 843 q 203 1019 153 954 q 342 1083 254 1083 q 414 1069 382 1083 q 481 1032 446 1056 q 519 1008 504 1015 q 547 1001 533 1001 q 590 1019 574 1001 q 610 1065 607 1036 l 758 1065 q 705 894 756 958 q 567 829 654 829 z "},"ə":{"ha":907,"x_min":29,"x_max":878,"o":"m 29 379 q 33 453 29 386 l 561 453 q 506 519 544 496 q 408 542 467 542 q 324 529 358 542 q 250 486 290 517 l 86 651 q 418 774 197 774 q 660 723 556 774 q 821 582 764 672 q 878 379 878 492 q 822 176 878 265 q 667 36 765 86 q 447 -14 569 -14 q 237 32 332 -14 q 85 167 142 78 q 29 379 29 256 m 444 200 q 525 226 493 200 q 567 301 557 253 l 322 301 q 364 227 332 254 q 444 200 396 200 z "},"ʒ":{"ha":813,"x_min":-24,"x_max":793,"o":"m 558 354 q 733 248 672 325 q 793 63 793 171 q 746 -108 793 -29 q 599 -235 699 -186 q 354 -283 500 -283 q 152 -259 253 -283 q -24 -189 51 -235 l 82 53 q 211 -6 143 14 q 343 -25 279 -25 q 435 -2 400 -25 q 469 63 469 21 q 354 143 469 143 l 225 143 l 225 344 l 374 513 l 21 513 l 21 760 l 740 760 l 740 558 l 558 354 z "},"ǯ":{"ha":813,"x_min":-24,"x_max":793,"o":"m 558 354 q 733 248 672 325 q 793 63 793 171 q 746 -108 793 -29 q 599 -235 699 -186 q 354 -283 500 -283 q 152 -259 253 -283 q -24 -189 51 -235 l 82 53 q 211 -6 143 14 q 343 -25 279 -25 q 435 -2 400 -25 q 469 63 469 21 q 354 143 469 143 l 225 143 l 225 344 l 374 513 l 21 513 l 21 760 l 740 760 l 740 558 l 558 354 m 689 1065 l 511 843 l 244 843 l 67 1065 l 261 1065 l 378 958 l 494 1065 l 689 1065 z "},"f":{"ha":592,"x_min":0,"x_max":629,"o":"m 408 718 l 574 718 l 574 489 l 418 489 l 418 0 l 104 0 l 104 489 l 0 489 l 0 718 l 104 718 l 104 722 q 193 958 104 871 q 443 1044 282 1044 q 546 1035 496 1044 q 629 1007 596 1025 l 554 789 q 483 807 515 807 q 428 785 449 807 q 408 719 408 764 l 408 718 z "},"g":{"ha":988,"x_min":29,"x_max":918,"o":"m 918 760 l 918 151 q 798 -174 918 -65 q 456 -283 678 -283 q 243 -259 342 -283 q 75 -189 144 -235 l 181 25 q 293 -29 225 -8 q 424 -50 361 -50 q 561 -10 518 -50 q 604 108 604 31 l 604 122 q 394 42 533 42 q 213 87 297 42 q 79 216 129 132 q 29 408 29 300 q 79 600 29 517 q 213 728 129 683 q 394 774 297 774 q 619 674 550 774 l 619 760 l 918 760 m 478 286 q 570 320 533 286 q 607 408 607 354 q 570 496 607 463 q 478 529 533 529 q 384 496 421 529 q 347 408 347 463 q 385 320 347 354 q 478 286 422 286 z "},"ğ":{"ha":988,"x_min":29,"x_max":918,"o":"m 918 760 l 918 151 q 798 -174 918 -65 q 456 -283 678 -283 q 243 -259 342 -283 q 75 -189 144 -235 l 181 25 q 293 -29 225 -8 q 424 -50 361 -50 q 561 -10 518 -50 q 604 108 604 31 l 604 122 q 394 42 533 42 q 213 87 297 42 q 79 216 129 132 q 29 408 29 300 q 79 600 29 517 q 213 728 129 683 q 394 774 297 774 q 619 674 550 774 l 619 760 l 918 760 m 478 286 q 570 320 533 286 q 607 408 607 354 q 570 496 607 463 q 478 529 533 529 q 384 496 421 529 q 347 408 347 463 q 385 320 347 354 q 478 286 422 286 m 493 829 q 288 893 367 829 q 203 1065 208 957 l 390 1065 q 422 1003 393 1026 q 493 981 450 981 q 565 1003 536 981 q 596 1065 593 1026 l 783 1065 q 699 893 778 957 q 493 829 619 829 z "},"ǧ":{"ha":988,"x_min":29,"x_max":918,"o":"m 918 760 l 918 151 q 798 -174 918 -65 q 456 -283 678 -283 q 243 -259 342 -283 q 75 -189 144 -235 l 181 25 q 293 -29 225 -8 q 424 -50 361 -50 q 561 -10 518 -50 q 604 108 604 31 l 604 122 q 394 42 533 42 q 213 87 297 42 q 79 216 129 132 q 29 408 29 300 q 79 600 29 517 q 213 728 129 683 q 394 774 297 774 q 619 674 550 774 l 619 760 l 918 760 m 478 286 q 570 320 533 286 q 607 408 607 354 q 570 496 607 463 q 478 529 533 529 q 384 496 421 529 q 347 408 347 463 q 385 320 347 354 q 478 286 422 286 m 804 1065 l 626 843 l 360 843 l 182 1065 l 376 1065 l 493 958 l 610 1065 l 804 1065 z "},"ĝ":{"ha":988,"x_min":29,"x_max":918,"o":"m 918 760 l 918 151 q 798 -174 918 -65 q 456 -283 678 -283 q 243 -259 342 -283 q 75 -189 144 -235 l 181 25 q 293 -29 225 -8 q 424 -50 361 -50 q 561 -10 518 -50 q 604 108 604 31 l 604 122 q 394 42 533 42 q 213 87 297 42 q 79 216 129 132 q 29 408 29 300 q 79 600 29 517 q 213 728 129 683 q 394 774 297 774 q 619 674 550 774 l 619 760 l 918 760 m 478 286 q 570 320 533 286 q 607 408 607 354 q 570 496 607 463 q 478 529 533 529 q 384 496 421 529 q 347 408 347 463 q 385 320 347 354 q 478 286 422 286 m 610 843 l 493 950 l 376 843 l 182 843 l 360 1065 l 626 1065 l 804 843 l 610 843 z "},"ģ":{"ha":988,"x_min":29,"x_max":918,"o":"m 918 760 l 918 151 q 798 -174 918 -65 q 456 -283 678 -283 q 243 -259 342 -283 q 75 -189 144 -235 l 181 25 q 293 -29 225 -8 q 424 -50 361 -50 q 561 -10 518 -50 q 604 108 604 31 l 604 122 q 394 42 533 42 q 213 87 297 42 q 79 216 129 132 q 29 408 29 300 q 79 600 29 517 q 213 728 129 683 q 394 774 297 774 q 619 674 550 774 l 619 760 l 918 760 m 478 286 q 570 320 533 286 q 607 408 607 354 q 570 496 607 463 q 478 529 533 529 q 384 496 421 529 q 347 408 347 463 q 385 320 347 354 q 478 286 422 286 m 571 1024 q 642 933 642 1001 q 604 857 642 885 q 493 829 567 829 q 382 857 419 829 q 344 933 344 885 q 386 1044 344 978 l 461 1163 l 625 1163 l 571 1024 z "},"ġ":{"ha":988,"x_min":29,"x_max":918,"o":"m 918 760 l 918 151 q 798 -174 918 -65 q 456 -283 678 -283 q 243 -259 342 -283 q 75 -189 144 -235 l 181 25 q 293 -29 225 -8 q 424 -50 361 -50 q 561 -10 518 -50 q 604 108 604 31 l 604 122 q 394 42 533 42 q 213 87 297 42 q 79 216 129 132 q 29 408 29 300 q 79 600 29 517 q 213 728 129 683 q 394 774 297 774 q 619 674 550 774 l 619 760 l 918 760 m 478 286 q 570 320 533 286 q 607 408 607 354 q 570 496 607 463 q 478 529 533 529 q 384 496 421 529 q 347 408 347 463 q 385 320 347 354 q 478 286 422 286 m 493 829 q 379 874 424 829 q 335 988 335 918 q 379 1101 335 1057 q 493 1146 424 1146 q 607 1101 563 1146 q 651 988 651 1057 q 607 874 651 918 q 493 829 563 829 z "},"ḡ":{"ha":988,"x_min":29,"x_max":918,"o":"m 918 760 l 918 151 q 798 -174 918 -65 q 456 -283 678 -283 q 243 -259 342 -283 q 75 -189 144 -235 l 181 25 q 293 -29 225 -8 q 424 -50 361 -50 q 561 -10 518 -50 q 604 108 604 31 l 604 122 q 394 42 533 42 q 213 87 297 42 q 79 216 129 132 q 29 408 29 300 q 79 600 29 517 q 213 728 129 683 q 394 774 297 774 q 619 674 550 774 l 619 760 l 918 760 m 478 286 q 570 320 533 286 q 607 408 607 354 q 570 496 607 463 q 478 529 533 529 q 384 496 421 529 q 347 408 347 463 q 385 320 347 354 q 478 286 422 286 m 201 1036 l 785 1036 l 785 872 l 201 872 l 201 1036 z "},"ǥ":{"ha":1007,"x_min":29,"x_max":1006,"o":"m 1006 -14 l 896 -14 q 743 -215 856 -147 q 450 -283 631 -283 q 242 -258 340 -283 q 75 -189 143 -233 l 181 11 q 290 -43 222 -22 q 426 -64 358 -64 q 569 -15 525 -64 l 364 -15 l 364 96 l 604 96 l 604 158 l 607 213 q 381 128 531 128 q 196 169 275 128 q 73 284 117 211 q 29 450 29 357 q 72 616 29 543 q 194 731 115 689 q 379 772 274 772 q 619 669 542 772 l 619 760 l 918 760 l 918 151 q 917 97 918 114 l 1006 97 l 1006 -14 m 478 338 q 573 367 539 338 q 607 450 607 397 q 573 533 607 503 q 478 563 539 563 q 382 533 417 563 q 347 450 347 503 q 382 367 347 397 q 478 338 417 338 z "},"h":{"ha":975,"x_min":69,"x_max":908,"o":"m 597 774 q 823 689 738 774 q 908 433 908 604 l 908 0 l 594 0 l 594 379 q 501 510 594 510 q 416 473 449 510 q 383 357 383 436 l 383 0 l 69 0 l 69 1031 l 383 1031 l 383 699 q 597 774 471 774 z "},"ħ":{"ha":975,"x_min":0,"x_max":908,"o":"m 597 774 q 823 689 738 774 q 908 433 908 604 l 908 0 l 594 0 l 594 379 q 501 510 594 510 q 416 473 449 510 q 383 357 383 436 l 383 0 l 69 0 l 69 1031 l 383 1031 l 383 699 q 597 774 471 774 m 0 965 l 594 965 l 594 813 l 0 813 l 0 965 z "},"ḫ":{"ha":975,"x_min":69,"x_max":908,"o":"m 597 774 q 823 689 738 774 q 908 433 908 604 l 908 0 l 594 0 l 594 379 q 501 510 594 510 q 416 473 449 510 q 383 357 383 436 l 383 0 l 69 0 l 69 1031 l 383 1031 l 383 699 q 597 774 471 774 m 493 -312 q 289 -252 368 -312 q 203 -93 210 -192 l 379 -93 q 415 -151 383 -129 q 493 -172 446 -172 q 572 -151 540 -172 q 607 -93 603 -129 l 783 -93 q 697 -252 776 -192 q 493 -312 618 -312 z "},"ȟ":{"ha":975,"x_min":-85,"x_max":908,"o":"m 597 774 q 823 689 738 774 q 908 433 908 604 l 908 0 l 594 0 l 594 379 q 501 510 594 510 q 416 473 449 510 q 383 357 383 436 l 383 0 l 69 0 l 69 1031 l 383 1031 l 383 699 q 597 774 471 774 m 538 1336 l 360 1114 l 93 1114 l -85 1336 l 110 1336 l 226 1229 l 343 1336 l 538 1336 z "},"ĥ":{"ha":975,"x_min":-85,"x_max":908,"o":"m 597 774 q 823 689 738 774 q 908 433 908 604 l 908 0 l 594 0 l 594 379 q 501 510 594 510 q 416 473 449 510 q 383 357 383 436 l 383 0 l 69 0 l 69 1031 l 383 1031 l 383 699 q 597 774 471 774 m 343 1110 l 226 1217 l 110 1110 l -85 1110 l 93 1332 l 360 1332 l 538 1110 l 343 1110 z "},"ḥ":{"ha":975,"x_min":69,"x_max":908,"o":"m 597 774 q 823 689 738 774 q 908 433 908 604 l 908 0 l 594 0 l 594 379 q 501 510 594 510 q 416 473 449 510 q 383 357 383 436 l 383 0 l 69 0 l 69 1031 l 383 1031 l 383 699 q 597 774 471 774 m 493 -314 q 403 -281 439 -314 q 368 -193 368 -247 q 403 -104 368 -139 q 493 -69 439 -69 q 583 -104 547 -69 q 618 -193 618 -139 q 583 -281 618 -247 q 493 -314 547 -314 z "},"i":{"ha":453,"x_min":38,"x_max":415,"o":"m 69 760 l 383 760 l 383 0 l 69 0 l 69 760 m 226 821 q 90 866 142 821 q 38 981 38 911 q 90 1095 38 1050 q 226 1140 142 1140 q 364 1097 313 1140 q 415 986 415 1054 q 364 867 415 914 q 226 821 313 821 z "},"ı":{"ha":453,"x_min":69,"x_max":383,"o":"m 69 760 l 383 760 l 383 0 l 69 0 l 69 760 z "},"í":{"ha":453,"x_min":69,"x_max":563,"o":"m 69 760 l 383 760 l 383 0 l 69 0 l 69 760 m 264 1065 l 563 1065 l 289 843 l 81 843 l 264 1065 z "},"ĭ":{"ha":453,"x_min":-29,"x_max":482,"o":"m 69 760 l 383 760 l 383 0 l 69 0 l 69 760 m 226 829 q 43 893 114 829 q -29 1065 -28 957 l 151 1065 q 171 1002 151 1026 q 226 978 190 978 q 282 1002 263 978 q 301 1065 301 1026 l 482 1065 q 410 893 481 957 q 226 829 339 829 z "},"î":{"ha":453,"x_min":-50,"x_max":503,"o":"m 69 760 l 383 760 l 383 0 l 69 0 l 69 760 m 308 843 l 226 936 l 144 843 l -50 843 l 96 1065 l 357 1065 l 503 843 l 308 843 z "},"ȉ":{"ha":453,"x_min":-175,"x_max":493,"o":"m 69 760 l 383 760 l 383 0 l 69 0 l 69 760 m -175 1065 l 96 1065 l 168 843 l -40 843 l -175 1065 m 150 1065 l 421 1065 l 493 843 l 285 843 l 150 1065 z "},"ï":{"ha":453,"x_min":-18,"x_max":471,"o":"m 69 760 l 383 760 l 383 0 l 69 0 l 69 760 m 97 832 q 15 866 47 832 q -18 954 -18 900 q 15 1043 -18 1008 q 97 1078 47 1078 q 178 1043 146 1078 q 211 954 211 1008 q 178 866 211 900 q 97 832 146 832 m 357 832 q 274 866 307 832 q 242 954 242 900 q 274 1043 242 1008 q 357 1078 307 1078 q 438 1043 406 1078 q 471 954 471 1008 q 438 866 471 900 q 357 832 406 832 z "},"ḯ":{"ha":453,"x_min":-39,"x_max":521,"o":"m 69 760 l 383 760 l 383 0 l 69 0 l 69 760 m 79 832 q -6 864 28 832 q -39 947 -39 896 q -5 1031 -39 999 q 79 1064 29 1064 q 163 1031 129 1064 q 197 947 197 999 q 164 864 197 896 q 79 832 131 832 m 374 832 q 289 864 322 832 q 256 947 256 896 q 290 1031 256 999 q 374 1064 324 1064 q 458 1031 424 1064 q 492 947 492 999 q 458 864 492 896 q 374 832 425 832 m 222 1278 l 521 1278 l 289 1097 l 81 1097 l 222 1278 z "},"ị":{"ha":453,"x_min":38,"x_max":415,"o":"m 69 760 l 383 760 l 383 0 l 69 0 l 69 760 m 226 821 q 90 866 142 821 q 38 981 38 911 q 90 1095 38 1050 q 226 1140 142 1140 q 364 1097 313 1140 q 415 986 415 1054 q 364 867 415 914 q 226 821 313 821 m 226 -314 q 137 -281 172 -314 q 101 -193 101 -247 q 137 -104 101 -139 q 226 -69 172 -69 q 316 -104 281 -69 q 351 -193 351 -139 q 316 -281 351 -247 q 226 -314 281 -314 z "},"ì":{"ha":453,"x_min":-110,"x_max":383,"o":"m 69 760 l 383 760 l 383 0 l 69 0 l 69 760 m -110 1065 l 189 1065 l 372 843 l 164 843 l -110 1065 z "},"ỉ":{"ha":453,"x_min":54,"x_max":429,"o":"m 69 760 l 383 760 l 383 0 l 69 0 l 69 760 m 192 919 q 242 955 228 936 q 256 994 256 974 q 240 1033 256 1019 q 197 1047 224 1047 q 118 1019 158 1047 l 54 1136 q 233 1192 126 1192 q 375 1144 321 1192 q 429 1021 429 1097 q 393 908 429 954 q 286 829 357 861 l 192 919 z "},"ȋ":{"ha":453,"x_min":-29,"x_max":482,"o":"m 69 760 l 383 760 l 383 0 l 69 0 l 69 760 m -29 843 q 43 1015 -28 951 q 226 1079 114 1079 q 410 1015 339 1079 q 482 843 481 951 l 301 843 q 282 906 301 882 q 226 931 263 931 q 171 906 190 931 q 151 843 151 882 l -29 843 z "},"ĳ":{"ha":917,"x_min":38,"x_max":879,"o":"m 69 760 l 383 760 l 383 0 l 69 0 l 69 760 m 226 821 q 90 866 142 821 q 38 981 38 911 q 90 1095 38 1050 q 226 1140 142 1140 q 364 1097 313 1140 q 415 986 415 1054 q 364 867 415 914 q 226 821 313 821 m 515 -283 q 322 -246 394 -283 l 397 -28 q 468 -46 431 -46 q 515 -24 497 -46 q 533 42 533 -3 l 533 760 l 847 760 l 847 39 q 759 -197 847 -110 q 515 -283 671 -283 m 690 821 q 553 866 606 821 q 501 981 501 911 q 553 1095 501 1050 q 690 1140 606 1140 q 828 1097 776 1140 q 879 986 879 1054 q 828 867 879 914 q 690 821 776 821 z "},"ī":{"ha":453,"x_min":-10,"x_max":463,"o":"m 69 760 l 383 760 l 383 0 l 69 0 l 69 760 m -10 1036 l 463 1036 l 463 872 l -10 872 l -10 1036 z "},"į":{"ha":453,"x_min":38,"x_max":418,"o":"m 69 760 l 383 760 l 383 0 l 69 0 l 69 760 m 226 821 q 90 866 142 821 q 38 981 38 911 q 90 1095 38 1050 q 226 1140 142 1140 q 364 1097 313 1140 q 415 986 415 1054 q 364 867 415 914 q 226 821 313 821 m 300 -333 q 155 -286 210 -333 q 100 -160 100 -239 q 153 -22 100 -83 q 300 71 206 39 l 383 0 q 307 -65 329 -35 q 285 -132 285 -96 q 300 -175 285 -158 q 338 -192 315 -192 q 382 -176 363 -192 l 418 -301 q 300 -333 369 -333 z "},"ĩ":{"ha":453,"x_min":-36,"x_max":489,"o":"m 69 760 l 383 760 l 383 0 l 69 0 l 69 760 m 328 829 q 258 846 289 829 q 196 890 228 863 q 169 910 182 901 q 149 918 157 918 q 110 843 110 918 l -36 843 q 5 1023 -36 963 q 125 1083 46 1083 q 194 1067 164 1083 q 257 1022 225 1050 q 283 1003 271 1011 q 304 994 296 994 q 343 1065 343 994 l 489 1065 q 448 889 489 949 q 328 829 407 829 z "},"j":{"ha":464,"x_min":-131,"x_max":426,"o":"m 63 -283 q -131 -246 -58 -283 l -56 -28 q 15 -46 -22 -46 q 63 -24 44 -46 q 81 42 81 -3 l 81 760 l 394 760 l 394 39 q 306 -197 394 -110 q 63 -283 218 -283 m 238 821 q 101 866 153 821 q 49 981 49 911 q 101 1095 49 1050 q 238 1140 153 1140 q 375 1097 324 1140 q 426 986 426 1054 q 375 867 426 914 q 238 821 324 821 z "},"ȷ":{"ha":464,"x_min":-131,"x_max":394,"o":"m 63 -283 q -131 -246 -58 -283 l -56 -28 q 15 -46 -22 -46 q 63 -24 44 -46 q 81 42 81 -3 l 81 760 l 394 760 l 394 39 q 306 -197 394 -110 q 63 -283 218 -283 z "},"ĵ":{"ha":464,"x_min":-131,"x_max":514,"o":"m 63 -283 q -131 -246 -58 -283 l -56 -28 q 15 -46 -22 -46 q 63 -24 44 -46 q 81 42 81 -3 l 81 760 l 394 760 l 394 39 q 306 -197 394 -110 q 63 -283 218 -283 m 319 843 l 238 936 l 156 843 l -39 843 l 107 1065 l 368 1065 l 514 843 l 319 843 z "},"k":{"ha":990,"x_min":69,"x_max":997,"o":"m 433 233 l 383 179 l 383 0 l 69 0 l 69 1031 l 383 1031 l 383 539 l 601 760 l 972 760 l 658 431 l 997 0 l 618 0 l 433 233 z "},"ǩ":{"ha":990,"x_min":-85,"x_max":997,"o":"m 433 233 l 383 179 l 383 0 l 69 0 l 69 1031 l 383 1031 l 383 539 l 601 760 l 972 760 l 658 431 l 997 0 l 618 0 l 433 233 m 538 1336 l 360 1114 l 93 1114 l -85 1336 l 110 1336 l 226 1229 l 343 1336 l 538 1336 z "},"ķ":{"ha":990,"x_min":69,"x_max":997,"o":"m 433 233 l 383 179 l 383 0 l 69 0 l 69 1031 l 383 1031 l 383 539 l 601 760 l 972 760 l 658 431 l 997 0 l 618 0 l 433 233 m 449 -69 q 540 -98 507 -69 q 574 -174 574 -126 q 539 -285 574 -225 l 485 -375 l 347 -375 l 383 -265 q 324 -174 324 -243 q 357 -98 324 -126 q 449 -69 390 -69 z "},"ĸ":{"ha":958,"x_min":69,"x_max":997,"o":"m 433 233 l 383 179 l 383 0 l 69 0 l 69 760 l 383 760 l 383 539 l 601 760 l 972 760 l 658 431 l 997 0 l 618 0 l 433 233 z "},"l":{"ha":453,"x_min":69,"x_max":383,"o":"m 69 1031 l 383 1031 l 383 0 l 69 0 l 69 1031 z "},"ĺ":{"ha":453,"x_min":69,"x_max":563,"o":"m 69 1031 l 383 1031 l 383 0 l 69 0 l 69 1031 m 264 1336 l 563 1336 l 289 1114 l 81 1114 l 264 1336 z "},"ľ":{"ha":453,"x_min":69,"x_max":700,"o":"m 69 1031 l 383 1031 l 383 0 l 69 0 l 69 1031 m 481 1100 l 700 1100 l 658 808 l 481 808 l 481 1100 z "},"ļ":{"ha":453,"x_min":69,"x_max":383,"o":"m 69 1031 l 383 1031 l 383 0 l 69 0 l 69 1031 m 226 -69 q 318 -98 285 -69 q 351 -174 351 -126 q 317 -285 351 -225 l 263 -375 l 125 -375 l 161 -265 q 101 -174 101 -243 q 135 -98 101 -126 q 226 -69 168 -69 z "},"ŀ":{"ha":703,"x_min":69,"x_max":721,"o":"m 69 1031 l 383 1031 l 383 0 l 69 0 l 69 1031 m 578 371 q 476 410 515 371 q 436 514 436 450 q 476 616 436 576 q 578 656 515 656 q 681 616 642 656 q 721 514 721 576 q 681 410 721 450 q 578 371 642 371 z "},"ḷ":{"ha":453,"x_min":69,"x_max":383,"o":"m 69 1031 l 383 1031 l 383 0 l 69 0 l 69 1031 m 226 -314 q 137 -281 172 -314 q 101 -193 101 -247 q 137 -104 101 -139 q 226 -69 172 -69 q 316 -104 281 -69 q 351 -193 351 -139 q 316 -281 351 -247 q 226 -314 281 -314 z "},"ǉ":{"ha":917,"x_min":69,"x_max":879,"o":"m 69 1031 l 383 1031 l 383 0 l 69 0 l 69 1031 m 515 -283 q 322 -246 394 -283 l 397 -28 q 468 -46 431 -46 q 515 -24 497 -46 q 533 42 533 -3 l 533 760 l 847 760 l 847 39 q 759 -197 847 -110 q 515 -283 671 -283 m 690 821 q 553 866 606 821 q 501 981 501 911 q 553 1095 501 1050 q 690 1140 606 1140 q 828 1097 776 1140 q 879 986 879 1054 q 828 867 879 914 q 690 821 776 821 z "},"ḻ":{"ha":453,"x_min":-65,"x_max":518,"o":"m 69 1031 l 383 1031 l 383 0 l 69 0 l 69 1031 m -65 -103 l 518 -103 l 518 -267 l -65 -267 l -65 -103 z "},"ł":{"ha":508,"x_min":-67,"x_max":575,"o":"m 97 1031 l 411 1031 l 411 0 l 97 0 l 97 1031 m -67 381 l 478 783 l 575 644 l 31 242 l -67 381 z "},"m":{"ha":1444,"x_min":69,"x_max":1378,"o":"m 1075 774 q 1295 689 1213 774 q 1378 433 1378 604 l 1378 0 l 1064 0 l 1064 379 q 979 510 1064 510 q 908 476 935 510 q 881 371 881 443 l 881 0 l 567 0 l 567 379 q 482 510 567 510 q 410 476 438 510 q 383 371 383 443 l 383 0 l 69 0 l 69 760 l 368 760 l 368 689 q 583 774 453 774 q 721 745 660 774 q 821 658 782 717 q 932 744 867 714 q 1075 774 997 774 z "},"ṃ":{"ha":1444,"x_min":69,"x_max":1378,"o":"m 1075 774 q 1295 689 1213 774 q 1378 433 1378 604 l 1378 0 l 1064 0 l 1064 379 q 979 510 1064 510 q 908 476 935 510 q 881 371 881 443 l 881 0 l 567 0 l 567 379 q 482 510 567 510 q 410 476 438 510 q 383 371 383 443 l 383 0 l 69 0 l 69 760 l 368 760 l 368 689 q 583 774 453 774 q 721 745 660 774 q 821 658 782 717 q 932 744 867 714 q 1075 774 997 774 m 721 -314 q 631 -281 667 -314 q 596 -193 596 -247 q 631 -104 596 -139 q 721 -69 667 -69 q 810 -104 775 -69 q 846 -193 846 -139 q 810 -281 846 -247 q 721 -314 775 -314 z "},"n":{"ha":975,"x_min":69,"x_max":908,"o":"m 597 774 q 823 689 738 774 q 908 433 908 604 l 908 0 l 594 0 l 594 379 q 501 510 594 510 q 416 473 449 510 q 383 357 383 436 l 383 0 l 69 0 l 69 760 l 368 760 l 368 685 q 471 751 413 729 q 597 774 529 774 z "},"ń":{"ha":975,"x_min":69,"x_max":908,"o":"m 597 774 q 823 689 738 774 q 908 433 908 604 l 908 0 l 594 0 l 594 379 q 501 510 594 510 q 416 473 449 510 q 383 357 383 436 l 383 0 l 69 0 l 69 760 l 368 760 l 368 685 q 471 751 413 729 q 597 774 529 774 m 531 1065 l 829 1065 l 556 843 l 347 843 l 531 1065 z "},"ŉ":{"ha":1221,"x_min":39,"x_max":1154,"o":"m 39 972 l 240 972 l 199 606 l 39 606 l 39 972 m 843 774 q 1069 689 983 774 q 1154 433 1154 604 l 1154 0 l 840 0 l 840 379 q 747 510 840 510 q 662 473 694 510 q 629 357 629 436 l 629 0 l 315 0 l 315 760 l 614 760 l 614 685 q 717 751 658 729 q 843 774 775 774 z "},"ň":{"ha":975,"x_min":69,"x_max":908,"o":"m 597 774 q 823 689 738 774 q 908 433 908 604 l 908 0 l 594 0 l 594 379 q 501 510 594 510 q 416 473 449 510 q 383 357 383 436 l 383 0 l 69 0 l 69 760 l 368 760 l 368 685 q 471 751 413 729 q 597 774 529 774 m 804 1065 l 626 843 l 360 843 l 182 1065 l 376 1065 l 493 958 l 610 1065 l 804 1065 z "},"ņ":{"ha":975,"x_min":69,"x_max":908,"o":"m 597 774 q 823 689 738 774 q 908 433 908 604 l 908 0 l 594 0 l 594 379 q 501 510 594 510 q 416 473 449 510 q 383 357 383 436 l 383 0 l 69 0 l 69 760 l 368 760 l 368 685 q 471 751 413 729 q 597 774 529 774 m 493 -69 q 585 -98 551 -69 q 618 -174 618 -126 q 583 -285 618 -225 l 529 -375 l 392 -375 l 428 -265 q 368 -174 368 -243 q 401 -98 368 -126 q 493 -69 435 -69 z "},"ṅ":{"ha":975,"x_min":69,"x_max":908,"o":"m 597 774 q 823 689 738 774 q 908 433 908 604 l 908 0 l 594 0 l 594 379 q 501 510 594 510 q 416 473 449 510 q 383 357 383 436 l 383 0 l 69 0 l 69 760 l 368 760 l 368 685 q 471 751 413 729 q 597 774 529 774 m 493 829 q 379 874 424 829 q 335 988 335 918 q 379 1101 335 1057 q 493 1146 424 1146 q 607 1101 563 1146 q 651 988 651 1057 q 607 874 651 918 q 493 829 563 829 z "},"ṇ":{"ha":975,"x_min":69,"x_max":908,"o":"m 597 774 q 823 689 738 774 q 908 433 908 604 l 908 0 l 594 0 l 594 379 q 501 510 594 510 q 416 473 449 510 q 383 357 383 436 l 383 0 l 69 0 l 69 760 l 368 760 l 368 685 q 471 751 413 729 q 597 774 529 774 m 493 -314 q 403 -281 439 -314 q 368 -193 368 -247 q 403 -104 368 -139 q 493 -69 439 -69 q 583 -104 547 -69 q 618 -193 618 -139 q 583 -281 618 -247 q 493 -314 547 -314 z "},"ŋ":{"ha":975,"x_min":69,"x_max":908,"o":"m 597 774 q 823 689 738 774 q 908 433 908 604 l 908 39 q 820 -197 908 -110 q 576 -283 732 -283 q 383 -246 457 -283 l 458 -28 q 529 -46 492 -46 q 576 -24 558 -46 q 594 42 594 -3 l 594 379 q 501 510 594 510 q 416 473 449 510 q 383 357 383 436 l 383 0 l 69 0 l 69 760 l 368 760 l 368 685 q 471 751 413 729 q 597 774 529 774 z "},"ǌ":{"ha":1439,"x_min":69,"x_max":1401,"o":"m 597 774 q 823 689 738 774 q 908 433 908 604 l 908 0 l 594 0 l 594 379 q 501 510 594 510 q 416 473 449 510 q 383 357 383 436 l 383 0 l 69 0 l 69 760 l 368 760 l 368 685 q 471 751 413 729 q 597 774 529 774 m 1038 -283 q 844 -246 917 -283 l 919 -28 q 990 -46 953 -46 q 1038 -24 1019 -46 q 1056 42 1056 -3 l 1056 760 l 1369 760 l 1369 39 q 1281 -197 1369 -110 q 1038 -283 1193 -283 m 1213 821 q 1076 866 1128 821 q 1024 981 1024 911 q 1076 1095 1024 1050 q 1213 1140 1128 1140 q 1350 1097 1299 1140 q 1401 986 1401 1054 q 1350 867 1401 914 q 1213 821 1299 821 z "},"ṉ":{"ha":975,"x_min":69,"x_max":908,"o":"m 597 774 q 823 689 738 774 q 908 433 908 604 l 908 0 l 594 0 l 594 379 q 501 510 594 510 q 416 473 449 510 q 383 357 383 436 l 383 0 l 69 0 l 69 760 l 368 760 l 368 685 q 471 751 413 729 q 597 774 529 774 m 201 -103 l 785 -103 l 785 -267 l 201 -267 l 201 -103 z "},"ñ":{"ha":975,"x_min":69,"x_max":908,"o":"m 597 774 q 823 689 738 774 q 908 433 908 604 l 908 0 l 594 0 l 594 379 q 501 510 594 510 q 416 473 449 510 q 383 357 383 436 l 383 0 l 69 0 l 69 760 l 368 760 l 368 685 q 471 751 413 729 q 597 774 529 774 m 606 829 q 533 843 565 829 q 467 881 501 857 q 428 903 443 896 q 400 911 414 911 q 357 893 374 911 q 338 843 340 875 l 189 843 q 242 1019 192 954 q 381 1083 293 1083 q 453 1069 421 1083 q 519 1032 485 1056 q 558 1008 543 1015 q 586 1001 572 1001 q 629 1019 613 1001 q 649 1065 646 1036 l 797 1065 q 744 894 794 958 q 606 829 693 829 z "},"o":{"ha":942,"x_min":29,"x_max":913,"o":"m 471 -14 q 244 37 344 -14 q 86 177 143 88 q 29 381 29 267 q 86 584 29 494 q 244 724 143 674 q 471 774 344 774 q 699 724 599 774 q 856 584 800 674 q 913 381 913 494 q 856 177 913 267 q 699 37 800 88 q 471 -14 599 -14 m 471 231 q 560 270 525 231 q 594 381 594 310 q 560 490 594 451 q 471 529 525 529 q 382 490 417 529 q 347 381 347 451 q 382 270 347 310 q 471 231 417 231 z "},"ó":{"ha":942,"x_min":29,"x_max":913,"o":"m 471 -14 q 244 37 344 -14 q 86 177 143 88 q 29 381 29 267 q 86 584 29 494 q 244 724 143 674 q 471 774 344 774 q 699 724 599 774 q 856 584 800 674 q 913 381 913 494 q 856 177 913 267 q 699 37 800 88 q 471 -14 599 -14 m 471 231 q 560 270 525 231 q 594 381 594 310 q 560 490 594 451 q 471 529 525 529 q 382 490 417 529 q 347 381 347 451 q 382 270 347 310 q 471 231 417 231 m 504 1065 l 803 1065 l 529 843 l 321 843 l 504 1065 z "},"ŏ":{"ha":942,"x_min":29,"x_max":913,"o":"m 471 -14 q 244 37 344 -14 q 86 177 143 88 q 29 381 29 267 q 86 584 29 494 q 244 724 143 674 q 471 774 344 774 q 699 724 599 774 q 856 584 800 674 q 913 381 913 494 q 856 177 913 267 q 699 37 800 88 q 471 -14 599 -14 m 471 231 q 560 270 525 231 q 594 381 594 310 q 560 490 594 451 q 471 529 525 529 q 382 490 417 529 q 347 381 347 451 q 382 270 347 310 q 471 231 417 231 m 467 829 q 261 893 340 829 q 176 1065 182 957 l 364 1065 q 395 1003 367 1026 q 467 981 424 981 q 538 1003 510 981 q 569 1065 567 1026 l 757 1065 q 672 893 751 957 q 467 829 593 829 z "},"ô":{"ha":942,"x_min":29,"x_max":913,"o":"m 471 -14 q 244 37 344 -14 q 86 177 143 88 q 29 381 29 267 q 86 584 29 494 q 244 724 143 674 q 471 774 344 774 q 699 724 599 774 q 856 584 800 674 q 913 381 913 494 q 856 177 913 267 q 699 37 800 88 q 471 -14 599 -14 m 471 231 q 560 270 525 231 q 594 381 594 310 q 560 490 594 451 q 471 529 525 529 q 382 490 417 529 q 347 381 347 451 q 382 270 347 310 q 471 231 417 231 m 583 843 l 467 950 l 350 843 l 156 843 l 333 1065 l 600 1065 l 778 843 l 583 843 z "},"ố":{"ha":942,"x_min":29,"x_max":1108,"o":"m 471 -14 q 244 37 344 -14 q 86 177 143 88 q 29 381 29 267 q 86 584 29 494 q 244 724 143 674 q 471 774 344 774 q 699 724 599 774 q 856 584 800 674 q 913 381 913 494 q 856 177 913 267 q 699 37 800 88 q 471 -14 599 -14 m 471 231 q 560 270 525 231 q 594 381 594 310 q 560 490 594 451 q 471 529 525 529 q 382 490 417 529 q 347 381 347 451 q 382 270 347 310 q 471 231 417 231 m 583 843 l 467 928 l 350 843 l 156 843 l 335 1024 l 599 1024 l 778 843 l 583 843 m 810 1169 l 1108 1169 l 876 989 l 668 989 l 810 1169 z "},"ộ":{"ha":942,"x_min":29,"x_max":913,"o":"m 471 -14 q 244 37 344 -14 q 86 177 143 88 q 29 381 29 267 q 86 584 29 494 q 244 724 143 674 q 471 774 344 774 q 699 724 599 774 q 856 584 800 674 q 913 381 913 494 q 856 177 913 267 q 699 37 800 88 q 471 -14 599 -14 m 471 231 q 560 270 525 231 q 594 381 594 310 q 560 490 594 451 q 471 529 525 529 q 382 490 417 529 q 347 381 347 451 q 382 270 347 310 q 471 231 417 231 m 467 -314 q 377 -281 413 -314 q 342 -193 342 -247 q 377 -104 342 -139 q 467 -69 413 -69 q 556 -104 521 -69 q 592 -193 592 -139 q 556 -281 592 -247 q 467 -314 521 -314 m 583 843 l 467 950 l 350 843 l 156 843 l 333 1065 l 600 1065 l 778 843 l 583 843 z "},"ồ":{"ha":942,"x_min":29,"x_max":960,"o":"m 471 -14 q 244 37 344 -14 q 86 177 143 88 q 29 381 29 267 q 86 584 29 494 q 244 724 143 674 q 471 774 344 774 q 699 724 599 774 q 856 584 800 674 q 913 381 913 494 q 856 177 913 267 q 699 37 800 88 q 471 -14 599 -14 m 471 231 q 560 270 525 231 q 594 381 594 310 q 560 490 594 451 q 471 529 525 529 q 382 490 417 529 q 347 381 347 451 q 382 270 347 310 q 471 231 417 231 m 583 843 l 467 928 l 350 843 l 156 843 l 335 1024 l 599 1024 l 778 843 l 583 843 m 519 1169 l 818 1169 l 960 989 l 751 989 l 519 1169 z "},"ổ":{"ha":942,"x_min":29,"x_max":913,"o":"m 471 -14 q 244 37 344 -14 q 86 177 143 88 q 29 381 29 267 q 86 584 29 494 q 244 724 143 674 q 471 774 344 774 q 699 724 599 774 q 856 584 800 674 q 913 381 913 494 q 856 177 913 267 q 699 37 800 88 q 471 -14 599 -14 m 471 231 q 560 270 525 231 q 594 381 594 310 q 560 490 594 451 q 471 529 525 529 q 382 490 417 529 q 347 381 347 451 q 382 270 347 310 q 471 231 417 231 m 583 843 l 467 928 l 350 843 l 156 843 l 335 1024 l 599 1024 l 778 843 l 583 843 m 693 1024 q 740 1075 740 1049 q 729 1100 740 1090 q 700 1110 718 1110 q 636 1093 669 1110 l 589 1178 q 726 1213 644 1213 q 835 1180 794 1213 q 875 1090 875 1147 q 844 1013 875 1047 q 765 961 813 979 l 693 1024 z "},"ỗ":{"ha":942,"x_min":29,"x_max":913,"o":"m 471 -14 q 244 37 344 -14 q 86 177 143 88 q 29 381 29 267 q 86 584 29 494 q 244 724 143 674 q 471 774 344 774 q 699 724 599 774 q 856 584 800 674 q 913 381 913 494 q 856 177 913 267 q 699 37 800 88 q 471 -14 599 -14 m 471 231 q 560 270 525 231 q 594 381 594 310 q 560 490 594 451 q 471 529 525 529 q 382 490 417 529 q 347 381 347 451 q 382 270 347 310 q 471 231 417 231 m 583 843 l 467 928 l 350 843 l 156 843 l 335 1024 l 599 1024 l 778 843 l 583 843 m 572 1072 q 500 1085 532 1072 q 433 1119 468 1097 q 404 1135 418 1129 q 381 1142 390 1142 q 341 1126 357 1142 q 322 1085 325 1110 l 169 1085 q 220 1238 169 1183 q 361 1292 271 1292 q 433 1279 401 1292 q 500 1246 464 1267 q 531 1229 515 1236 q 556 1222 546 1222 q 597 1239 581 1222 q 615 1279 613 1256 l 764 1279 q 715 1127 764 1182 q 572 1072 665 1072 z "},"ȍ":{"ha":942,"x_min":29,"x_max":913,"o":"m 471 -14 q 244 37 344 -14 q 86 177 143 88 q 29 381 29 267 q 86 584 29 494 q 244 724 143 674 q 471 774 344 774 q 699 724 599 774 q 856 584 800 674 q 913 381 913 494 q 856 177 913 267 q 699 37 800 88 q 471 -14 599 -14 m 471 231 q 560 270 525 231 q 594 381 594 310 q 560 490 594 451 q 471 529 525 529 q 382 490 417 529 q 347 381 347 451 q 382 270 347 310 q 471 231 417 231 m 65 1065 l 336 1065 l 408 843 l 200 843 l 65 1065 m 390 1065 l 661 1065 l 733 843 l 525 843 l 390 1065 z "},"ö":{"ha":942,"x_min":29,"x_max":913,"o":"m 471 -14 q 244 37 344 -14 q 86 177 143 88 q 29 381 29 267 q 86 584 29 494 q 244 724 143 674 q 471 774 344 774 q 699 724 599 774 q 856 584 800 674 q 913 381 913 494 q 856 177 913 267 q 699 37 800 88 q 471 -14 599 -14 m 471 231 q 560 270 525 231 q 594 381 594 310 q 560 490 594 451 q 471 529 525 529 q 382 490 417 529 q 347 381 347 451 q 382 270 347 310 q 471 231 417 231 m 313 832 q 223 866 258 832 q 188 954 188 900 q 223 1043 188 1008 q 313 1078 258 1078 q 402 1043 367 1078 q 438 954 438 1008 q 402 866 438 900 q 313 832 367 832 m 621 832 q 531 866 567 832 q 496 954 496 900 q 531 1043 496 1008 q 621 1078 567 1078 q 710 1043 675 1078 q 746 954 746 1008 q 710 866 746 900 q 621 832 675 832 z "},"ȫ":{"ha":942,"x_min":29,"x_max":913,"o":"m 471 -14 q 244 37 344 -14 q 86 177 143 88 q 29 381 29 267 q 86 584 29 494 q 244 724 143 674 q 471 774 344 774 q 699 724 599 774 q 856 584 800 674 q 913 381 913 494 q 856 177 913 267 q 699 37 800 88 q 471 -14 599 -14 m 471 231 q 560 270 525 231 q 594 381 594 310 q 560 490 594 451 q 471 529 525 529 q 382 490 417 529 q 347 381 347 451 q 382 270 347 310 q 471 231 417 231 m 319 832 q 235 864 268 832 q 201 947 201 896 q 235 1031 201 999 q 319 1064 269 1064 q 403 1031 369 1064 q 438 947 438 999 q 404 864 438 896 q 319 832 371 832 m 614 832 q 529 864 563 832 q 496 947 496 896 q 530 1031 496 999 q 614 1064 564 1064 q 698 1031 664 1064 q 732 947 732 999 q 699 864 732 896 q 614 832 665 832 m 175 1265 l 758 1265 l 758 1110 l 175 1110 l 175 1265 z "},"ȱ":{"ha":942,"x_min":29,"x_max":913,"o":"m 471 -14 q 244 37 344 -14 q 86 177 143 88 q 29 381 29 267 q 86 584 29 494 q 244 724 143 674 q 471 774 344 774 q 699 724 599 774 q 856 584 800 674 q 913 381 913 494 q 856 177 913 267 q 699 37 800 88 q 471 -14 599 -14 m 471 231 q 560 270 525 231 q 594 381 594 310 q 560 490 594 451 q 471 529 525 529 q 382 490 417 529 q 347 381 347 451 q 382 270 347 310 q 471 231 417 231 m 467 829 q 377 863 413 829 q 342 950 342 896 q 377 1039 342 1004 q 467 1074 413 1074 q 556 1039 521 1074 q 592 950 592 1004 q 556 863 592 896 q 467 829 521 829 m 175 1279 l 758 1279 l 758 1124 l 175 1124 l 175 1279 z "},"ọ":{"ha":942,"x_min":29,"x_max":913,"o":"m 471 -14 q 244 37 344 -14 q 86 177 143 88 q 29 381 29 267 q 86 584 29 494 q 244 724 143 674 q 471 774 344 774 q 699 724 599 774 q 856 584 800 674 q 913 381 913 494 q 856 177 913 267 q 699 37 800 88 q 471 -14 599 -14 m 471 231 q 560 270 525 231 q 594 381 594 310 q 560 490 594 451 q 471 529 525 529 q 382 490 417 529 q 347 381 347 451 q 382 270 347 310 q 471 231 417 231 m 467 -314 q 377 -281 413 -314 q 342 -193 342 -247 q 377 -104 342 -139 q 467 -69 413 -69 q 556 -104 521 -69 q 592 -193 592 -139 q 556 -281 592 -247 q 467 -314 521 -314 z "},"ò":{"ha":942,"x_min":29,"x_max":913,"o":"m 471 -14 q 244 37 344 -14 q 86 177 143 88 q 29 381 29 267 q 86 584 29 494 q 244 724 143 674 q 471 774 344 774 q 699 724 599 774 q 856 584 800 674 q 913 381 913 494 q 856 177 913 267 q 699 37 800 88 q 471 -14 599 -14 m 471 231 q 560 270 525 231 q 594 381 594 310 q 560 490 594 451 q 471 529 525 529 q 382 490 417 529 q 347 381 347 451 q 382 270 347 310 q 471 231 417 231 m 131 1065 l 429 1065 l 613 843 l 404 843 l 131 1065 z "},"ỏ":{"ha":942,"x_min":29,"x_max":913,"o":"m 471 -14 q 244 37 344 -14 q 86 177 143 88 q 29 381 29 267 q 86 584 29 494 q 244 724 143 674 q 471 774 344 774 q 699 724 599 774 q 856 584 800 674 q 913 381 913 494 q 856 177 913 267 q 699 37 800 88 q 471 -14 599 -14 m 471 231 q 560 270 525 231 q 594 381 594 310 q 560 490 594 451 q 471 529 525 529 q 382 490 417 529 q 347 381 347 451 q 382 270 347 310 q 471 231 417 231 m 432 919 q 482 955 468 936 q 496 994 496 974 q 480 1033 496 1019 q 438 1047 464 1047 q 358 1019 399 1047 l 294 1136 q 474 1192 367 1192 q 615 1144 561 1192 q 669 1021 669 1097 q 633 908 669 954 q 526 829 597 861 l 432 919 z "},"ơ":{"ha":942,"x_min":29,"x_max":913,"o":"m 813 640 q 913 381 913 533 q 856 177 913 267 q 698 37 799 88 q 471 -14 597 -14 q 242 37 343 -14 q 85 177 142 88 q 29 381 29 267 q 86 584 29 494 q 244 724 143 674 q 475 774 346 774 q 579 765 521 774 q 638 760 624 760 q 689 783 671 760 q 707 844 707 806 q 676 924 707 888 l 854 986 q 908 832 908 918 q 883 722 908 771 q 813 640 858 674 m 471 231 q 560 270 525 231 q 594 381 594 310 q 560 490 594 451 q 471 529 525 529 q 382 490 417 529 q 347 381 347 451 q 382 270 347 310 q 471 231 417 231 z "},"ớ":{"ha":942,"x_min":29,"x_max":913,"o":"m 813 640 q 913 381 913 533 q 856 177 913 267 q 698 37 799 88 q 471 -14 597 -14 q 242 37 343 -14 q 85 177 142 88 q 29 381 29 267 q 86 584 29 494 q 244 724 143 674 q 475 774 346 774 q 579 765 521 774 q 638 760 624 760 q 689 783 671 760 q 707 844 707 806 q 676 924 707 888 l 854 986 q 908 832 908 918 q 883 722 908 771 q 813 640 858 674 m 471 231 q 560 270 525 231 q 594 381 594 310 q 560 490 594 451 q 471 529 525 529 q 382 490 417 529 q 347 381 347 451 q 382 270 347 310 q 471 231 417 231 m 508 1065 l 807 1065 l 533 843 l 325 843 l 508 1065 z "},"ợ":{"ha":942,"x_min":29,"x_max":913,"o":"m 813 640 q 913 381 913 533 q 856 177 913 267 q 698 37 799 88 q 471 -14 597 -14 q 242 37 343 -14 q 85 177 142 88 q 29 381 29 267 q 86 584 29 494 q 244 724 143 674 q 475 774 346 774 q 579 765 521 774 q 638 760 624 760 q 689 783 671 760 q 707 844 707 806 q 676 924 707 888 l 854 986 q 908 832 908 918 q 883 722 908 771 q 813 640 858 674 m 471 231 q 560 270 525 231 q 594 381 594 310 q 560 490 594 451 q 471 529 525 529 q 382 490 417 529 q 347 381 347 451 q 382 270 347 310 q 471 231 417 231 m 471 -314 q 381 -281 417 -314 q 346 -193 346 -247 q 381 -104 346 -139 q 471 -69 417 -69 q 560 -104 525 -69 q 596 -193 596 -139 q 560 -281 596 -247 q 471 -314 525 -314 z "},"ờ":{"ha":942,"x_min":29,"x_max":913,"o":"m 813 640 q 913 381 913 533 q 856 177 913 267 q 698 37 799 88 q 471 -14 597 -14 q 242 37 343 -14 q 85 177 142 88 q 29 381 29 267 q 86 584 29 494 q 244 724 143 674 q 475 774 346 774 q 579 765 521 774 q 638 760 624 760 q 689 783 671 760 q 707 844 707 806 q 676 924 707 888 l 854 986 q 908 832 908 918 q 883 722 908 771 q 813 640 858 674 m 471 231 q 560 270 525 231 q 594 381 594 310 q 560 490 594 451 q 471 529 525 529 q 382 490 417 529 q 347 381 347 451 q 382 270 347 310 q 471 231 417 231 m 135 1065 l 433 1065 l 617 843 l 408 843 l 135 1065 z "},"ở":{"ha":942,"x_min":29,"x_max":913,"o":"m 813 640 q 913 381 913 533 q 856 177 913 267 q 698 37 799 88 q 471 -14 597 -14 q 242 37 343 -14 q 85 177 142 88 q 29 381 29 267 q 86 584 29 494 q 244 724 143 674 q 475 774 346 774 q 579 765 521 774 q 638 760 624 760 q 689 783 671 760 q 707 844 707 806 q 676 924 707 888 l 854 986 q 908 832 908 918 q 883 722 908 771 q 813 640 858 674 m 471 231 q 560 270 525 231 q 594 381 594 310 q 560 490 594 451 q 471 529 525 529 q 382 490 417 529 q 347 381 347 451 q 382 270 347 310 q 471 231 417 231 m 436 919 q 486 955 472 936 q 500 994 500 974 q 484 1033 500 1019 q 442 1047 468 1047 q 363 1019 403 1047 l 299 1136 q 478 1192 371 1192 q 619 1144 565 1192 q 674 1021 674 1097 q 638 908 674 954 q 531 829 601 861 l 436 919 z "},"ỡ":{"ha":933,"x_min":29,"x_max":913,"o":"m 813 640 q 913 381 913 533 q 856 177 913 267 q 698 37 799 88 q 471 -14 597 -14 q 242 37 343 -14 q 85 177 142 88 q 29 381 29 267 q 86 584 29 494 q 244 724 143 674 q 475 774 346 774 q 579 765 521 774 q 638 760 624 760 q 689 783 671 760 q 707 844 707 806 q 676 924 707 888 l 854 986 q 908 832 908 918 q 883 722 908 771 q 813 640 858 674 m 471 231 q 560 270 525 231 q 594 381 594 310 q 560 490 594 451 q 471 529 525 529 q 382 490 417 529 q 347 381 347 451 q 382 270 347 310 q 471 231 417 231 m 533 829 q 475 843 501 829 q 422 881 450 857 q 391 903 403 896 q 369 911 380 911 q 334 893 348 911 q 319 843 321 875 l 200 843 q 243 1019 202 954 q 353 1083 283 1083 q 411 1069 385 1083 q 464 1032 436 1056 q 495 1008 483 1015 q 518 1001 506 1001 q 552 1019 539 1001 q 568 1065 565 1036 l 686 1065 q 644 894 684 958 q 533 829 603 829 z "},"ő":{"ha":942,"x_min":29,"x_max":913,"o":"m 471 -14 q 244 37 344 -14 q 86 177 143 88 q 29 381 29 267 q 86 584 29 494 q 244 724 143 674 q 471 774 344 774 q 699 724 599 774 q 856 584 800 674 q 913 381 913 494 q 856 177 913 267 q 699 37 800 88 q 471 -14 599 -14 m 471 231 q 560 270 525 231 q 594 381 594 310 q 560 490 594 451 q 471 529 525 529 q 382 490 417 529 q 347 381 347 451 q 382 270 347 310 q 471 231 417 231 m 272 1065 l 543 1065 l 408 843 l 200 843 l 272 1065 m 597 1065 l 868 1065 l 733 843 l 525 843 l 597 1065 z "},"ȏ":{"ha":942,"x_min":29,"x_max":913,"o":"m 471 -14 q 244 37 344 -14 q 86 177 143 88 q 29 381 29 267 q 86 584 29 494 q 244 724 143 674 q 471 774 344 774 q 699 724 599 774 q 856 584 800 674 q 913 381 913 494 q 856 177 913 267 q 699 37 800 88 q 471 -14 599 -14 m 471 231 q 560 270 525 231 q 594 381 594 310 q 560 490 594 451 q 471 529 525 529 q 382 490 417 529 q 347 381 347 451 q 382 270 347 310 q 471 231 417 231 m 176 843 q 261 1015 182 951 q 467 1079 340 1079 q 672 1015 593 1079 q 757 843 751 951 l 569 843 q 538 905 567 882 q 467 928 510 928 q 395 905 424 928 q 364 843 367 882 l 176 843 z "},"ō":{"ha":942,"x_min":29,"x_max":913,"o":"m 471 -14 q 244 37 344 -14 q 86 177 143 88 q 29 381 29 267 q 86 584 29 494 q 244 724 143 674 q 471 774 344 774 q 699 724 599 774 q 856 584 800 674 q 913 381 913 494 q 856 177 913 267 q 699 37 800 88 q 471 -14 599 -14 m 471 231 q 560 270 525 231 q 594 381 594 310 q 560 490 594 451 q 471 529 525 529 q 382 490 417 529 q 347 381 347 451 q 382 270 347 310 q 471 231 417 231 m 175 1036 l 758 1036 l 758 872 l 175 872 l 175 1036 z "},"ṓ":{"ha":942,"x_min":29,"x_max":913,"o":"m 471 -14 q 244 37 344 -14 q 86 177 143 88 q 29 381 29 267 q 86 584 29 494 q 244 724 143 674 q 471 774 344 774 q 699 724 599 774 q 856 584 800 674 q 913 381 913 494 q 856 177 913 267 q 699 37 800 88 q 471 -14 599 -14 m 471 231 q 560 270 525 231 q 594 381 594 310 q 560 490 594 451 q 471 529 525 529 q 382 490 417 529 q 347 381 347 451 q 382 270 347 310 q 471 231 417 231 m 175 1011 l 758 1011 l 758 856 l 175 856 l 175 1011 m 463 1278 l 761 1278 l 529 1097 l 321 1097 l 463 1278 z "},"ṑ":{"ha":942,"x_min":29,"x_max":913,"o":"m 471 -14 q 244 37 344 -14 q 86 177 143 88 q 29 381 29 267 q 86 584 29 494 q 244 724 143 674 q 471 774 344 774 q 699 724 599 774 q 856 584 800 674 q 913 381 913 494 q 856 177 913 267 q 699 37 800 88 q 471 -14 599 -14 m 471 231 q 560 270 525 231 q 594 381 594 310 q 560 490 594 451 q 471 529 525 529 q 382 490 417 529 q 347 381 347 451 q 382 270 347 310 q 471 231 417 231 m 175 1011 l 758 1011 l 758 856 l 175 856 l 175 1011 m 172 1278 l 471 1278 l 613 1097 l 404 1097 l 172 1278 z "},"ǫ":{"ha":942,"x_min":29,"x_max":913,"o":"m 647 15 q 515 -57 551 -21 q 479 -133 479 -93 q 498 -175 479 -158 q 553 -192 517 -192 q 635 -172 593 -192 l 672 -301 q 603 -324 647 -315 q 515 -333 560 -333 q 354 -287 413 -333 q 296 -162 296 -242 q 318 -77 296 -117 q 382 -7 340 -37 q 198 63 278 10 q 74 199 118 117 q 29 381 29 281 q 86 584 29 494 q 244 724 143 674 q 471 774 344 774 q 699 724 599 774 q 856 584 800 674 q 913 381 913 494 q 841 158 913 254 q 647 15 769 63 m 471 529 q 382 490 417 529 q 347 381 347 451 q 382 270 347 310 q 471 231 417 231 q 560 270 525 231 q 594 381 594 310 q 560 490 594 451 q 471 529 525 529 z "},"ø":{"ha":942,"x_min":29,"x_max":913,"o":"m 471 -14 q 244 37 344 -14 q 86 177 143 88 q 29 381 29 267 q 86 584 29 494 q 244 724 143 674 q 471 774 344 774 q 699 724 599 774 q 856 584 800 674 q 913 381 913 494 q 856 177 913 267 q 699 37 800 88 q 471 -14 599 -14 m 471 231 q 560 270 525 231 q 594 381 594 310 q 560 490 594 451 q 471 529 525 529 q 382 490 417 529 q 347 381 347 451 q 382 270 347 310 q 471 231 417 231 m 707 847 l 839 847 l 226 -97 l 94 -97 l 707 847 z "},"ǿ":{"ha":942,"x_min":29,"x_max":913,"o":"m 471 -14 q 244 37 344 -14 q 86 177 143 88 q 29 381 29 267 q 86 584 29 494 q 244 724 143 674 q 471 774 344 774 q 699 724 599 774 q 856 584 800 674 q 913 381 913 494 q 856 177 913 267 q 699 37 800 88 q 471 -14 599 -14 m 471 231 q 560 270 525 231 q 594 381 594 310 q 560 490 594 451 q 471 529 525 529 q 382 490 417 529 q 347 381 347 451 q 382 270 347 310 q 471 231 417 231 m 707 847 l 839 847 l 226 -97 l 94 -97 l 707 847 m 500 1065 l 799 1065 l 525 843 l 317 843 l 500 1065 z "},"õ":{"ha":942,"x_min":29,"x_max":913,"o":"m 471 -14 q 244 37 344 -14 q 86 177 143 88 q 29 381 29 267 q 86 584 29 494 q 244 724 143 674 q 471 774 344 774 q 699 724 599 774 q 856 584 800 674 q 913 381 913 494 q 856 177 913 267 q 699 37 800 88 q 471 -14 599 -14 m 471 231 q 560 270 525 231 q 594 381 594 310 q 560 490 594 451 q 471 529 525 529 q 382 490 417 529 q 347 381 347 451 q 382 270 347 310 q 471 231 417 231 m 579 829 q 507 843 539 829 q 440 881 475 857 q 402 903 417 896 q 374 911 388 911 q 331 893 347 911 q 311 843 314 875 l 163 843 q 216 1019 165 954 q 354 1083 267 1083 q 426 1069 394 1083 q 493 1032 458 1056 q 531 1008 517 1015 q 560 1001 546 1001 q 603 1019 586 1001 q 622 1065 619 1036 l 771 1065 q 717 894 768 958 q 579 829 667 829 z "},"ṍ":{"ha":942,"x_min":29,"x_max":913,"o":"m 471 -14 q 244 37 344 -14 q 86 177 143 88 q 29 381 29 267 q 86 584 29 494 q 244 724 143 674 q 471 774 344 774 q 699 724 599 774 q 856 584 800 674 q 913 381 913 494 q 856 177 913 267 q 699 37 800 88 q 471 -14 599 -14 m 471 231 q 560 270 525 231 q 594 381 594 310 q 560 490 594 451 q 471 529 525 529 q 382 490 417 529 q 347 381 347 451 q 382 270 347 310 q 471 231 417 231 m 572 829 q 500 842 532 829 q 433 876 468 854 q 404 892 418 886 q 381 899 390 899 q 341 883 357 899 q 322 842 325 867 l 169 842 q 220 994 169 940 q 361 1049 271 1049 q 433 1036 401 1049 q 500 1003 464 1024 q 531 986 515 993 q 556 979 546 979 q 597 996 581 979 q 615 1036 613 1013 l 764 1036 q 715 884 764 939 q 572 829 665 829 m 463 1278 l 761 1278 l 529 1097 l 321 1097 l 463 1278 z "},"ṏ":{"ha":942,"x_min":29,"x_max":913,"o":"m 471 -14 q 244 37 344 -14 q 86 177 143 88 q 29 381 29 267 q 86 584 29 494 q 244 724 143 674 q 471 774 344 774 q 699 724 599 774 q 856 584 800 674 q 913 381 913 494 q 856 177 913 267 q 699 37 800 88 q 471 -14 599 -14 m 471 231 q 560 270 525 231 q 594 381 594 310 q 560 490 594 451 q 471 529 525 529 q 382 490 417 529 q 347 381 347 451 q 382 270 347 310 q 471 231 417 231 m 572 829 q 500 842 532 829 q 433 876 468 854 q 404 892 418 886 q 381 899 390 899 q 341 883 357 899 q 322 842 325 867 l 169 842 q 220 994 169 940 q 361 1049 271 1049 q 433 1036 401 1049 q 500 1003 464 1024 q 531 986 515 993 q 556 979 546 979 q 597 996 581 979 q 615 1036 613 1013 l 764 1036 q 715 884 764 939 q 572 829 665 829 m 319 1086 q 235 1118 268 1086 q 201 1201 201 1150 q 235 1285 201 1253 q 319 1318 269 1318 q 403 1285 369 1318 q 438 1201 438 1253 q 404 1118 438 1150 q 319 1086 371 1086 m 614 1086 q 529 1118 563 1086 q 496 1201 496 1150 q 530 1285 496 1253 q 614 1318 564 1318 q 698 1285 664 1318 q 732 1201 732 1253 q 699 1118 732 1150 q 614 1086 665 1086 z "},"ȭ":{"ha":942,"x_min":29,"x_max":913,"o":"m 471 -14 q 244 37 344 -14 q 86 177 143 88 q 29 381 29 267 q 86 584 29 494 q 244 724 143 674 q 471 774 344 774 q 699 724 599 774 q 856 584 800 674 q 913 381 913 494 q 856 177 913 267 q 699 37 800 88 q 471 -14 599 -14 m 471 231 q 560 270 525 231 q 594 381 594 310 q 560 490 594 451 q 471 529 525 529 q 382 490 417 529 q 347 381 347 451 q 382 270 347 310 q 471 231 417 231 m 572 829 q 500 842 532 829 q 433 876 468 854 q 404 892 418 886 q 381 899 390 899 q 341 883 357 899 q 322 842 325 867 l 169 842 q 220 994 169 940 q 361 1049 271 1049 q 433 1036 401 1049 q 500 1003 464 1024 q 531 986 515 993 q 556 979 546 979 q 597 996 581 979 q 615 1036 613 1013 l 764 1036 q 715 884 764 939 q 572 829 665 829 m 175 1265 l 758 1265 l 758 1110 l 175 1110 l 175 1265 z "},"œ":{"ha":1475,"x_min":29,"x_max":1446,"o":"m 1446 385 q 1440 307 1446 351 l 908 307 q 963 241 924 264 q 1064 218 1003 218 q 1144 231 1108 218 q 1219 274 1179 244 l 1388 108 q 1244 17 1331 49 q 1056 -14 1158 -14 q 750 86 868 -14 q 625 12 697 38 q 465 -14 553 -14 q 241 37 340 -14 q 85 177 142 88 q 29 381 29 267 q 85 584 29 494 q 241 724 142 674 q 465 774 340 774 q 624 749 553 774 q 747 676 694 724 q 872 749 801 724 q 1026 774 943 774 q 1235 728 1139 774 q 1388 594 1331 682 q 1446 385 1446 507 m 1026 560 q 944 533 976 560 q 903 458 913 507 l 1147 458 q 1108 533 1139 507 q 1026 560 1076 560 m 471 231 q 560 270 525 231 q 594 381 594 310 q 560 490 594 451 q 471 529 525 529 q 382 490 417 529 q 347 381 347 451 q 382 270 347 310 q 471 231 417 231 z "},"p":{"ha":972,"x_min":69,"x_max":943,"o":"m 576 774 q 760 726 676 774 q 894 588 844 678 q 943 379 943 497 q 894 172 943 261 q 760 34 844 82 q 576 -14 676 -14 q 383 51 450 -14 l 383 -269 l 69 -269 l 69 760 l 368 760 l 368 697 q 576 774 436 774 m 501 231 q 590 269 556 231 q 625 379 625 308 q 590 490 625 450 q 501 529 556 529 q 413 490 447 529 q 378 379 378 450 q 413 269 378 308 q 501 231 447 231 z "},"þ":{"ha":972,"x_min":69,"x_max":943,"o":"m 576 774 q 760 726 676 774 q 894 588 844 678 q 943 379 943 497 q 894 172 943 261 q 760 34 844 82 q 576 -14 676 -14 q 383 51 450 -14 l 383 -269 l 69 -269 l 69 1031 l 383 1031 l 383 713 q 576 774 450 774 m 501 231 q 590 269 556 231 q 625 379 625 308 q 590 490 625 450 q 501 529 556 529 q 413 490 447 529 q 378 379 378 450 q 413 269 378 308 q 501 231 447 231 z "},"q":{"ha":972,"x_min":29,"x_max":903,"o":"m 903 760 l 903 -269 l 589 -269 l 589 51 q 396 -14 522 -14 q 212 34 296 -14 q 78 172 128 82 q 29 379 29 261 q 78 588 29 497 q 212 726 128 678 q 396 774 296 774 q 604 697 536 774 l 604 760 l 903 760 m 471 231 q 560 269 525 231 q 594 379 594 308 q 560 490 594 450 q 471 529 525 529 q 382 490 417 529 q 347 379 347 450 q 382 269 347 308 q 471 231 417 231 z "},"r":{"ha":633,"x_min":69,"x_max":614,"o":"m 368 678 q 614 774 451 774 l 614 496 q 544 501 576 501 q 383 338 383 501 l 383 0 l 69 0 l 69 760 l 368 760 l 368 678 z "},"ŕ":{"ha":633,"x_min":69,"x_max":676,"o":"m 368 678 q 614 774 451 774 l 614 496 q 544 501 576 501 q 383 338 383 501 l 383 0 l 69 0 l 69 760 l 368 760 l 368 678 m 378 1065 l 676 1065 l 403 843 l 194 843 l 378 1065 z "},"ř":{"ha":633,"x_min":29,"x_max":651,"o":"m 368 678 q 614 774 451 774 l 614 496 q 544 501 576 501 q 383 338 383 501 l 383 0 l 69 0 l 69 760 l 368 760 l 368 678 m 651 1065 l 474 843 l 207 843 l 29 1065 l 224 1065 l 340 958 l 457 1065 l 651 1065 z "},"ŗ":{"ha":633,"x_min":69,"x_max":614,"o":"m 368 678 q 614 774 451 774 l 614 496 q 544 501 576 501 q 383 338 383 501 l 383 0 l 69 0 l 69 760 l 368 760 l 368 678 m 226 -69 q 318 -98 285 -69 q 351 -174 351 -126 q 317 -285 351 -225 l 263 -375 l 125 -375 l 161 -265 q 101 -174 101 -243 q 135 -98 101 -126 q 226 -69 168 -69 z "},"ȑ":{"ha":633,"x_min":-61,"x_max":614,"o":"m 368 678 q 614 774 451 774 l 614 496 q 544 501 576 501 q 383 338 383 501 l 383 0 l 69 0 l 69 760 l 368 760 l 368 678 m -61 1065 l 210 1065 l 282 843 l 74 843 l -61 1065 m 264 1065 l 535 1065 l 607 843 l 399 843 l 264 1065 z "},"ṛ":{"ha":633,"x_min":69,"x_max":614,"o":"m 368 678 q 614 774 451 774 l 614 496 q 544 501 576 501 q 383 338 383 501 l 383 0 l 69 0 l 69 760 l 368 760 l 368 678 m 226 -314 q 137 -281 172 -314 q 101 -193 101 -247 q 137 -104 101 -139 q 226 -69 172 -69 q 316 -104 281 -69 q 351 -193 351 -139 q 316 -281 351 -247 q 226 -314 281 -314 z "},"ȓ":{"ha":633,"x_min":50,"x_max":631,"o":"m 368 678 q 614 774 451 774 l 614 496 q 544 501 576 501 q 383 338 383 501 l 383 0 l 69 0 l 69 760 l 368 760 l 368 678 m 50 843 q 135 1015 56 951 q 340 1079 214 1079 q 546 1015 467 1079 q 631 843 625 951 l 443 843 q 412 905 440 882 q 340 928 383 928 q 269 905 297 928 q 238 843 240 882 l 50 843 z "},"ṟ":{"ha":633,"x_min":-65,"x_max":614,"o":"m 368 678 q 614 774 451 774 l 614 496 q 544 501 576 501 q 383 338 383 501 l 383 0 l 69 0 l 69 760 l 368 760 l 368 678 m -65 -103 l 518 -103 l 518 -267 l -65 -267 l -65 -103 z "},"s":{"ha":785,"x_min":22,"x_max":760,"o":"m 367 -14 q 175 7 269 -14 q 22 61 81 28 l 108 268 q 233 218 161 236 q 374 200 306 200 q 449 209 428 200 q 471 236 471 218 q 444 261 471 254 q 356 275 417 268 q 197 303 263 286 q 83 371 132 321 q 33 514 33 421 q 78 646 33 588 q 210 739 122 704 q 422 774 299 774 q 591 758 508 774 q 732 711 674 742 l 646 504 q 426 560 546 560 q 324 524 324 560 q 351 498 324 506 q 439 483 379 490 q 597 454 532 472 q 710 386 661 436 q 760 243 760 336 q 715 114 760 172 q 582 21 671 56 q 367 -14 493 -14 z "},"ś":{"ha":785,"x_min":22,"x_max":760,"o":"m 367 -14 q 175 7 269 -14 q 22 61 81 28 l 108 268 q 233 218 161 236 q 374 200 306 200 q 449 209 428 200 q 471 236 471 218 q 444 261 471 254 q 356 275 417 268 q 197 303 263 286 q 83 371 132 321 q 33 514 33 421 q 78 646 33 588 q 210 739 122 704 q 422 774 299 774 q 591 758 508 774 q 732 711 674 742 l 646 504 q 426 560 546 560 q 324 524 324 560 q 351 498 324 506 q 439 483 379 490 q 597 454 532 472 q 710 386 661 436 q 760 243 760 336 q 715 114 760 172 q 582 21 671 56 q 367 -14 493 -14 m 421 1065 l 719 1065 l 446 843 l 238 843 l 421 1065 z "},"ṥ":{"ha":785,"x_min":22,"x_max":760,"o":"m 367 -14 q 175 7 269 -14 q 22 61 81 28 l 108 268 q 233 218 161 236 q 374 200 306 200 q 449 209 428 200 q 471 236 471 218 q 444 261 471 254 q 356 275 417 268 q 197 303 263 286 q 83 371 132 321 q 33 514 33 421 q 78 646 33 588 q 210 739 122 704 q 422 774 299 774 q 591 758 508 774 q 732 711 674 742 l 646 504 q 426 560 546 560 q 324 524 324 560 q 351 498 324 506 q 439 483 379 490 q 597 454 532 472 q 710 386 661 436 q 760 243 760 336 q 715 114 760 172 q 582 21 671 56 q 367 -14 493 -14 m 379 1024 l 678 1024 l 446 843 l 238 843 l 379 1024 m 383 1083 q 294 1117 329 1083 q 258 1204 258 1150 q 294 1293 258 1258 q 383 1328 329 1328 q 473 1293 438 1328 q 508 1204 508 1258 q 473 1117 508 1150 q 383 1083 438 1083 z "},"ꞌ":{"ha":464,"x_min":76,"x_max":388,"o":"m 76 974 l 388 974 l 346 411 l 76 411 l 76 974 z "},"š":{"ha":785,"x_min":22,"x_max":760,"o":"m 367 -14 q 175 7 269 -14 q 22 61 81 28 l 108 268 q 233 218 161 236 q 374 200 306 200 q 449 209 428 200 q 471 236 471 218 q 444 261 471 254 q 356 275 417 268 q 197 303 263 286 q 83 371 132 321 q 33 514 33 421 q 78 646 33 588 q 210 739 122 704 q 422 774 299 774 q 591 758 508 774 q 732 711 674 742 l 646 504 q 426 560 546 560 q 324 524 324 560 q 351 498 324 506 q 439 483 379 490 q 597 454 532 472 q 710 386 661 436 q 760 243 760 336 q 715 114 760 172 q 582 21 671 56 q 367 -14 493 -14 m 694 1065 l 517 843 l 250 843 l 72 1065 l 267 1065 l 383 958 l 500 1065 l 694 1065 z "},"ṧ":{"ha":785,"x_min":22,"x_max":760,"o":"m 367 -14 q 175 7 269 -14 q 22 61 81 28 l 108 268 q 233 218 161 236 q 374 200 306 200 q 449 209 428 200 q 471 236 471 218 q 444 261 471 254 q 356 275 417 268 q 197 303 263 286 q 83 371 132 321 q 33 514 33 421 q 78 646 33 588 q 210 739 122 704 q 422 774 299 774 q 591 758 508 774 q 732 711 674 742 l 646 504 q 426 560 546 560 q 324 524 324 560 q 351 498 324 506 q 439 483 379 490 q 597 454 532 472 q 710 386 661 436 q 760 243 760 336 q 715 114 760 172 q 582 21 671 56 q 367 -14 493 -14 m 694 1024 l 515 843 l 251 843 l 72 1024 l 267 1024 l 383 939 l 500 1024 l 694 1024 m 383 1051 q 294 1085 329 1051 q 258 1172 258 1118 q 294 1261 258 1226 q 383 1296 329 1296 q 473 1261 438 1296 q 508 1172 508 1226 q 473 1085 508 1118 q 383 1051 438 1051 z "},"ş":{"ha":785,"x_min":22,"x_max":760,"o":"m 367 -14 q 175 7 269 -14 q 22 61 81 28 l 108 268 q 233 218 161 236 q 374 200 306 200 q 449 209 428 200 q 471 236 471 218 q 444 261 471 254 q 356 275 417 268 q 197 303 263 286 q 83 371 132 321 q 33 514 33 421 q 78 646 33 588 q 210 739 122 704 q 422 774 299 774 q 591 758 508 774 q 732 711 674 742 l 646 504 q 426 560 546 560 q 324 524 324 560 q 351 498 324 506 q 439 483 379 490 q 597 454 532 472 q 710 386 661 436 q 760 243 760 336 q 715 114 760 172 q 582 21 671 56 q 367 -14 493 -14 m 326 -333 q 251 -325 290 -333 q 190 -304 213 -317 l 229 -189 q 313 -206 271 -206 q 379 -172 379 -206 q 322 -144 379 -144 l 265 -144 l 303 14 l 464 14 l 444 -72 q 534 -112 506 -81 q 563 -183 563 -143 q 498 -293 563 -253 q 326 -333 433 -333 z "},"ŝ":{"ha":785,"x_min":22,"x_max":760,"o":"m 367 -14 q 175 7 269 -14 q 22 61 81 28 l 108 268 q 233 218 161 236 q 374 200 306 200 q 449 209 428 200 q 471 236 471 218 q 444 261 471 254 q 356 275 417 268 q 197 303 263 286 q 83 371 132 321 q 33 514 33 421 q 78 646 33 588 q 210 739 122 704 q 422 774 299 774 q 591 758 508 774 q 732 711 674 742 l 646 504 q 426 560 546 560 q 324 524 324 560 q 351 498 324 506 q 439 483 379 490 q 597 454 532 472 q 710 386 661 436 q 760 243 760 336 q 715 114 760 172 q 582 21 671 56 q 367 -14 493 -14 m 500 843 l 383 950 l 267 843 l 72 843 l 250 1065 l 517 1065 l 694 843 l 500 843 z "}}}
